<svg width="32" height="40" viewBox="0 0 32 40" xmlns="http://www.w3.org/2000/svg">
  <!-- Blue Witch Move Sprite - Enhanced -->
  
  <!-- Staff (slightly angled) -->
  <line x1="10" y1="12" x2="8" y2="26" stroke="#8B4513" stroke-width="2"/>
  <circle cx="10" cy="12" r="2" fill="#4169E1"/>
  <circle cx="10" cy="12" r="3" fill="#4169E1" opacity="0.3"/>
  
  <!-- Body/Robes (flowing, definitely blue) -->
  <ellipse cx="16" cy="34" rx="9" ry="5" fill="#1E3A8A"/>
  <ellipse cx="16" cy="30" rx="7" ry="7" fill="#2563EB"/>
  <ellipse cx="16" cy="26" rx="5" ry="4" fill="#3B82F6"/>
  
  <!-- Arms (in motion) -->
  <ellipse cx="12" cy="20" rx="2" ry="5" fill="#2563EB" transform="rotate(-10 12 20)"/>
  <ellipse cx="20" cy="22" rx="2" ry="4" fill="#2563EB" transform="rotate(15 20 22)"/>
  
  <!-- Hands -->
  <circle cx="11" cy="25" r="1.5" fill="#FDBCB4"/>
  <circle cx="21" cy="26" r="1.5" fill="#FDBCB4"/>
  
  <!-- Head -->
  <circle cx="16" cy="16" r="4" fill="#FDBCB4"/>
  
  <!-- Hat -->
  <path d="M 12 12 L 16 4 L 20 12 Z" fill="#1E3A8A"/>
  <ellipse cx="16" cy="12" rx="4" ry="1" fill="#2563EB"/>
  
  <!-- Hair (flowing) -->
  <path d="M 12 14 Q 8 16 10 20" stroke="#4A5568" stroke-width="2" fill="none"/>
  <path d="M 20 14 Q 24 16 22 20" stroke="#4A5568" stroke-width="2" fill="none"/>
  
  <!-- Eyes (BLUE instead of black) -->
  <circle cx="14" cy="15" r="0.8" fill="#4169E1"/>
  <circle cx="18" cy="15" r="0.8" fill="#4169E1"/>
  <circle cx="14" cy="15" r="0.3" fill="#FFFFFF"/>
  <circle cx="18" cy="15" r="0.3" fill="#FFFFFF"/>
  
  <!-- Mouth -->
  <path d="M 14 18 Q 16 19 18 18" stroke="#8B4513" stroke-width="0.5" fill="none"/>
  
  <!-- Motion lines -->
  <line x1="6" y1="30" x2="4" y2="32" stroke="#60A5FA" stroke-width="1" opacity="0.6"/>
  <line x1="26" y1="30" x2="28" y2="32" stroke="#60A5FA" stroke-width="1" opacity="0.6"/>
  
  <!-- Magical sparkles -->
  <circle cx="8" cy="18" r="0.5" fill="#FFD700" opacity="0.8"/>
  <circle cx="24" cy="20" r="0.5" fill="#FFD700" opacity="0.8"/>
  <circle cx="12" cy="32" r="0.5" fill="#60A5FA" opacity="0.6"/>
  <circle cx="20" cy="32" r="0.5" fill="#60A5FA" opacity="0.6"/>
</svg> 