<svg width="32" height="40" viewBox="0 0 32 40" xmlns="http://www.w3.org/2000/svg">
  <!-- Blue Witch Idle Sprite -->
  
  <!-- Staff -->
  <line x1="6" y1="8" x2="6" y2="28" stroke="#8B4513" stroke-width="2"/>
  <circle cx="6" cy="8" r="2" fill="#4169E1"/>
  
  <!-- Body/Robes -->
  <ellipse cx="16" cy="32" rx="8" ry="6" fill="#1E3A8A"/>
  <ellipse cx="16" cy="28" rx="6" ry="8" fill="#2563EB"/>
  
  <!-- Arms -->
  <ellipse cx="12" cy="22" rx="2" ry="4" fill="#2563EB"/>
  <ellipse cx="20" cy="22" rx="2" ry="4" fill="#2563EB"/>
  
  <!-- Hands -->
  <circle cx="10" cy="24" r="1.5" fill="#FDBCB4"/>
  <circle cx="22" cy="24" r="1.5" fill="#FDBCB4"/>
  
  <!-- Head -->
  <circle cx="16" cy="16" r="4" fill="#FDBCB4"/>
  
  <!-- Hat -->
  <polygon points="16,8 12,12 20,12" fill="#1E3A8A"/>
  <ellipse cx="16" cy="12" rx="4" ry="1" fill="#1E3A8A"/>
  
  <!-- Face -->
  <circle cx="14" cy="15" r="0.5" fill="#000"/>
  <circle cx="18" cy="15" r="0.5" fill="#000"/>
  <path d="M15 17 Q16 18 17 17" stroke="#000" stroke-width="0.5" fill="none"/>
  
  <!-- Hair -->
  <path d="M12 14 Q10 16 12 18" stroke="#4A4A4A" stroke-width="1" fill="none"/>
  <path d="M20 14 Q22 16 20 18" stroke="#4A4A4A" stroke-width="1" fill="none"/>
  
  <!-- Magic sparkles -->
  <circle cx="8" cy="10" r="0.5" fill="#FFD700" opacity="0.8"/>
  <circle cx="24" cy="12" r="0.5" fill="#FFD700" opacity="0.8"/>
  <circle cx="26" cy="20" r="0.5" fill="#4169E1" opacity="0.6"/>
</svg> 