<svg width="32" height="40" viewBox="0 0 32 40" xmlns="http://www.w3.org/2000/svg">
  <!-- Blue Witch Attack Sprite -->
  
  <!-- Staff (raised high) -->
  <line x1="22" y1="6" x2="18" y2="22" stroke="#8B4513" stroke-width="2"/>
  <circle cx="22" cy="6" r="2.5" fill="#4169E1"/>
  
  <!-- Energy burst from staff -->
  <circle cx="22" cy="6" r="4" fill="#FFD700" opacity="0.3"/>
  <circle cx="22" cy="6" r="2" fill="#FFFF00" opacity="0.5"/>
  <path d="M20 4 L18 2 M24 4 L26 2 M24 8 L26 10 M20 8 L18 10" stroke="#FFD700" stroke-width="1"/>
  
  <!-- Body/Robes (dramatic pose) -->
  <ellipse cx="16" cy="34" rx="9" ry="5" fill="#1E3A8A"/>
  <ellipse cx="16" cy="30" rx="6" ry="7" fill="#2563EB"/>
  
  <!-- Arms (casting pose) -->
  <ellipse cx="20" cy="18" rx="2" ry="6" fill="#2563EB" transform="rotate(-30 20 18)"/>
  <ellipse cx="12" cy="22" rx="2" ry="4" fill="#2563EB"/>
  
  <!-- Hands -->
  <circle cx="18" cy="20" r="1.5" fill="#FDBCB4"/>
  <circle cx="10" cy="24" r="1.5" fill="#FDBCB4"/>
  
  <!-- Head (focused) -->
  <circle cx="16" cy="16" r="4" fill="#FDBCB4"/>
  
  <!-- Hat -->
  <polygon points="16,8 12,12 20,12" fill="#1E3A8A"/>
  <ellipse cx="16" cy="12" rx="4" ry="1" fill="#1E3A8A"/>
  
  <!-- Face (intense) -->
  <circle cx="14" cy="15" r="0.5" fill="#FF0000"/>
  <circle cx="18" cy="15" r="0.5" fill="#FF0000"/>
  <path d="M15 17 Q16 16 17 17" stroke="#000" stroke-width="0.5" fill="none"/>
  
  <!-- Hair (flowing with energy) -->
  <path d="M12 14 Q9 16 11 19" stroke="#4A4A4A" stroke-width="1" fill="none"/>
  <path d="M20 14 Q23 16 21 19" stroke="#4A4A4A" stroke-width="1" fill="none"/>
  
  <!-- Magic energy around body -->
  <circle cx="8" cy="14" r="0.5" fill="#4169E1" opacity="0.8"/>
  <circle cx="24" cy="16" r="0.5" fill="#FFD700" opacity="0.8"/>
  <circle cx="6" cy="20" r="0.5" fill="#4169E1" opacity="0.6"/>
  <circle cx="26" cy="24" r="0.5" fill="#FFD700" opacity="0.6"/>
  
  <!-- Energy lines -->
  <path d="M22 6 Q16 8 12 18" stroke="#FFD700" stroke-width="1" opacity="0.5" fill="none"/>
  <path d="M22 6 Q20 12 18 20" stroke="#4169E1" stroke-width="1" opacity="0.5" fill="none"/>
</svg> 