<svg width="32" height="40" viewBox="0 0 32 40" xmlns="http://www.w3.org/2000/svg">
  <!-- Blue Witch Charge Sprite -->
  
  <!-- Staff (held with both hands) -->
  <line x1="16" y1="4" x2="16" y2="22" stroke="#8B4513" stroke-width="2"/>
  <circle cx="16" cy="4" r="3" fill="#4169E1"/>
  
  <!-- Massive energy burst -->
  <circle cx="16" cy="4" r="6" fill="#FFD700" opacity="0.2"/>
  <circle cx="16" cy="4" r="4" fill="#FFFF00" opacity="0.3"/>
  <circle cx="16" cy="4" r="2" fill="#FFFFFF" opacity="0.5"/>
  
  <!-- Energy spikes -->
  <path d="M16 4 L16 0 M16 4 L20 0 M16 4 L12 0 M16 4 L22 4 M16 4 L10 4" stroke="#FFD700" stroke-width="2"/>
  <path d="M16 4 L18 1 M16 4 L14 1 M16 4 L19 7 M16 4 L13 7" stroke="#FFFF00" stroke-width="1"/>
  
  <!-- Body/Robes (energy-infused) -->
  <ellipse cx="16" cy="34" rx="10" ry="5" fill="#1E3A8A"/>
  <ellipse cx="16" cy="30" rx="7" ry="8" fill="#2563EB"/>
  
  <!-- Arms (both raised) -->
  <ellipse cx="12" cy="18" rx="2" ry="5" fill="#2563EB" transform="rotate(-45 12 18)"/>
  <ellipse cx="20" cy="18" rx="2" ry="5" fill="#2563EB" transform="rotate(45 20 18)"/>
  
  <!-- Hands (gripping staff) -->
  <circle cx="14" cy="18" r="1.5" fill="#FDBCB4"/>
  <circle cx="18" cy="18" r="1.5" fill="#FDBCB4"/>
  
  <!-- Head (concentrating) -->
  <circle cx="16" cy="16" r="4" fill="#FDBCB4"/>
  
  <!-- Hat (glowing) -->
  <polygon points="16,8 12,12 20,12" fill="#1E3A8A"/>
  <ellipse cx="16" cy="12" rx="4" ry="1" fill="#1E3A8A"/>
  <circle cx="16" cy="10" r="1" fill="#4169E1" opacity="0.8"/>
  
  <!-- Face (glowing eyes) -->
  <circle cx="14" cy="15" r="0.5" fill="#00FFFF"/>
  <circle cx="18" cy="15" r="0.5" fill="#00FFFF"/>
  <circle cx="14" cy="15" r="1" fill="#00FFFF" opacity="0.3"/>
  <circle cx="18" cy="15" r="1" fill="#00FFFF" opacity="0.3"/>
  <path d="M15 17 Q16 16 17 17" stroke="#000" stroke-width="0.5" fill="none"/>
  
  <!-- Hair (standing up with energy) -->
  <path d="M12 14 Q8 10 10 14" stroke="#4A4A4A" stroke-width="1" fill="none"/>
  <path d="M20 14 Q24 10 22 14" stroke="#4A4A4A" stroke-width="1" fill="none"/>
  
  <!-- Energy field around body -->
  <circle cx="6" cy="12" r="1" fill="#4169E1" opacity="0.6"/>
  <circle cx="26" cy="12" r="1" fill="#FFD700" opacity="0.6"/>
  <circle cx="4" cy="18" r="0.5" fill="#4169E1" opacity="0.8"/>
  <circle cx="28" cy="18" r="0.5" fill="#FFD700" opacity="0.8"/>
  <circle cx="6" cy="24" r="0.5" fill="#4169E1" opacity="0.6"/>
  <circle cx="26" cy="24" r="0.5" fill="#FFD700" opacity="0.6"/>
  
  <!-- Energy crackling -->
  <path d="M6 8 L8 6 L10 8 L12 6" stroke="#FFFF00" stroke-width="1" fill="none"/>
  <path d="M20 6 L22 8 L24 6 L26 8" stroke="#FFFF00" stroke-width="1" fill="none"/>
  <path d="M2 16 L4 14 L6 16 L8 14" stroke="#00FFFF" stroke-width="1" fill="none"/>
  <path d="M24 14 L26 16 L28 14 L30 16" stroke="#00FFFF" stroke-width="1" fill="none"/>
</svg> 