<svg width="32" height="40" viewBox="0 0 32 40" xmlns="http://www.w3.org/2000/svg">
  <!-- Blue Witch Death Sprite -->
  
  <!-- Fallen staff -->
  <line x1="4" y1="32" x2="12" y2="28" stroke="#8B4513" stroke-width="2" opacity="0.7"/>
  <circle cx="4" cy="32" r="2" fill="#4169E1" opacity="0.5"/>
  
  <!-- Body/Robes (collapsing) -->
  <ellipse cx="16" cy="36" rx="12" ry="4" fill="#1E3A8A" opacity="0.6"/>
  <ellipse cx="16" cy="32" rx="8" ry="6" fill="#2563EB" opacity="0.7"/>
  
  <!-- Arms (fallen) -->
  <ellipse cx="10" cy="26" rx="2" ry="4" fill="#2563EB" opacity="0.6" transform="rotate(-30 10 26)"/>
  <ellipse cx="22" cy="26" rx="2" ry="4" fill="#2563EB" opacity="0.6" transform="rotate(30 22 26)"/>
  
  <!-- Hands (limp) -->
  <circle cx="8" cy="28" r="1.5" fill="#FDBCB4" opacity="0.7"/>
  <circle cx="24" cy="28" r="1.5" fill="#FDBCB4" opacity="0.7"/>
  
  <!-- Head (tilted, fading) -->
  <ellipse cx="16" cy="20" rx="4" ry="3" fill="#FDBCB4" opacity="0.6"/>
  
  <!-- Hat (falling off) -->
  <polygon points="18,16 14,18 22,20" fill="#1E3A8A" opacity="0.5"/>
  <ellipse cx="18" cy="18" rx="3" ry="1" fill="#1E3A8A" opacity="0.5"/>
  
  <!-- Face (eyes closed) -->
  <path d="M13 19 Q14 18 15 19" stroke="#000" stroke-width="0.5" fill="none" opacity="0.7"/>
  <path d="M17 19 Q18 18 19 19" stroke="#000" stroke-width="0.5" fill="none" opacity="0.7"/>
  <path d="M15 21 Q16 22 17 21" stroke="#000" stroke-width="0.5" fill="none" opacity="0.7"/>
  
  <!-- Hair (disheveled) -->
  <path d="M12 18 Q8 20 10 24" stroke="#4A4A4A" stroke-width="1" fill="none" opacity="0.6"/>
  <path d="M20 18 Q24 20 22 24" stroke="#4A4A4A" stroke-width="1" fill="none" opacity="0.6"/>
  
  <!-- Dissolving particles -->
  <circle cx="6" cy="10" r="0.5" fill="#2563EB" opacity="0.4"/>
  <circle cx="26" cy="8" r="0.5" fill="#2563EB" opacity="0.3"/>
  <circle cx="8" cy="6" r="0.5" fill="#1E3A8A" opacity="0.3"/>
  <circle cx="24" cy="4" r="0.5" fill="#1E3A8A" opacity="0.2"/>
  <circle cx="16" cy="2" r="0.5" fill="#2563EB" opacity="0.2"/>
  
  <!-- Larger dissolving chunks -->
  <circle cx="4" cy="12" r="1" fill="#2563EB" opacity="0.3"/>
  <circle cx="28" cy="14" r="1" fill="#1E3A8A" opacity="0.3"/>
  <circle cx="2" cy="18" r="0.5" fill="#2563EB" opacity="0.2"/>
  <circle cx="30" cy="20" r="0.5" fill="#1E3A8A" opacity="0.2"/>
  
  <!-- Magical essence leaving -->
  <circle cx="12" cy="8" r="0.5" fill="#FFD700" opacity="0.4"/>
  <circle cx="20" cy="6" r="0.5" fill="#FFD700" opacity="0.3"/>
  <circle cx="14" cy="4" r="0.5" fill="#FFD700" opacity="0.2"/>
  <circle cx="18" cy="2" r="0.5" fill="#FFD700" opacity="0.1"/>
  
  <!-- Fading aura -->
  <circle cx="16" cy="24" r="10" fill="#4169E1" opacity="0.1"/>
  <circle cx="16" cy="24" r="6" fill="#2563EB" opacity="0.1"/>
  
  <!-- Spirit wisps -->
  <path d="M10 10 Q12 8 14 10 Q16 12 18 10" stroke="#FFFFFF" stroke-width="1" fill="none" opacity="0.3"/>
  <path d="M8 14 Q10 12 12 14 Q14 16 16 14" stroke="#FFFFFF" stroke-width="1" fill="none" opacity="0.2"/>
</svg> 