<svg width="32" height="40" viewBox="0 0 32 40" xmlns="http://www.w3.org/2000/svg">
  <!-- Blue Witch Move Sprite -->
  
  <!-- Staff (angled forward) -->
  <line x1="8" y1="10" x2="12" y2="26" stroke="#8B4513" stroke-width="2"/>
  <circle cx="8" cy="10" r="2" fill="#4169E1"/>
  
  <!-- Body/Robes (flowing) -->
  <ellipse cx="16" cy="34" rx="10" ry="5" fill="#1E3A8A"/>
  <ellipse cx="16" cy="30" rx="7" ry="6" fill="#2563EB"/>
  
  <!-- Arms (extended) -->
  <ellipse cx="10" cy="20" rx="2" ry="5" fill="#2563EB" transform="rotate(-15 10 20)"/>
  <ellipse cx="22" cy="20" rx="2" ry="4" fill="#2563EB"/>
  
  <!-- Hands -->
  <circle cx="8" cy="22" r="1.5" fill="#FDBCB4"/>
  <circle cx="24" cy="22" r="1.5" fill="#FDBCB4"/>
  
  <!-- Head (slightly tilted) -->
  <ellipse cx="16" cy="15" rx="4" ry="4.5" fill="#FDBCB4"/>
  
  <!-- Hat (tilted) -->
  <polygon points="16,6 11,10 19,11" fill="#1E3A8A"/>
  <ellipse cx="16" cy="10.5" rx="4" ry="1.5" fill="#1E3A8A"/>
  
  <!-- Face -->
  <circle cx="14" cy="14" r="0.5" fill="#000"/>
  <circle cx="18" cy="14" r="0.5" fill="#000"/>
  <path d="M15 16 Q16 17 17 16" stroke="#000" stroke-width="0.5" fill="none"/>
  
  <!-- Hair (flowing) -->
  <path d="M11 13 Q8 15 10 19" stroke="#4A4A4A" stroke-width="1" fill="none"/>
  <path d="M21 13 Q24 15 22 19" stroke="#4A4A4A" stroke-width="1" fill="none"/>
  
  <!-- Magic trail -->
  <circle cx="6" cy="12" r="0.5" fill="#FFD700" opacity="0.8"/>
  <circle cx="4" cy="16" r="0.5" fill="#4169E1" opacity="0.6"/>
  <circle cx="2" cy="20" r="0.5" fill="#FFD700" opacity="0.4"/>
  
  <!-- Motion lines -->
  <line x1="26" y1="18" x2="30" y2="18" stroke="#E0E0E0" stroke-width="1" opacity="0.5"/>
  <line x1="26" y1="22" x2="29" y2="22" stroke="#E0E0E0" stroke-width="1" opacity="0.5"/>
  <line x1="26" y1="26" x2="28" y2="26" stroke="#E0E0E0" stroke-width="1" opacity="0.5"/>
</svg> 