<svg height="128" width="128" xmlns="http://www.w3.org/2000/svg">
  <rect x="2" y="2" width="124" height="124" rx="14" fill="#363d52" stroke="#212532" stroke-width="4"/>
  <g transform="scale(.101) translate(122 122)">
    <g fill="#fff">
      <path d="m464 128c0 53-43 96-96 96s-96-43-96-96 43-96 96-96 96 43 96 96z"/>
      <path d="m104 272c0 53-43 96-96 96s-96-43-96-96 43-96 96-96 96 43 96 96z"/>
      <path d="m464 416c0 53-43 96-96 96s-96-43-96-96 43-96 96-96 96 43 96 96z"/>
    </g>
  </g>
</svg> 