<svg width="24" height="30" viewBox="0 0 24 30" xmlns="http://www.w3.org/2000/svg">
  <!-- Wizard Ultimate Animation Frame 5: Maximum Arcane Storm Release -->
  
  <!-- Staff raised high for ultimate spell -->
  <line x1="12" y1="6" x2="12" y2="20" stroke="#8B4513" stroke-width="1.5"/>
  <circle cx="12" cy="6" r="2" fill="#4169E1"/>
  <circle cx="12" cy="6" r="1.5" fill="#6495ED" opacity="0.8"/>
  
  <!-- Body/Robes -->
  <ellipse cx="12" cy="24" rx="6" ry="4" fill="#2563EB"/>
  <ellipse cx="12" cy="20" rx="4" ry="6" fill="#4169E1"/>
  <ellipse cx="12" cy="18" rx="3" ry="4" fill="#6495ED"/>
  
  <!-- Arms - channeling ultimate power -->
  <ellipse cx="10" cy="14" rx="1.5" ry="2.5" fill="#FDBCB4"/>
  <ellipse cx="14" cy="14" rx="1.5" ry="2.5" fill="#FDBCB4"/>
  
  <!-- Head -->
  <circle cx="12" cy="12" r="3" fill="#FDBCB4"/>
  
  <!-- Eyes - blazing with absolute power -->
  <circle cx="10.5" cy="11" r="0.5" fill="#FFFF00"/>
  <circle cx="13.5" cy="11" r="0.5" fill="#FFFF00"/>
  <circle cx="10.5" cy="11" r="0.3" fill="#FFF8DC"/>
  <circle cx="13.5" cy="11" r="0.3" fill="#FFF8DC"/>
  
  <!-- Mouth -->
  <path d="M 10.5 13 Q 12 13.5 13.5 13" stroke="#000" stroke-width="0.5" fill="none"/>
  
  <!-- Beard -->
  <ellipse cx="12" cy="14.5" rx="1.5" ry="1" fill="#8B4513"/>
  
  <!-- Hat -->
  <path d="M 9 10 Q 12 6 15 10 Q 12 12 9 10" fill="#1E3A8A"/>
  <circle cx="12" cy="8" r="0.7" fill="#FFD700"/>
  
  <!-- Hair -->
  <path d="M 9 11 Q 8 12 9 13" fill="#8B4513"/>
  <path d="M 15 11 Q 16 12 15 13" fill="#8B4513"/>
  
  <!-- Maximum arcane storm at staff -->
  <circle cx="12" cy="6" r="8" fill="#FFD700" opacity="0.7"/>
  <circle cx="12" cy="6" r="8.5" fill="none" stroke="#FFFF00" stroke-width="1.5" opacity="1"/>
  <circle cx="12" cy="6" r="7.5" fill="none" stroke="#FFD700" stroke-width="1.2" opacity="1"/>
  <circle cx="12" cy="6" r="6.5" fill="none" stroke="#FFF8DC" stroke-width="1" opacity="1"/>
  <circle cx="12" cy="6" r="5.5" fill="none" stroke="#4169E1" stroke-width="0.8" opacity="0.8"/>
  <circle cx="12" cy="6" r="4.5" fill="none" stroke="#87CEEB" stroke-width="0.6" opacity="0.7"/>
  
  <!-- Ultimate lightning storm -->
  <path d="M 2 0 L 4 2 L 2 4 L 4 6 L 2 8 L 4 10 L 2 12 L 4 14" stroke="#FFFF00" stroke-width="1.5" fill="none" opacity="1"/>
  <path d="M 22 0 L 20 2 L 22 4 L 20 6 L 22 8 L 20 10 L 22 12 L 20 14" stroke="#FFFF00" stroke-width="1.5" fill="none" opacity="1"/>
  <path d="M 12 0 L 10 2 L 12 4 L 14 2 L 12 0" stroke="#FFFF00" stroke-width="1.5" fill="none" opacity="1"/>
  <path d="M 6 0 L 8 2 L 6 4 L 8 6 L 6 8" stroke="#FFFF00" stroke-width="1.2" fill="none" opacity="0.9"/>
  <path d="M 18 0 L 16 2 L 18 4 L 16 6 L 18 8" stroke="#FFFF00" stroke-width="1.2" fill="none" opacity="0.9"/>
  <path d="M 0 4 L 2 6 L 0 8 L 2 10" stroke="#FFD700" stroke-width="1" fill="none" opacity="0.8"/>
  <path d="M 24 4 L 22 6 L 24 8 L 22 10" stroke="#FFD700" stroke-width="1" fill="none" opacity="0.8"/>
  
  <!-- Ultimate energy rays from staff -->
  <line x1="12" y1="6" x2="0" y2="0" stroke="#FFFF00" stroke-width="1.5" opacity="1"/>
  <line x1="12" y1="6" x2="24" y2="0" stroke="#FFFF00" stroke-width="1.5" opacity="1"/>
  <line x1="12" y1="6" x2="0" y2="12" stroke="#FFFF00" stroke-width="1.5" opacity="1"/>
  <line x1="12" y1="6" x2="24" y2="12" stroke="#FFFF00" stroke-width="1.5" opacity="1"/>
  <line x1="12" y1="6" x2="0" y2="24" stroke="#FFD700" stroke-width="1.2" opacity="0.8"/>
  <line x1="12" y1="6" x2="24" y2="24" stroke="#FFD700" stroke-width="1.2" opacity="0.8"/>
  <line x1="12" y1="6" x2="6" y2="0" stroke="#4169E1" stroke-width="1" opacity="0.7"/>
  <line x1="12" y1="6" x2="18" y2="0" stroke="#4169E1" stroke-width="1" opacity="0.7"/>
  <line x1="12" y1="6" x2="3" y2="15" stroke="#87CEEB" stroke-width="0.8" opacity="0.6"/>
  <line x1="12" y1="6" x2="21" y2="15" stroke="#87CEEB" stroke-width="0.8" opacity="0.6"/>
  
  <!-- Ultimate combined energy sparkles -->
  <circle cx="10" cy="8" r="0.8" fill="#FFD700" opacity="1"/>
  <circle cx="14" cy="8" r="0.8" fill="#FFD700" opacity="1"/>
  <circle cx="12" cy="4" r="0.8" fill="#FFFF00" opacity="1"/>
  <circle cx="8" cy="6" r="0.7" fill="#FFD700" opacity="1"/>
  <circle cx="16" cy="6" r="0.7" fill="#FFD700" opacity="1"/>
  <circle cx="12" cy="2" r="0.7" fill="#FFFF00" opacity="1"/>
  <circle cx="6" cy="4" r="0.6" fill="#FFD700" opacity="0.9"/>
  <circle cx="18" cy="4" r="0.6" fill="#FFD700" opacity="0.9"/>
  <circle cx="4" cy="8" r="0.6" fill="#FFFF00" opacity="0.9"/>
  <circle cx="20" cy="8" r="0.6" fill="#FFFF00" opacity="0.9"/>
  <circle cx="2" cy="2" r="0.5" fill="#4169E1" opacity="0.8"/>
  <circle cx="22" cy="2" r="0.5" fill="#4169E1" opacity="0.8"/>
  <circle cx="0" cy="12" r="0.5" fill="#4169E1" opacity="0.7"/>
  <circle cx="24" cy="12" r="0.5" fill="#4169E1" opacity="0.7"/>
  <circle cx="6" cy="0" r="0.4" fill="#87CEEB" opacity="0.6"/>
  <circle cx="18" cy="0" r="0.4" fill="#87CEEB" opacity="0.6"/>
  <circle cx="0" cy="6" r="0.4" fill="#87CEEB" opacity="0.6"/>
  <circle cx="24" cy="6" r="0.4" fill="#87CEEB" opacity="0.6"/>
  
  <!-- Ultimate energy aura around wizard -->
  <circle cx="12" cy="16" r="12" fill="none" stroke="#FFD700" stroke-width="0.8" opacity="0.6"/>
  <circle cx="12" cy="16" r="13" fill="none" stroke="#FFFF00" stroke-width="0.7" opacity="0.5"/>
  <circle cx="12" cy="16" r="14" fill="none" stroke="#FFF8DC" stroke-width="0.6" opacity="0.4"/>
  <circle cx="12" cy="16" r="15" fill="none" stroke="#4169E1" stroke-width="0.5" opacity="0.3"/>
  <circle cx="12" cy="16" r="16" fill="none" stroke="#87CEEB" stroke-width="0.4" opacity="0.2"/>
  
  <!-- Ultimate energy circulation around body -->
  <circle cx="12" cy="12" r="7" fill="none" stroke="#FFD700" stroke-width="0.5" opacity="0.7"/>
  <circle cx="12" cy="20" r="6" fill="none" stroke="#FFFF00" stroke-width="0.5" opacity="0.6"/>
  <circle cx="12" cy="16" r="5" fill="none" stroke="#4169E1" stroke-width="0.4" opacity="0.5"/>
  <circle cx="12" cy="18" r="4" fill="none" stroke="#87CEEB" stroke-width="0.3" opacity="0.4"/>
  
  <!-- Ultimate storm vortex -->
  <path d="M 12 6 Q 8 8 12 10 Q 16 8 12 6" fill="none" stroke="#FFFF00" stroke-width="1" opacity="0.8"/>
  <path d="M 12 6 Q 10 10 12 12 Q 14 10 12 6" fill="none" stroke="#FFD700" stroke-width="0.8" opacity="0.7"/>
  <path d="M 12 6 Q 14 4 12 2 Q 10 4 12 6" fill="none" stroke="#4169E1" stroke-width="0.6" opacity="0.6"/>
</svg> 