<svg width="24" height="30" viewBox="0 0 24 30" xmlns="http://www.w3.org/2000/svg">
  <!-- Wizard Move Animation - Regular Wizard Theme -->
  
  <!-- Staff (angled for walking support) -->
  <line x1="7" y1="9" x2="5" y2="24" stroke="#8B4513" stroke-width="1.5"/>
  <circle cx="7" cy="8" r="1.5" fill="#4169E1" opacity="0.8"/>
  <circle cx="7" cy="8" r="1" fill="#4169E1"/>
  
  <!-- Body/Robes (flowing with movement) -->
  <ellipse cx="12" cy="24" rx="6" ry="4" fill="#1E3A8A"/>
  <ellipse cx="13" cy="20" rx="5" ry="6" fill="#2563EB"/>
  <ellipse cx="13" cy="18" rx="4" ry="5" fill="#4169E1" opacity="0.3"/>
  
  <!-- Robe trailing effect -->
  <ellipse cx="10" cy="25" rx="3" ry="2" fill="#1E3A8A" opacity="0.7"/>
  
  <!-- Left Arm (holding staff) -->
  <ellipse cx="8" cy="15" rx="1.5" ry="3" fill="#2563EB" transform="rotate(-10 8 15)"/>
  <circle cx="7" cy="18" r="1" fill="#DDBEA9"/>
  
  <!-- Right Arm (swinging naturally) -->
  <ellipse cx="16" cy="17" rx="1.5" ry="3" fill="#2563EB" transform="rotate(15 16 17)"/>
  <circle cx="17" cy="20" r="1" fill="#DDBEA9"/>
  
  <!-- Head (leaning forward) -->
  <circle cx="12" cy="11" r="3" fill="#DDBEA9"/>
  <circle cx="11" cy="10" r="0.5" fill="#000"/>
  <circle cx="13" cy="10" r="0.5" fill="#000"/>
  <path d="M 11.5 11.5 Q 12 12 12.5 11.5" stroke="#000" stroke-width="0.5" fill="none"/>
  
  <!-- Wizard hat (shifted with movement) -->
  <path d="M 12 8 L 10 5 L 14 5 Z" fill="#1E3A8A"/>
  <ellipse cx="12" cy="8" rx="3.5" ry="1" fill="#2563EB"/>
  
  <!-- Beard -->
  <ellipse cx="12" cy="13" rx="2" ry="1.5" fill="#E5E7EB"/>
  
  <!-- Movement magical aura -->
  <circle cx="11" cy="16" r="0.4" fill="#FFD700" opacity="0.5"/>
  <circle cx="15" cy="18" r="0.4" fill="#FFD700" opacity="0.5"/>
  <circle cx="9" cy="20" r="0.4" fill="#FFD700" opacity="0.5"/>
  
  <!-- Staff crystal details -->
  <rect x="6" y="13" width="1" height="0.5" fill="#4169E1" opacity="0.8"/>
  <rect x="5.5" y="17" width="1" height="0.5" fill="#4169E1" opacity="0.8"/>
  <rect x="5" y="21" width="1" height="0.5" fill="#4169E1" opacity="0.8"/>
  
  <!-- Star on hat -->
  <path d="M 12 6 L 11.5 4.5 L 12 5.5 L 12.5 4.5 Z" fill="#FFD700"/>
  
</svg> 