<svg width="24" height="30" viewBox="0 0 24 30" xmlns="http://www.w3.org/2000/svg">
  <!-- Wizard Special Animation Frame 3: Maximum Blue Flash Impact -->
  
  <!-- Staff positioned for magic missile release -->
  <line x1="8" y1="12" x2="8" y2="24" stroke="#8B4513" stroke-width="1.5"/>
  <circle cx="8" cy="12" r="2" fill="#4169E1"/>
  <circle cx="8" cy="12" r="1.5" fill="#6495ED" opacity="0.8"/>
  
  <!-- Body/Robes -->
  <ellipse cx="12" cy="24" rx="6" ry="4" fill="#2563EB"/>
  <ellipse cx="12" cy="20" rx="4" ry="6" fill="#4169E1"/>
  <ellipse cx="12" cy="18" rx="3" ry="4" fill="#6495ED"/>
  
  <!-- Arms - releasing magic missile -->
  <ellipse cx="7" cy="16" rx="1.5" ry="2.5" fill="#FDBCB4"/>
  <ellipse cx="17" cy="16" rx="1.5" ry="2.5" fill="#FDBCB4"/>
  
  <!-- Head -->
  <circle cx="12" cy="12" r="3" fill="#FDBCB4"/>
  
  <!-- Eyes - intensely glowing -->
  <circle cx="10.5" cy="11" r="0.5" fill="#87CEEB"/>
  <circle cx="13.5" cy="11" r="0.5" fill="#87CEEB"/>
  
  <!-- Mouth -->
  <path d="M 10.5 13 Q 12 13.5 13.5 13" stroke="#000" stroke-width="0.5" fill="none"/>
  
  <!-- Beard -->
  <ellipse cx="12" cy="14.5" rx="1.5" ry="1" fill="#8B4513"/>
  
  <!-- Hat -->
  <path d="M 9 10 Q 12 6 15 10 Q 12 12 9 10" fill="#1E3A8A"/>
  <circle cx="12" cy="8" r="0.7" fill="#FFD700"/>
  
  <!-- Hair -->
  <path d="M 9 11 Q 8 12 9 13" fill="#8B4513"/>
  <path d="M 15 11 Q 16 12 15 13" fill="#8B4513"/>
  
  <!-- Maximum blue flash impact -->
  <circle cx="8" cy="12" r="5" fill="#87CEEB" opacity="0.4"/>
  <circle cx="8" cy="12" r="4" fill="#4169E1" opacity="0.5"/>
  <circle cx="8" cy="12" r="3" fill="#6495ED" opacity="0.6"/>
  
  <!-- Blue explosion rings -->
  <circle cx="8" cy="12" r="6" fill="none" stroke="#87CEEB" stroke-width="1.5" opacity="0.8"/>
  <circle cx="8" cy="12" r="5" fill="none" stroke="#4169E1" stroke-width="1.2" opacity="0.7"/>
  <circle cx="8" cy="12" r="4" fill="none" stroke="#6495ED" stroke-width="1" opacity="0.9"/>
  
  <!-- Magic missile projectile -->
  <circle cx="2" cy="8" r="1" fill="#87CEEB" opacity="0.9"/>
  <circle cx="1" cy="7" r="0.7" fill="#4169E1" opacity="0.8"/>
  <circle cx="0" cy="6" r="0.5" fill="#6495ED" opacity="0.7"/>
  
  <!-- Maximum blue sparkles -->
  <circle cx="10" cy="11" r="0.5" fill="#87CEEB" opacity="1"/>
  <circle cx="6" cy="14" r="0.5" fill="#87CEEB" opacity="1"/>
  <circle cx="5" cy="10" r="0.4" fill="#4169E1" opacity="0.9"/>
  <circle cx="11" cy="15" r="0.4" fill="#4169E1" opacity="0.9"/>
  <circle cx="9" cy="9" r="0.4" fill="#6495ED" opacity="1"/>
  <circle cx="14" cy="10" r="0.3" fill="#87CEEB" opacity="0.8"/>
  <circle cx="4" cy="18" r="0.3" fill="#87CEEB" opacity="0.8"/>
  
  <!-- Energy burst rays -->
  <line x1="8" y1="12" x2="16" y2="4" stroke="#87CEEB" stroke-width="1" opacity="0.7"/>
  <line x1="8" y1="12" x2="0" y2="20" stroke="#87CEEB" stroke-width="1" opacity="0.7"/>
  <line x1="8" y1="12" x2="14" y2="18" stroke="#4169E1" stroke-width="0.8" opacity="0.6"/>
  <line x1="8" y1="12" x2="2" y2="6" stroke="#4169E1" stroke-width="0.8" opacity="0.6"/>
  <line x1="8" y1="12" x2="18" y2="12" stroke="#6495ED" stroke-width="0.6" opacity="0.8"/>
  <line x1="8" y1="12" x2="8" y2="0" stroke="#6495ED" stroke-width="0.6" opacity="0.8"/>
</svg> 