<svg width="24" height="30" viewBox="0 0 24 30" xmlns="http://www.w3.org/2000/svg">
  <!-- Wizard Death Animation - Peaceful Magical Departure -->
  
  <!-- Staff (falling/planted in ground) -->
  <line x1="8" y1="20" x2="9" y2="28" stroke="#8B4513" stroke-width="1.5" opacity="0.6"/>
  <circle cx="8" cy="19" r="1.5" fill="#4169E1" opacity="0.4"/>
  <circle cx="8" cy="19" r="1" fill="#4169E1" opacity="0.5"/>
  
  <!-- Body/Robes (collapsing peacefully) -->
  <ellipse cx="12" cy="27" rx="7" ry="3" fill="#1E3A8A" opacity="0.8"/>
  <ellipse cx="13" cy="23" rx="6" ry="5" fill="#2563EB" opacity="0.8"/>
  <ellipse cx="13" cy="21" rx="5" ry="4" fill="#4169E1" opacity="0.2"/>
  
  <!-- Fading magical energy -->
  <ellipse cx="12" cy="22" rx="8" ry="9" fill="#4169E1" opacity="0.1"/>
  <ellipse cx="12" cy="22" rx="6" ry="7" fill="#FFD700" opacity="0.05"/>
  
  <!-- Left Arm (falling away from staff) -->
  <ellipse cx="10" cy="19" rx="1.5" ry="3" fill="#2563EB" opacity="0.7" transform="rotate(-45 10 19)"/>
  <circle cx="9" cy="22" r="1" fill="#DDBEA9" opacity="0.7"/>
  
  <!-- Right Arm (slumped down) -->
  <ellipse cx="16" cy="21" rx="1.5" ry="3" fill="#2563EB" opacity="0.7" transform="rotate(30 16 21)"/>
  <circle cx="17" cy="24" r="1" fill="#DDBEA9" opacity="0.7"/>
  
  <!-- Head (tilted back peacefully) -->
  <circle cx="12" cy="15" r="3" fill="#DDBEA9" opacity="0.8"/>
  <circle cx="11" cy="14" r="0.5" fill="#000" opacity="0.3"/>
  <circle cx="13" cy="14" r="0.5" fill="#000" opacity="0.3"/>
  <path d="M 11.5 15.5 Q 12 16 12.5 15.5" stroke="#000" stroke-width="0.5" fill="none" opacity="0.5"/>
  
  <!-- Wizard hat (falling back) -->
  <path d="M 12 12 L 10 9 L 14 9 Z" fill="#1E3A8A" opacity="0.8"/>
  <ellipse cx="12" cy="12" rx="3.5" ry="1" fill="#2563EB" opacity="0.8"/>
  
  <!-- Beard -->
  <ellipse cx="12" cy="17" rx="2" ry="1.5" fill="#E5E7EB" opacity="0.8"/>
  
  <!-- Dissipating magical energy -->
  <circle cx="10" cy="16" r="0.4" fill="#4169E1" opacity="0.3"/>
  <circle cx="14" cy="17" r="0.4" fill="#4169E1" opacity="0.3"/>
  <circle cx="12" cy="18" r="0.4" fill="#4169E1" opacity="0.3"/>
  <circle cx="16" cy="19" r="0.4" fill="#4169E1" opacity="0.2"/>
  <circle cx="8" cy="20" r="0.4" fill="#4169E1" opacity="0.2"/>
  
  <!-- Staff crystal details (fading away) -->
  <rect x="7.5" y="22" width="1" height="0.5" fill="#4169E1" opacity="0.3"/>
  <rect x="8" y="24" width="1" height="0.5" fill="#4169E1" opacity="0.3"/>
  <rect x="8.5" y="26" width="1" height="0.5" fill="#4169E1" opacity="0.3"/>
  
  <!-- Soul/magic departing -->
  <circle cx="12" cy="10" r="0.4" fill="#FFD700" opacity="0.4"/>
  <circle cx="11" cy="8" r="0.4" fill="#FFD700" opacity="0.3"/>
  <circle cx="13" cy="6" r="0.4" fill="#FFD700" opacity="0.2"/>
  <circle cx="12" cy="4" r="0.4" fill="#FFD700" opacity="0.1"/>
  <circle cx="10" cy="5" r="0.3" fill="#4169E1" opacity="0.3"/>
  <circle cx="14" cy="5" r="0.3" fill="#4169E1" opacity="0.3"/>
  
  <!-- Wisps of fading energy -->
  <path d="M 10 12 Q 8 10 6 8" stroke="#4169E1" stroke-width="1" fill="none" opacity="0.3"/>
  <path d="M 14 12 Q 16 10 18 8" stroke="#4169E1" stroke-width="1" fill="none" opacity="0.3"/>
  <path d="M 12 14 Q 12 12 12 10" stroke="#FFD700" stroke-width="1" fill="none" opacity="0.4"/>
  
  <!-- Ground magical residue -->
  <ellipse cx="12" cy="28" rx="4" ry="1" fill="#4169E1" opacity="0.2"/>
  <ellipse cx="12" cy="29" rx="6" ry="1" fill="#4169E1" opacity="0.1"/>
  
  <!-- Star on hat (fading) -->
  <path d="M 12 10 L 11.5 8.5 L 12 9.5 L 12.5 8.5 Z" fill="#FFD700" opacity="0.6"/>
  
</svg> 