<svg width="24" height="30" viewBox="0 0 24 30" xmlns="http://www.w3.org/2000/svg">
  <!-- Wizard Ultimate Animation Frame 4: Massive Energy Buildup -->
  
  <!-- Staff raised high for ultimate spell -->
  <line x1="12" y1="6" x2="12" y2="20" stroke="#8B4513" stroke-width="1.5"/>
  <circle cx="12" cy="6" r="2" fill="#4169E1"/>
  <circle cx="12" cy="6" r="1.5" fill="#6495ED" opacity="0.8"/>
  
  <!-- Body/Robes -->
  <ellipse cx="12" cy="24" rx="6" ry="4" fill="#2563EB"/>
  <ellipse cx="12" cy="20" rx="4" ry="6" fill="#4169E1"/>
  <ellipse cx="12" cy="18" rx="3" ry="4" fill="#6495ED"/>
  
  <!-- Arms - channeling ultimate power -->
  <ellipse cx="10" cy="14" rx="1.5" ry="2.5" fill="#FDBCB4"/>
  <ellipse cx="14" cy="14" rx="1.5" ry="2.5" fill="#FDBCB4"/>
  
  <!-- Head -->
  <circle cx="12" cy="12" r="3" fill="#FDBCB4"/>
  
  <!-- Eyes - blazing with maximum power -->
  <circle cx="10.5" cy="11" r="0.5" fill="#FFFF00"/>
  <circle cx="13.5" cy="11" r="0.5" fill="#FFFF00"/>
  <circle cx="10.5" cy="11" r="0.3" fill="#FFF8DC"/>
  <circle cx="13.5" cy="11" r="0.3" fill="#FFF8DC"/>
  
  <!-- Mouth -->
  <path d="M 10.5 13 Q 12 13.5 13.5 13" stroke="#000" stroke-width="0.5" fill="none"/>
  
  <!-- Beard -->
  <ellipse cx="12" cy="14.5" rx="1.5" ry="1" fill="#8B4513"/>
  
  <!-- Hat -->
  <path d="M 9 10 Q 12 6 15 10 Q 12 12 9 10" fill="#1E3A8A"/>
  <circle cx="12" cy="8" r="0.7" fill="#FFD700"/>
  
  <!-- Hair -->
  <path d="M 9 11 Q 8 12 9 13" fill="#8B4513"/>
  <path d="M 15 11 Q 16 12 15 13" fill="#8B4513"/>
  
  <!-- Massive golden energy at staff -->
  <circle cx="12" cy="6" r="6" fill="#FFD700" opacity="0.6"/>
  <circle cx="12" cy="6" r="6.5" fill="none" stroke="#FFFF00" stroke-width="1.2" opacity="0.9"/>
  <circle cx="12" cy="6" r="5.5" fill="none" stroke="#FFD700" stroke-width="1" opacity="1"/>
  <circle cx="12" cy="6" r="4.5" fill="none" stroke="#FFF8DC" stroke-width="0.8" opacity="0.9"/>
  <circle cx="12" cy="6" r="3.5" fill="none" stroke="#4169E1" stroke-width="0.6" opacity="0.7"/>
  
  <!-- Lightning storm -->
  <path d="M 4 0 L 6 2 L 4 4 L 6 6 L 4 8 L 6 10 L 4 12" stroke="#FFFF00" stroke-width="1.2" fill="none" opacity="0.9"/>
  <path d="M 20 0 L 18 2 L 20 4 L 18 6 L 20 8 L 18 10 L 20 12" stroke="#FFFF00" stroke-width="1.2" fill="none" opacity="0.9"/>
  <path d="M 12 0 L 10 2 L 12 4 L 14 2 L 12 0" stroke="#FFFF00" stroke-width="1.2" fill="none" opacity="0.9"/>
  <path d="M 8 0 L 10 2 L 8 4 L 10 6" stroke="#FFFF00" stroke-width="1" fill="none" opacity="0.8"/>
  <path d="M 16 0 L 14 2 L 16 4 L 14 6" stroke="#FFFF00" stroke-width="1" fill="none" opacity="0.8"/>
  
  <!-- Energy rays from staff (maximum) -->
  <line x1="12" y1="6" x2="0" y2="0" stroke="#FFFF00" stroke-width="1.2" opacity="0.8"/>
  <line x1="12" y1="6" x2="24" y2="0" stroke="#FFFF00" stroke-width="1.2" opacity="0.8"/>
  <line x1="12" y1="6" x2="0" y2="16" stroke="#FFD700" stroke-width="1" opacity="0.7"/>
  <line x1="12" y1="6" x2="24" y2="16" stroke="#FFD700" stroke-width="1" opacity="0.7"/>
  <line x1="12" y1="6" x2="6" y2="0" stroke="#4169E1" stroke-width="0.8" opacity="0.6"/>
  <line x1="12" y1="6" x2="18" y2="0" stroke="#4169E1" stroke-width="0.8" opacity="0.6"/>
  
  <!-- Combined energy sparkles -->
  <circle cx="10" cy="8" r="0.6" fill="#FFD700" opacity="1"/>
  <circle cx="14" cy="8" r="0.6" fill="#FFD700" opacity="1"/>
  <circle cx="12" cy="4" r="0.6" fill="#FFFF00" opacity="1"/>
  <circle cx="8" cy="6" r="0.5" fill="#FFD700" opacity="0.9"/>
  <circle cx="16" cy="6" r="0.5" fill="#FFD700" opacity="0.9"/>
  <circle cx="12" cy="2" r="0.5" fill="#FFFF00" opacity="0.9"/>
  <circle cx="6" cy="4" r="0.4" fill="#FFD700" opacity="0.8"/>
  <circle cx="18" cy="4" r="0.4" fill="#FFD700" opacity="0.8"/>
  <circle cx="4" cy="8" r="0.4" fill="#FFFF00" opacity="0.8"/>
  <circle cx="20" cy="8" r="0.4" fill="#FFFF00" opacity="0.8"/>
  <circle cx="2" cy="2" r="0.3" fill="#4169E1" opacity="0.7"/>
  <circle cx="22" cy="2" r="0.3" fill="#4169E1" opacity="0.7"/>
  <circle cx="0" cy="12" r="0.3" fill="#4169E1" opacity="0.6"/>
  <circle cx="24" cy="12" r="0.3" fill="#4169E1" opacity="0.6"/>
  
  <!-- Maximum energy aura around wizard -->
  <circle cx="12" cy="16" r="11" fill="none" stroke="#FFD700" stroke-width="0.6" opacity="0.5"/>
  <circle cx="12" cy="16" r="12" fill="none" stroke="#FFFF00" stroke-width="0.5" opacity="0.4"/>
  <circle cx="12" cy="16" r="13" fill="none" stroke="#FFF8DC" stroke-width="0.4" opacity="0.3"/>
  <circle cx="12" cy="16" r="14" fill="none" stroke="#4169E1" stroke-width="0.3" opacity="0.2"/>
  
  <!-- Energy circulation around body (maximum) -->
  <circle cx="12" cy="12" r="6" fill="none" stroke="#FFD700" stroke-width="0.4" opacity="0.6"/>
  <circle cx="12" cy="20" r="5" fill="none" stroke="#FFFF00" stroke-width="0.4" opacity="0.5"/>
  <circle cx="12" cy="16" r="4" fill="none" stroke="#4169E1" stroke-width="0.3" opacity="0.4"/>
</svg> 