<svg width="24" height="30" viewBox="0 0 24 30" xmlns="http://www.w3.org/2000/svg">
  <!-- Wizard Ultimate Animation Frame 1: Initial Arcane Storm Buildup -->
  
  <!-- Staff raised high for ultimate spell -->
  <line x1="12" y1="6" x2="12" y2="20" stroke="#8B4513" stroke-width="1.5"/>
  <circle cx="12" cy="6" r="2" fill="#4169E1"/>
  <circle cx="12" cy="6" r="1.5" fill="#6495ED" opacity="0.8"/>
  
  <!-- Body/Robes -->
  <ellipse cx="12" cy="24" rx="6" ry="4" fill="#2563EB"/>
  <ellipse cx="12" cy="20" rx="4" ry="6" fill="#4169E1"/>
  <ellipse cx="12" cy="18" rx="3" ry="4" fill="#6495ED"/>
  
  <!-- Arms - raising staff for ultimate -->
  <ellipse cx="10" cy="14" rx="1.5" ry="2.5" fill="#FDBCB4"/>
  <ellipse cx="14" cy="14" rx="1.5" ry="2.5" fill="#FDBCB4"/>
  
  <!-- Head -->
  <circle cx="12" cy="12" r="3" fill="#FDBCB4"/>
  
  <!-- Eyes - beginning to glow -->
  <circle cx="10.5" cy="11" r="0.5" fill="#FFD700"/>
  <circle cx="13.5" cy="11" r="0.5" fill="#FFD700"/>
  
  <!-- Mouth -->
  <path d="M 10.5 13 Q 12 13.5 13.5 13" stroke="#000" stroke-width="0.5" fill="none"/>
  
  <!-- Beard -->
  <ellipse cx="12" cy="14.5" rx="1.5" ry="1" fill="#8B4513"/>
  
  <!-- Hat -->
  <path d="M 9 10 Q 12 6 15 10 Q 12 12 9 10" fill="#1E3A8A"/>
  <circle cx="12" cy="8" r="0.7" fill="#FFD700"/>
  
  <!-- Hair -->
  <path d="M 9 11 Q 8 12 9 13" fill="#8B4513"/>
  <path d="M 15 11 Q 16 12 15 13" fill="#8B4513"/>
  
  <!-- Initial golden energy at staff -->
  <circle cx="12" cy="6" r="2.5" fill="#FFD700" opacity="0.3"/>
  <circle cx="12" cy="6" r="3" fill="none" stroke="#FFFF00" stroke-width="0.5" opacity="0.5"/>
  
  <!-- Small golden sparkles -->
  <circle cx="10" cy="8" r="0.3" fill="#FFD700" opacity="0.7"/>
  <circle cx="14" cy="8" r="0.3" fill="#FFD700" opacity="0.7"/>
  <circle cx="12" cy="4" r="0.3" fill="#FFFF00" opacity="0.6"/>
  
  <!-- Beginning energy aura around wizard -->
  <circle cx="12" cy="16" r="8" fill="none" stroke="#FFD700" stroke-width="0.3" opacity="0.2"/>
</svg> 