<svg width="24" height="30" viewBox="0 0 24 30" xmlns="http://www.w3.org/2000/svg">
  <!-- Wizard Attack Animation - Regular Wizard Theme -->
  
  <!-- Staff (raised diagonally for casting) -->
  <line x1="18" y1="6" x2="14" y2="20" stroke="#8B4513" stroke-width="1.5"/>
  <circle cx="18" cy="5" r="1.5" fill="#4169E1" opacity="0.9"/>
  <circle cx="18" cy="5" r="1" fill="#4169E1"/>
  
  <!-- Energy burst from staff crystal -->
  <circle cx="18" cy="5" r="2" fill="#4169E1" opacity="0.4"/>
  <circle cx="18" cy="5" r="2.5" fill="#4169E1" opacity="0.2"/>
  <circle cx="18" cy="5" r="3" fill="#4169E1" opacity="0.1"/>
  
  <!-- Body/Robes (billowing with magical energy) -->
  <ellipse cx="12" cy="24" rx="6" ry="4" fill="#1E3A8A"/>
  <ellipse cx="11" cy="20" rx="5" ry="6" fill="#2563EB"/>
  <ellipse cx="11" cy="18" rx="4" ry="5" fill="#4169E1" opacity="0.4"/>
  
  <!-- Magical energy around body -->
  <ellipse cx="12" cy="19" rx="6" ry="7" fill="#4169E1" opacity="0.1"/>
  
  <!-- Left Arm (supporting staff) -->
  <ellipse cx="10" cy="14" rx="1.5" ry="3" fill="#2563EB" transform="rotate(-20 10 14)"/>
  <circle cx="9" cy="17" r="1" fill="#DDBEA9"/>
  
  <!-- Right Arm (casting arm extended) -->
  <ellipse cx="17" cy="12" rx="1.5" ry="3" fill="#2563EB" transform="rotate(-45 17 12)"/>
  <circle cx="19" cy="9" r="1" fill="#DDBEA9"/>
  
  <!-- Head (focused expression) -->
  <circle cx="12" cy="12" r="3" fill="#DDBEA9"/>
  <circle cx="11" cy="11" r="0.5" fill="#000"/>
  <circle cx="13" cy="11" r="0.5" fill="#000"/>
  <path d="M 11.5 12.5 Q 12 13 12.5 12.5" stroke="#000" stroke-width="0.5" fill="none"/>
  
  <!-- Wizard hat -->
  <path d="M 12 9 L 10 6 L 14 6 Z" fill="#1E3A8A"/>
  <ellipse cx="12" cy="9" rx="3.5" ry="1" fill="#2563EB"/>
  
  <!-- Beard -->
  <ellipse cx="12" cy="14" rx="2" ry="1.5" fill="#E5E7EB"/>
  
  <!-- Energy sparkles -->
  <circle cx="16" cy="8" r="0.4" fill="#4169E1" opacity="0.7"/>
  <circle cx="20" cy="7" r="0.4" fill="#4169E1" opacity="0.7"/>
  <circle cx="19" cy="10" r="0.4" fill="#4169E1" opacity="0.7"/>
  <circle cx="15" cy="12" r="0.4" fill="#4169E1" opacity="0.7"/>
  <circle cx="21" cy="4" r="0.4" fill="#FFD700" opacity="0.8"/>
  <circle cx="17" cy="3" r="0.4" fill="#FFD700" opacity="0.8"/>
  
  <!-- Staff crystal details (glowing) -->
  <rect x="17" y="10" width="1" height="0.5" fill="#4169E1" opacity="0.9"/>
  <rect x="16" y="14" width="1" height="0.5" fill="#4169E1" opacity="0.9"/>
  <rect x="15" y="18" width="1" height="0.5" fill="#4169E1" opacity="0.9"/>
  
  <!-- Star on hat -->
  <path d="M 12 7 L 11.5 5.5 L 12 6.5 L 12.5 5.5 Z" fill="#FFD700"/>
  
</svg> 