<svg width="24" height="30" viewBox="0 0 24 30" xmlns="http://www.w3.org/2000/svg">
  <!-- Wizard Idle Animation Frame 3 - Breathing Out -->
  
  <!-- Staff (held vertically at side) -->
  <line x1="6" y1="8" x2="6" y2="25" stroke="#8B4513" stroke-width="1.5"/>
  <circle cx="6" cy="7" r="1.5" fill="#4169E1" opacity="0.8"/>
  <circle cx="6" cy="7" r="1" fill="#4169E1"/>
  
  <!-- Body/Robes (compressed chest - breathing out) -->
  <ellipse cx="12" cy="24" rx="6" ry="4" fill="#1E3A8A"/>
  <ellipse cx="12" cy="20.5" rx="4.5" ry="5.5" fill="#2563EB"/>
  <ellipse cx="12" cy="19" rx="3.5" ry="4.5" fill="#4169E1" opacity="0.3"/>
  
  <!-- Left Arm (slightly lowered) -->
  <ellipse cx="8" cy="17" rx="1.5" ry="3" fill="#2563EB"/>
  <circle cx="8" cy="20" r="1" fill="#DDBEA9"/>
  
  <!-- Right Arm (slightly lowered) -->
  <ellipse cx="16" cy="17" rx="1.5" ry="3" fill="#2563EB"/>
  <circle cx="16" cy="20" r="1" fill="#DDBEA9"/>
  
  <!-- Head (lowered slightly with breathing) -->
  <circle cx="12" cy="13" r="3" fill="#DDBEA9"/>
  <circle cx="11" cy="12" r="0.5" fill="#000"/>
  <circle cx="13" cy="12" r="0.5" fill="#000"/>
  <path d="M 11.5 13.5 Q 12 14 12.5 13.5" stroke="#000" stroke-width="0.5" fill="none"/>
  
  <!-- Wizard hat -->
  <path d="M 12 10 L 9 7 L 15 7 Z" fill="#1E3A8A"/>
  <ellipse cx="12" cy="10" rx="3.5" ry="1" fill="#2563EB"/>
  
  <!-- Beard -->
  <ellipse cx="12" cy="15" rx="2" ry="1.5" fill="#E5E7EB"/>
  
  <!-- Magical sparkles -->
  <circle cx="10" cy="16" r="0.4" fill="#FFD700" opacity="0.6"/>
  <circle cx="14" cy="18" r="0.4" fill="#FFD700" opacity="0.6"/>
  <circle cx="18" cy="15" r="0.4" fill="#FFD700" opacity="0.6"/>
  
  <!-- Staff crystal details -->
  <rect x="5.5" y="12" width="1" height="0.5" fill="#4169E1" opacity="0.8"/>
  <rect x="5.5" y="15" width="1" height="0.5" fill="#4169E1" opacity="0.8"/>
  <rect x="5.5" y="18" width="1" height="0.5" fill="#4169E1" opacity="0.8"/>
  
  <!-- Star on hat -->
  <path d="M 12 8 L 11.5 6.5 L 12 7.5 L 12.5 6.5 Z" fill="#FFD700"/>
  
</svg> 