<svg width="24" height="30" viewBox="0 0 24 30" xmlns="http://www.w3.org/2000/svg">
  <!-- Knight Dodge Animation Frame 3 - Recovery to Ready -->
  
  <!-- Sword (coming back to ready position) -->
  <line x1="5" y1="12" x2="6" y2="24" stroke="#C0C0C0" stroke-width="1"/>
  <line x1="4" y1="12" x2="6" y2="12" stroke="#8B4513" stroke-width="1"/>
  <circle cx="6" cy="25" r="1" fill="#8B4513"/>
  
  <!-- Shield (returning to defensive position) -->
  <ellipse cx="18" cy="17" rx="2" ry="3" fill="#4169E1" transform="rotate(-10 18 17)"/>
  <ellipse cx="18" cy="17" rx="1.5" ry="2.5" fill="#FFD700" transform="rotate(-10 18 17)"/>
  
  <!-- Body Armor (straightening up) -->
  <ellipse cx="12" cy="23" rx="4" ry="3" fill="#708090"/>
  <ellipse cx="12" cy="21" rx="3.5" ry="3.8" fill="#778899"/>
  <ellipse cx="12" cy="19" rx="3" ry="3" fill="#708090"/>
  
  <!-- Arms (returning to ready position) -->
  <!-- Right arm (sword arm, ready) -->
  <ellipse cx="8" cy="18" rx="1.5" ry="2.5" fill="#DEB887" transform="rotate(15 8 18)"/>
  <ellipse cx="7" cy="20" rx="1" ry="2" fill="#708090" transform="rotate(15 7 20)"/>
  
  <!-- Left arm (shield arm, ready) -->
  <ellipse cx="16" cy="18" rx="1.5" ry="2.5" fill="#DEB887" transform="rotate(-15 16 18)"/>
  <ellipse cx="17" cy="20" rx="1" ry="2" fill="#708090" transform="rotate(-15 17 20)"/>
  
  <!-- Hands -->
  <circle cx="6" cy="22" r="1" fill="#DEB887"/>
  <circle cx="18" cy="20" r="1" fill="#DEB887"/>
  
  <!-- Head (looking up, alert) -->
  <circle cx="12" cy="12" r="3" fill="#DEB887"/>
  
  <!-- Helmet -->
  <path d="M9 10 Q12 8 15 10 Q15 12 12 12 Q9 12 9 10" fill="#708090"/>
  <line x1="9" y1="11" x2="15" y2="11" stroke="#556B2F" stroke-width="0.5"/>
  
  <!-- Face (alert after dodge) -->
  <circle cx="11" cy="11" r="0.5" fill="#000000"/>
  <circle cx="13" cy="11" r="0.5" fill="#000000"/>
  <path d="M11 13 Q12 14 13 13" stroke="#000000" stroke-width="0.5" fill="none"/>
  
  <!-- Hair (visible under helmet) -->
  <path d="M10 10 Q12 9 14 10" stroke="#8B4513" stroke-width="0.5" fill="none"/>
  
  <!-- Legs (recovering stance) -->
  <ellipse cx="10" cy="27" rx="1.5" ry="2.5" fill="#708090" transform="rotate(-5 10 27)"/>
  <ellipse cx="14" cy="26" rx="1.5" ry="2.5" fill="#708090" transform="rotate(10 14 26)"/>
  
  <!-- Feet (stabilizing) -->
  <ellipse cx="9" cy="29" rx="1" ry="1" fill="#2F4F4F"/>
  <ellipse cx="15" cy="28" rx="1" ry="1" fill="#2F4F4F"/>
  
  <!-- Armor Details -->
  <line x1="12" y1="17" x2="12" y2="21" stroke="#556B2F" stroke-width="0.5"/>
  <line x1="10" y1="19" x2="14" y2="19" stroke="#556B2F" stroke-width="0.5"/>
  
  <!-- Recovery dust effect -->
  <circle cx="8" cy="28" r="0.5" fill="#D3D3D3" opacity="0.5"/>
  <circle cx="16" cy="27" r="0.5" fill="#D3D3D3" opacity="0.5"/>
  <circle cx="12" cy="28" r="0.5" fill="#D3D3D3" opacity="0.5"/>
</svg> 