<svg width="24" height="30" viewBox="0 0 24 30" xmlns="http://www.w3.org/2000/svg">
  <!-- Knight Idle Animation Frame 1 - Subtle Breathing In + Bounce Up -->
  
  <!-- Sword (held at side, blade up) -->
  <line x1="4" y1="9.5" x2="4" y2="21.5" stroke="#C0C0C0" stroke-width="1"/>
  <line x1="3" y1="9.5" x2="5" y2="9.5" stroke="#8B4513" stroke-width="1"/>
  <circle cx="4" cy="22.5" r="1" fill="#8B4513"/>
  
  <!-- Shield (left arm, slightly angled) -->
  <ellipse cx="19" cy="15.5" rx="2" ry="3" fill="#4169E1"/>
  <ellipse cx="19" cy="15.5" rx="1.5" ry="2.5" fill="#FFD700"/>
  
  <!-- Body Armor (very slightly expanded - subtle breathing in) -->
  <ellipse cx="12" cy="21.5" rx="4.2" ry="3.2" fill="#708090"/>
  <ellipse cx="12" cy="19.5" rx="3.7" ry="4.2" fill="#778899"/>
  <ellipse cx="12" cy="17.5" rx="3.2" ry="3.2" fill="#708090"/>
  
  <!-- Arms (positioned for sword/shield holding) -->
  <!-- Right arm (sword arm) -->
  <ellipse cx="8" cy="16.5" rx="1.5" ry="2.5" fill="#DEB887"/>
  <ellipse cx="7" cy="18.5" rx="1" ry="2" fill="#708090"/>
  
  <!-- Left arm (shield arm) -->
  <ellipse cx="16" cy="16.5" rx="1.5" ry="2.5" fill="#DEB887"/>
  <ellipse cx="17" cy="18.5" rx="1" ry="2" fill="#708090"/>
  
  <!-- Hands -->
  <circle cx="6" cy="20.5" r="1" fill="#DEB887"/>
  <circle cx="18" cy="20.5" r="1" fill="#DEB887"/>
  
  <!-- Head (consistent with other frames) -->
  <circle cx="12" cy="11.5" r="3" fill="#DEB887"/>
  
  <!-- Helmet -->
  <path d="M9 9.5 Q12 7.5 15 9.5 Q15 11.5 12 11.5 Q9 11.5 9 9.5" fill="#708090"/>
  <line x1="9" y1="10.5" x2="15" y2="10.5" stroke="#556B2F" stroke-width="0.5"/>
  
  <!-- Face -->
  <circle cx="11" cy="10.5" r="0.5" fill="#000000"/>
  <circle cx="13" cy="10.5" r="0.5" fill="#000000"/>
  <path d="M11 12.5 Q12 13.5 13 12.5" stroke="#000000" stroke-width="0.5" fill="none"/>
  
  <!-- Hair (visible under helmet) -->
  <path d="M10 9.5 Q12 8.5 14 9.5" stroke="#8B4513" stroke-width="0.5" fill="none"/>
  
  <!-- Legs (stable stance) -->
  <ellipse cx="10" cy="25.5" rx="1.5" ry="2.5" fill="#708090"/>
  <ellipse cx="14" cy="25.5" rx="1.5" ry="2.5" fill="#708090"/>
  
  <!-- Feet -->
  <ellipse cx="10" cy="28.5" rx="1" ry="1" fill="#2F4F4F"/>
  <ellipse cx="14" cy="28.5" rx="1" ry="1" fill="#2F4F4F"/>
  
  <!-- Armor Details -->
  <line x1="12" y1="15.5" x2="12" y2="19.5" stroke="#556B2F" stroke-width="0.5"/>
  <line x1="10" y1="17.5" x2="14" y2="17.5" stroke="#556B2F" stroke-width="0.5"/>
</svg> 