<svg width="24" height="30" viewBox="0 0 24 30" xmlns="http://www.w3.org/2000/svg">
  <!-- Knight Special Animation - Shield Bash -->
  
  <!-- Sword (held back during shield bash) -->
  <line x1="3" y1="14" x2="5" y2="25" stroke="#C0C0C0" stroke-width="1"/>
  <line x1="2" y1="14" x2="4" y2="14" stroke="#8B4513" stroke-width="1"/>
  <circle cx="5" cy="26" r="1" fill="#8B4513"/>
  
  <!-- Shield (thrust forward) -->
  <ellipse cx="18" cy="14" rx="2.5" ry="3.5" fill="#4169E1"/>
  <ellipse cx="18" cy="14" rx="2" ry="3" fill="#FFD700"/>
  <circle cx="18" cy="14" r="1" fill="#C0C0C0"/>
  
  <!-- Body Armor (lunging forward) -->
  <ellipse cx="11" cy="22" rx="4" ry="3" fill="#708090"/>
  <ellipse cx="11" cy="20" rx="3.5" ry="4" fill="#778899"/>
  <ellipse cx="11" cy="18" rx="3" ry="3" fill="#708090"/>
  
  <!-- Arms (positioned for shield bash) -->
  <!-- Right arm (sword arm, pulled back) -->
  <ellipse cx="7" cy="17" rx="1.5" ry="2.5" fill="#DEB887" transform="rotate(30 7 17)"/>
  <ellipse cx="6" cy="19" rx="1" ry="2" fill="#708090" transform="rotate(30 6 19)"/>
  
  <!-- Left arm (shield arm, thrust forward) -->
  <ellipse cx="16" cy="16" rx="1.5" ry="2.5" fill="#DEB887" transform="rotate(-20 16 16)"/>
  <ellipse cx="17" cy="18" rx="1" ry="2" fill="#708090" transform="rotate(-20 17 18)"/>
  
  <!-- Hands -->
  <circle cx="5" cy="21" r="1" fill="#DEB887"/>
  <circle cx="18" cy="20" r="1" fill="#DEB887"/>
  
  <!-- Head (focused on bash target) -->
  <circle cx="12" cy="12" r="3" fill="#DEB887"/>
  
  <!-- Helmet -->
  <path d="M9 10 Q12 8 15 10 Q15 12 12 12 Q9 12 9 10" fill="#708090"/>
  <line x1="9" y1="11" x2="15" y2="11" stroke="#556B2F" stroke-width="0.5"/>
  
  <!-- Face (determined expression) -->
  <circle cx="11" cy="11" r="0.5" fill="#000000"/>
  <circle cx="13" cy="11" r="0.5" fill="#000000"/>
  <path d="M11 13 Q12 13 13 13" stroke="#000000" stroke-width="0.5" fill="none"/>
  
  <!-- Hair (visible under helmet) -->
  <path d="M10 10 Q12 9 14 10" stroke="#8B4513" stroke-width="0.5" fill="none"/>
  
  <!-- Legs (lunging stance) -->
  <!-- Front leg (right, forward) -->
  <ellipse cx="13" cy="25" rx="1.5" ry="2.5" fill="#708090" transform="rotate(-15 13 25)"/>
  <!-- Back leg (left, braced) -->
  <ellipse cx="9" cy="27" rx="1.5" ry="2.5" fill="#708090" transform="rotate(20 9 27)"/>
  
  <!-- Feet -->
  <ellipse cx="12" cy="28" rx="1" ry="1" fill="#2F4F4F"/>
  <ellipse cx="10" cy="29" rx="1" ry="1" fill="#2F4F4F"/>
  
  <!-- Armor Details -->
  <line x1="11" y1="16" x2="11" y2="20" stroke="#556B2F" stroke-width="0.5"/>
  <line x1="9" y1="18" x2="13" y2="18" stroke="#556B2F" stroke-width="0.5"/>
  
  <!-- Shield impact effect -->
  <circle cx="20" cy="14" r="1" fill="#FFD700" opacity="0.5"/>
  <circle cx="20" cy="14" r="1.5" fill="#FFD700" opacity="0.3"/>
</svg> 