<svg width="24" height="30" viewBox="0 0 24 30" xmlns="http://www.w3.org/2000/svg">
  <!-- Knight Attack Animation -->
  
  <!-- Sword (raised high for slash) -->
  <line x1="16" y1="6" x2="18" y2="18" stroke="#C0C0C0" stroke-width="1"/>
  <line x1="15" y1="6" x2="17" y2="6" stroke="#8B4513" stroke-width="1"/>
  <circle cx="18" cy="19" r="1" fill="#8B4513"/>
  
  <!-- Shield (lowered during attack) -->
  <ellipse cx="8" cy="20" rx="2" ry="3" fill="#4169E1" transform="rotate(-30 8 20)"/>
  <ellipse cx="8" cy="20" rx="1.5" ry="2.5" fill="#FFD700" transform="rotate(-30 8 20)"/>
  
  <!-- Body Armor (twisted for power) -->
  <ellipse cx="12" cy="22" rx="4" ry="3" fill="#708090"/>
  <ellipse cx="12" cy="20" rx="3.5" ry="4" fill="#778899"/>
  <ellipse cx="12" cy="18" rx="3" ry="3" fill="#708090"/>
  
  <!-- Arms (positioned for sword swing) -->
  <!-- Right arm (sword arm, raised high) -->
  <ellipse cx="15" cy="14" rx="1.5" ry="2.5" fill="#DEB887" transform="rotate(-30 15 14)"/>
  <ellipse cx="16" cy="16" rx="1" ry="2" fill="#708090" transform="rotate(-30 16 16)"/>
  
  <!-- Left arm (shield arm, braced) -->
  <ellipse cx="9" cy="18" rx="1.5" ry="2.5" fill="#DEB887" transform="rotate(20 9 18)"/>
  <ellipse cx="8" cy="20" rx="1" ry="2" fill="#708090" transform="rotate(20 8 20)"/>
  
  <!-- Hands -->
  <circle cx="17" cy="18" r="1" fill="#DEB887"/>
  <circle cx="7" cy="22" r="1" fill="#DEB887"/>
  
  <!-- Head (focused on target) -->
  <circle cx="12" cy="12" r="3" fill="#DEB887"/>
  
  <!-- Helmet -->
  <path d="M9 10 Q12 8 15 10 Q15 12 12 12 Q9 12 9 10" fill="#708090"/>
  <line x1="9" y1="11" x2="15" y2="11" stroke="#556B2F" stroke-width="0.5"/>
  
  <!-- Face (intense expression) -->
  <circle cx="11" cy="11" r="0.5" fill="#000000"/>
  <circle cx="13" cy="11" r="0.5" fill="#000000"/>
  <path d="M11 13 Q12 12 13 13" stroke="#000000" stroke-width="0.5" fill="none"/>
  
  <!-- Hair (visible under helmet) -->
  <path d="M10 10 Q12 9 14 10" stroke="#8B4513" stroke-width="0.5" fill="none"/>
  
  <!-- Legs (stable stance) -->
  <ellipse cx="10" cy="26" rx="1.5" ry="2.5" fill="#708090"/>
  <ellipse cx="14" cy="26" rx="1.5" ry="2.5" fill="#708090"/>
  
  <!-- Feet (planted firmly) -->
  <ellipse cx="10" cy="29" rx="1" ry="1" fill="#2F4F4F"/>
  <ellipse cx="14" cy="29" rx="1" ry="1" fill="#2F4F4F"/>
  
  <!-- Armor Details -->
  <line x1="12" y1="16" x2="12" y2="20" stroke="#556B2F" stroke-width="0.5"/>
  <line x1="10" y1="18" x2="14" y2="18" stroke="#556B2F" stroke-width="0.5"/>
  
  <!-- Motion blur effect on sword -->
  <line x1="15" y1="7" x2="17" y2="19" stroke="#C0C0C0" stroke-width="0.5" opacity="0.3"/>
</svg> 