<svg width="24" height="30" viewBox="0 0 24 30" xmlns="http://www.w3.org/2000/svg">
  <!-- Knight Special Animation Frame 2 - Charge Phase with Blue Flash -->
  
  <!-- Sword (held back during shield bash) -->
  <line x1="3" y1="16" x2="5" y2="27" stroke="#C0C0C0" stroke-width="1"/>
  <line x1="2" y1="16" x2="4" y2="16" stroke="#8B4513" stroke-width="1"/>
  <circle cx="5" cy="28" r="1" fill="#8B4513"/>
  
  <!-- Shield (charging with blue energy) -->
  <ellipse cx="16" cy="18" rx="2" ry="3" fill="#4169E1" transform="rotate(-30 16 18)"/>
  <ellipse cx="16" cy="18" rx="1.5" ry="2.5" fill="#FFD700" transform="rotate(-30 16 18)"/>
  
  <!-- Blue energy buildup around shield -->
  <circle cx="16" cy="18" r="3" fill="#4169E1" opacity="0.3"/>
  <circle cx="16" cy="18" r="2" fill="#6495ED" opacity="0.5"/>
  <circle cx="16" cy="18" r="1" fill="#87CEEB" opacity="0.7"/>
  
  <!-- Body Armor (coiled for power) -->
  <ellipse cx="11" cy="22" rx="4" ry="3" fill="#708090"/>
  <ellipse cx="11" cy="20" rx="3.5" ry="4" fill="#778899"/>
  <ellipse cx="11" cy="18" rx="3" ry="3" fill="#708090"/>
  
  <!-- Arms (positioned for charge) -->
  <!-- Right arm (sword arm, pulled back) -->
  <ellipse cx="7" cy="18" rx="1.5" ry="2.5" fill="#DEB887" transform="rotate(40 7 18)"/>
  <ellipse cx="6" cy="20" rx="1" ry="2" fill="#708090" transform="rotate(40 6 20)"/>
  
  <!-- Left arm (shield arm, building energy) -->
  <ellipse cx="14" cy="17" rx="1.5" ry="2.5" fill="#DEB887" transform="rotate(-30 14 17)"/>
  <ellipse cx="15" cy="19" rx="1" ry="2" fill="#708090" transform="rotate(-30 15 19)"/>
  
  <!-- Hands -->
  <circle cx="5" cy="22" r="1" fill="#DEB887"/>
  <circle cx="16" cy="21" r="1" fill="#DEB887"/>
  
  <!-- Head (focused on target) -->
  <circle cx="12" cy="12" r="3" fill="#DEB887"/>
  
  <!-- Helmet -->
  <path d="M9 10 Q12 8 15 10 Q15 12 12 12 Q9 12 9 10" fill="#708090"/>
  <line x1="9" y1="11" x2="15" y2="11" stroke="#556B2F" stroke-width="0.5"/>
  
  <!-- Face (intense expression) -->
  <circle cx="11" cy="11" r="0.5" fill="#000000"/>
  <circle cx="13" cy="11" r="0.5" fill="#000000"/>
  <path d="M11 13 Q12 12 13 13" stroke="#000000" stroke-width="0.5" fill="none"/>
  
  <!-- Hair (visible under helmet) -->
  <path d="M10 10 Q12 9 14 10" stroke="#8B4513" stroke-width="0.5" fill="none"/>
  
  <!-- Legs (stable stance) -->
  <ellipse cx="9" cy="26" rx="1.5" ry="2.5" fill="#708090" transform="rotate(-10 9 26)"/>
  <ellipse cx="13" cy="26" rx="1.5" ry="2.5" fill="#708090" transform="rotate(10 13 26)"/>
  
  <!-- Feet -->
  <ellipse cx="8" cy="29" rx="1" ry="1" fill="#2F4F4F"/>
  <ellipse cx="14" cy="29" rx="1" ry="1" fill="#2F4F4F"/>
  
  <!-- Armor Details -->
  <line x1="11" y1="16" x2="11" y2="20" stroke="#556B2F" stroke-width="0.5"/>
  <line x1="9" y1="18" x2="13" y2="18" stroke="#556B2F" stroke-width="0.5"/>
  
  <!-- Blue energy sparkles -->
  <circle cx="14" cy="16" r="0.5" fill="#4169E1" opacity="0.8"/>
  <circle cx="18" cy="20" r="0.5" fill="#6495ED" opacity="0.8"/>
  <circle cx="17" cy="15" r="0.5" fill="#87CEEB" opacity="0.8"/>
  <circle cx="15" cy="21" r="0.5" fill="#4169E1" opacity="0.8"/>
</svg> 