<svg width="120" height="160" viewBox="0 0 120 160" xmlns="http://www.w3.org/2000/svg">
  <!-- Large Stone Statue: Medieval Guardian -->
  
  <!-- Base Shadow -->
  <ellipse cx="60" cy="155" rx="50" ry="8" fill="#2A2A2A" opacity="0.6"/>
  
  <!-- Stone Base (Pedestal) -->
  <rect x="5" y="130" width="110" height="30" fill="#5A5A5A" stroke="#4A4A4A" stroke-width="1"/>
  <rect x="8" y="133" width="104" height="24" fill="#6A6A6A"/>
  <rect x="10" y="135" width="100" height="20" fill="#7A7A7A"/>
  
  <!-- Base Engravings -->
  <rect x="15" y="138" width="90" height="2" fill="#4A4A4A"/>
  <rect x="15" y="148" width="90" height="2" fill="#4A4A4A"/>
  <circle cx="30" cy="145" r="3" fill="#5A5A5A" stroke="#4A4A4A" stroke-width="0.5"/>
  <circle cx="60" cy="145" r="3" fill="#5A5A5A" stroke="#4A4A4A" stroke-width="0.5"/>
  <circle cx="90" cy="145" r="3" fill="#5A5A5A" stroke="#4A4A4A" stroke-width="0.5"/>
  
  <!-- Main Statue Body -->
  <rect x="20" y="30" width="80" height="100" fill="#8A8A8A" stroke="#7A7A7A" stroke-width="1"/>
  <rect x="22" y="32" width="76" height="96" fill="#9A9A9A"/>
  
  <!-- Body Stone Texture -->
  <rect x="25" y="35" width="70" height="2" fill="#8A8A8A" opacity="0.8"/>
  <rect x="25" y="45" width="70" height="2" fill="#8A8A8A" opacity="0.8"/>
  <rect x="25" y="55" width="70" height="2" fill="#8A8A8A" opacity="0.8"/>
  <rect x="25" y="65" width="70" height="2" fill="#8A8A8A" opacity="0.8"/>
  <rect x="25" y="75" width="70" height="2" fill="#8A8A8A" opacity="0.8"/>
  <rect x="25" y="85" width="70" height="2" fill="#8A8A8A" opacity="0.8"/>
  <rect x="25" y="95" width="70" height="2" fill="#8A8A8A" opacity="0.8"/>
  <rect x="25" y="105" width="70" height="2" fill="#8A8A8A" opacity="0.8"/>
  <rect x="25" y="115" width="70" height="2" fill="#8A8A8A" opacity="0.8"/>
  
  <!-- Vertical Stone Lines -->
  <rect x="35" y="35" width="2" height="90" fill="#8A8A8A" opacity="0.6"/>
  <rect x="50" y="35" width="2" height="90" fill="#8A8A8A" opacity="0.6"/>
  <rect x="65" y="35" width="2" height="90" fill="#8A8A8A" opacity="0.6"/>
  <rect x="80" y="35" width="2" height="90" fill="#8A8A8A" opacity="0.6"/>
  
  <!-- Statue Head -->
  <circle cx="60" cy="25" r="22" fill="#AAAAAA" stroke="#9A9A9A" stroke-width="1"/>
  <circle cx="60" cy="25" r="20" fill="#BBBBBB"/>
  
  <!-- Crown/Helmet -->
  <path d="M 42 15 Q 60 5 78 15 L 75 20 Q 60 12 45 20 Z" fill="#7A7A7A" stroke="#6A6A6A" stroke-width="1"/>
  <rect x="55" y="8" width="10" height="12" fill="#8A8A8A"/>
  <circle cx="60" cy="10" r="3" fill="#6A6A6A"/>
  
  <!-- Crown Details -->
  <rect x="50" y="12" width="4" height="8" fill="#7A7A7A"/>
  <rect x="66" y="12" width="4" height="8" fill="#7A7A7A"/>
  <circle cx="52" cy="14" r="1" fill="#5A5A5A"/>
  <circle cx="68" cy="14" r="1" fill="#5A5A5A"/>
  
  <!-- Face Features -->
  <!-- Eyes -->
  <circle cx="52" cy="22" r="3" fill="#3A3A3A"/>
  <circle cx="68" cy="22" r="3" fill="#3A3A3A"/>
  <circle cx="52" cy="21" r="1.5" fill="#FF4444" opacity="0.8"/>
  <circle cx="68" cy="21" r="1.5" fill="#FF4444" opacity="0.8"/>
  
  <!-- Nose -->
  <polygon points="60,26 58,30 62,30" fill="#AAAAAA" stroke="#9A9A9A" stroke-width="0.5"/>
  
  <!-- Mouth -->
  <path d="M 55 32 Q 60 35 65 32" stroke="#8A8A8A" stroke-width="1.5" fill="none"/>
  
  <!-- Beard -->
  <path d="M 50 35 Q 60 42 70 35 Q 65 40 60 42 Q 55 40 50 35" fill="#7A7A7A" stroke="#6A6A6A" stroke-width="0.5"/>
  <rect x="58" y="38" width="4" height="8" fill="#7A7A7A"/>
  <rect x="56" y="40" width="2" height="6" fill="#6A6A6A"/>
  <rect x="62" y="40" width="2" height="6" fill="#6A6A6A"/>
  
  <!-- Arms/Shoulders -->
  <rect x="15" y="50" width="15" height="30" fill="#9A9A9A" stroke="#8A8A8A" stroke-width="1"/>
  <rect x="90" y="50" width="15" height="30" fill="#9A9A9A" stroke="#8A8A8A" stroke-width="1"/>
  
  <!-- Arm Details -->
  <rect x="17" y="55" width="11" height="3" fill="#8A8A8A"/>
  <rect x="17" y="65" width="11" height="3" fill="#8A8A8A"/>
  <rect x="92" y="55" width="11" height="3" fill="#8A8A8A"/>
  <rect x="92" y="65" width="11" height="3" fill="#8A8A8A"/>
  
  <!-- Hands Holding Items -->
  <circle cx="22" cy="85" r="6" fill="#AAAAAA"/>
  <rect x="19" y="82" width="6" height="12" fill="#6A6A6A"/>
  <circle cx="98" cy="85" r="6" fill="#AAAAAA"/>
  <rect x="95" y="82" width="6" height="12" fill="#6A6A6A"/>
  
  <!-- Chest Armor/Details -->
  <rect x="35" y="60" width="50" height="30" fill="#8A8A8A" stroke="#7A7A7A" stroke-width="1"/>
  <rect x="37" y="62" width="46" height="26" fill="#9A9A9A"/>
  
  <!-- Armor Pattern -->
  <circle cx="60" cy="75" r="8" fill="#7A7A7A" stroke="#6A6A6A" stroke-width="1"/>
  <circle cx="60" cy="75" r="5" fill="#AAAAAA"/>
  <circle cx="60" cy="75" r="2" fill="#5A5A5A"/>
  
  <!-- Side Armor Pieces -->
  <rect x="40" y="65" width="8" height="20" fill="#8A8A8A"/>
  <rect x="72" y="65" width="8" height="20" fill="#8A8A8A"/>
  <rect x="42" y="70" width="4" height="3" fill="#7A7A7A"/>
  <rect x="74" y="70" width="4" height="3" fill="#7A7A7A"/>
  
  <!-- Lower Body/Robes -->
  <rect x="30" y="90" width="60" height="40" fill="#8A8A8A" stroke="#7A7A7A" stroke-width="1"/>
  <rect x="32" y="92" width="56" height="36" fill="#9A9A9A"/>
  
  <!-- Robe Folds -->
  <path d="M 35 95 Q 45 100 35 110 Q 45 115 35 125" stroke="#8A8A8A" stroke-width="2" fill="none"/>
  <path d="M 60 95 Q 50 105 60 115 Q 50 120 60 125" stroke="#8A8A8A" stroke-width="2" fill="none"/>
  <path d="M 85 95 Q 75 100 85 110 Q 75 115 85 125" stroke="#8A8A8A" stroke-width="2" fill="none"/>
  
  <!-- Stone Cracks/Weathering -->
  <path d="M 25 40 Q 30 50 35 45 Q 40 55 30 60" stroke="#7A7A7A" stroke-width="1" fill="none" opacity="0.7"/>
  <path d="M 85 35 Q 90 45 95 40 Q 90 50 85 55" stroke="#7A7A7A" stroke-width="1" fill="none" opacity="0.7"/>
  <path d="M 45 20 Q 50 25 55 22" stroke="#9A9A9A" stroke-width="0.8" fill="none" opacity="0.6"/>
  
  <!-- Shadow Details -->
  <rect x="102" y="32" width="3" height="96" fill="#6A6A6A" opacity="0.8"/>
  <ellipse cx="102" cy="25" rx="3" ry="20" fill="#6A6A6A" opacity="0.8"/>
  <rect x="25" y="128" width="76" height="3" fill="#6A6A6A" opacity="0.8"/>
  
  <!-- Ancient Runes/Symbols -->
  <circle cx="45" cy="110" r="2" fill="#5A5A5A"/>
  <rect x="44" y="107" width="2" height="6" fill="#5A5A5A"/>
  <circle cx="75" cy="110" r="2" fill="#5A5A5A"/>
  <rect x="74" y="107" width="2" height="6" fill="#5A5A5A"/>
  
  <!-- Power Glow Effect (Optional) -->
  <circle cx="60" cy="75" r="10" fill="#FFAA44" opacity="0.2"/>
  <circle cx="52" cy="21" r="2" fill="#FF4444" opacity="0.4"/>
  <circle cx="68" cy="21" r="2" fill="#FF4444" opacity="0.4"/>
</svg> 