<svg width="50" height="70" viewBox="0 0 50 70" xmlns="http://www.w3.org/2000/svg">
  <!-- Medieval Tombstone: Crypt Marker -->
  
  <!-- Ground Shadow -->
  <ellipse cx="25" cy="68" rx="22" ry="4" fill="#1A1A1A" opacity="0.7"/>
  
  <!-- Base Stone Platform -->
  <rect x="2" y="55" width="46" height="15" fill="#4A4A4A" stroke="#3A3A3A" stroke-width="0.8"/>
  <rect x="4" y="57" width="42" height="11" fill="#5A5A5A"/>
  <rect x="6" y="59" width="38" height="7" fill="#6A6A6A"/>
  
  <!-- Main Tombstone Body -->
  <rect x="8" y="15" width="34" height="40" fill="#7A7A7A" stroke="#6A6A6A" stroke-width="1"/>
  <rect x="9" y="16" width="32" height="38" fill="#8A8A8A"/>
  
  <!-- Rounded Top (Classic Tombstone Shape) -->
  <path d="M 8 15 Q 8 5 25 5 Q 42 5 42 15 L 42 20 L 8 20 Z" fill="#8A8A8A" stroke="#7A7A7A" stroke-width="1"/>
  <path d="M 9 16 Q 9 6 25 6 Q 41 6 41 16 L 41 19 L 9 19 Z" fill="#9A9A9A"/>
  
  <!-- Stone Texture Lines (Horizontal) -->
  <rect x="10" y="18" width="30" height="1" fill="#7A7A7A" opacity="0.8"/>
  <rect x="10" y="25" width="30" height="1" fill="#7A7A7A" opacity="0.8"/>
  <rect x="10" y="32" width="30" height="1" fill="#7A7A7A" opacity="0.8"/>
  <rect x="10" y="39" width="30" height="1" fill="#7A7A7A" opacity="0.8"/>
  <rect x="10" y="46" width="30" height="1" fill="#7A7A7A" opacity="0.8"/>
  
  <!-- Vertical Stone Seams -->
  <rect x="20" y="16" width="1" height="37" fill="#7A7A7A" opacity="0.6"/>
  <rect x="30" y="16" width="1" height="37" fill="#7A7A7A" opacity="0.6"/>
  
  <!-- Central Cross Symbol -->
  <rect x="23" y="22" width="4" height="16" fill="#5A5A5A" stroke="#4A4A4A" stroke-width="0.5"/>
  <rect x="19" y="28" width="12" height="4" fill="#5A5A5A" stroke="#4A4A4A" stroke-width="0.5"/>
  
  <!-- Cross Details -->
  <rect x="24" y="23" width="2" height="14" fill="#6A6A6A"/>
  <rect x="20" y="29" width="10" height="2" fill="#6A6A6A"/>
  <circle cx="25" cy="30" r="1.5" fill="#4A4A4A"/>
  
  <!-- Decorative Elements -->
  <!-- Corner Ornaments -->
  <circle cx="12" cy="19" r="1.5" fill="#6A6A6A" stroke="#5A5A5A" stroke-width="0.3"/>
  <circle cx="38" cy="19" r="1.5" fill="#6A6A6A" stroke="#5A5A5A" stroke-width="0.3"/>
  <circle cx="12" cy="50" r="1.5" fill="#6A6A6A" stroke="#5A5A5A" stroke-width="0.3"/>
  <circle cx="38" cy="50" r="1.5" fill="#6A6A6A" stroke="#5A5A5A" stroke-width="0.3"/>
  
  <!-- Inscription Area (Weathered Text Lines) -->
  <rect x="12" y="42" width="26" height="1" fill="#5A5A5A" opacity="0.6"/>
  <rect x="14" y="45" width="22" height="1" fill="#5A5A5A" opacity="0.6"/>
  <rect x="16" y="48" width="18" height="1" fill="#5A5A5A" opacity="0.6"/>
  
  <!-- Weathering and Cracks -->
  <path d="M 10 20 Q 15 25 12 30 Q 18 35 14 40" stroke="#6A6A6A" stroke-width="0.8" fill="none" opacity="0.7"/>
  <path d="M 38 22 Q 35 28 39 33 Q 33 38 37 43" stroke="#6A6A6A" stroke-width="0.8" fill="none" opacity="0.7"/>
  <path d="M 20 10 Q 25 12 30 10" stroke="#8A8A8A" stroke-width="0.6" fill="none" opacity="0.8"/>
  
  <!-- Moss/Age Stains -->
  <ellipse cx="14" cy="26" rx="3" ry="2" fill="#4A5A4A" opacity="0.5"/>
  <ellipse cx="36" cy="35" rx="2" ry="3" fill="#4A5A4A" opacity="0.5"/>
  <ellipse cx="25" cy="52" rx="4" ry="2" fill="#4A5A4A" opacity="0.4"/>
  
  <!-- Stone Chips and Damage -->
  <polygon points="10,35 12,35 11,37" fill="#6A6A6A"/>
  <polygon points="38,28 40,28 39,30" fill="#6A6A6A"/>
  <circle cx="33" cy="45" r="0.8" fill="#6A6A6A"/>
  
  <!-- Shadow Details -->
  <rect x="42" y="16" width="2" height="37" fill="#5A5A5A" opacity="0.8"/>
  <path d="M 42 15 Q 44 5 25 7 Q 42 5 44 15" fill="#5A5A5A" opacity="0.8"/>
  <rect x="8" y="53" width="34" height="2" fill="#5A5A5A" opacity="0.8"/>
  
  <!-- Base Platform Details -->
  <rect x="3" y="63" width="44" height="1" fill="#3A3A3A"/>
  <rect x="5" y="65" width="40" height="1" fill="#3A3A3A"/>
  
  <!-- Ancient Symbols (Gothic) -->
  <circle cx="15" cy="25" r="1" fill="#4A4A4A"/>
  <rect x="14.5" y="22" width="1" height="6" fill="#4A4A4A"/>
  <circle cx="35" cy="40" r="1" fill="#4A4A4A"/>
  <rect x="34.5" y="37" width="1" height="6" fill="#4A4A4A"/>
  
  <!-- Subtle Glow Effect -->
  <circle cx="25" cy="30" r="8" fill="#CCCCAA" opacity="0.1"/>
  
  <!-- Top Crown Detail -->
  <rect x="22" y="8" width="6" height="3" fill="#7A7A7A"/>
  <circle cx="25" cy="9" r="1" fill="#6A6A6A"/>
</svg> 