<svg width="24" height="30" viewBox="0 0 24 30" xmlns="http://www.w3.org/2000/svg">
  <!-- Archer Skeleton Idle Animation: Alert Stance -->
  
  <!-- Bow (held ready) -->
  <path d="M 2 10 Q 4 14 2 18" fill="none" stroke="#8B4513" stroke-width="1.2"/>
  <line x1="2" y1="10" x2="2" y2="18" stroke="#666" stroke-width="0.4"/>
  
  <!-- Arrow (nocked) -->
  <line x1="5" y1="14" x2="10" y2="14" stroke="#8B4513" stroke-width="0.8"/>
  <path d="M 10 14 L 9 13.5 L 9 14.5 Z" fill="#8B4513"/>
  <path d="M 5 14 L 6 13.7 L 6 14.3 Z" fill="#654321"/>
  
  <!-- Skull (detailed, alert) -->
  <circle cx="12" cy="8" r="3.5" fill="#F5F5DC" stroke="#E0E0E0" stroke-width="0.4"/>
  <circle cx="10.5" cy="7" r="0.8" fill="#000"/>
  <circle cx="13.5" cy="7" r="0.8" fill="#000"/>
  <circle cx="10.5" cy="7" r="0.3" fill="#FF0000" opacity="0.6"/>
  <circle cx="13.5" cy="7" r="0.3" fill="#FF0000" opacity="0.6"/>
  
  <!-- Nasal cavity -->
  <path d="M 12 8.5 L 11.2 10 L 12.8 10 Z" fill="#000"/>
  
  <!-- Jaw -->
  <path d="M 9.5 9.5 Q 12 11 14.5 9.5" stroke="#E0E0E0" stroke-width="0.5" fill="none"/>
  <rect x="10.5" y="9.8" width="0.3" height="0.8" fill="#F5F5DC"/>
  <rect x="11.2" y="9.8" width="0.3" height="0.8" fill="#F5F5DC"/>
  <rect x="12.5" y="9.8" width="0.3" height="0.8" fill="#F5F5DC"/>
  <rect x="13.2" y="9.8" width="0.3" height="0.8" fill="#F5F5DC"/>
  
  <!-- Spine -->
  <line x1="12" y1="11.5" x2="12" y2="20" stroke="#E0E0E0" stroke-width="0.8"/>
  <circle cx="12" cy="13" r="0.4" fill="#E0E0E0"/>
  <circle cx="12" cy="15" r="0.4" fill="#E0E0E0"/>
  <circle cx="12" cy="17" r="0.4" fill="#E0E0E0"/>
  <circle cx="12" cy="19" r="0.4" fill="#E0E0E0"/>
  
  <!-- Ribcage (detailed) -->
  <ellipse cx="12" cy="15" rx="4" ry="2.5" fill="none" stroke="#E0E0E0" stroke-width="0.6"/>
  <path d="M 8.5 13 Q 12 11.5 15.5 13" stroke="#E0E0E0" stroke-width="0.4" fill="none"/>
  <path d="M 8.8 14.5 Q 12 13.2 15.2 14.5" stroke="#E0E0E0" stroke-width="0.4" fill="none"/>
  <path d="M 8.8 16.5 Q 12 15.2 15.2 16.5" stroke="#E0E0E0" stroke-width="0.4" fill="none"/>
  <path d="M 9.2 17.8 Q 12 16.8 14.8 17.8" stroke="#E0E0E0" stroke-width="0.4" fill="none"/>
  
  <!-- Arms (bow ready position) -->
  <line x1="8" y1="13" x2="4" y2="14" stroke="#E0E0E0" stroke-width="0.6"/>
  <line x1="4" y1="14" x2="3" y2="16" stroke="#E0E0E0" stroke-width="0.6"/>
  <circle cx="4" cy="14" r="0.5" fill="#E0E0E0"/>
  <circle cx="3" cy="16" r="0.4" fill="#E0E0E0"/>
  
  <line x1="16" y1="13" x2="18" y2="14" stroke="#E0E0E0" stroke-width="0.6"/>
  <line x1="18" y1="14" x2="19" y2="16" stroke="#E0E0E0" stroke-width="0.6"/>
  <circle cx="18" cy="14" r="0.5" fill="#E0E0E0"/>
  <circle cx="19" cy="16" r="0.4" fill="#E0E0E0"/>
  
  <!-- Pelvis -->
  <ellipse cx="12" cy="20" rx="2.5" ry="1.2" fill="none" stroke="#E0E0E0" stroke-width="0.6"/>
  
  <!-- Legs (steady stance) -->
  <line x1="10" y1="20" x2="9" y2="25" stroke="#E0E0E0" stroke-width="0.6"/>
  <line x1="9" y1="25" x2="8" y2="28" stroke="#E0E0E0" stroke-width="0.6"/>
  <circle cx="9" cy="25" r="0.5" fill="#E0E0E0"/>
  
  <line x1="14" y1="20" x2="15" y2="25" stroke="#E0E0E0" stroke-width="0.6"/>
  <line x1="15" y1="25" x2="16" y2="28" stroke="#E0E0E0" stroke-width="0.6"/>
  <circle cx="15" cy="25" r="0.5" fill="#E0E0E0"/>
  
  <!-- Feet -->
  <ellipse cx="7" cy="28.5" rx="1.5" ry="0.8" fill="#E0E0E0"/>
  <ellipse cx="17" cy="28.5" rx="1.5" ry="0.8" fill="#E0E0E0"/>
  
  <!-- Quiver -->
  <rect x="17" y="16" width="1" height="4" fill="#654321" stroke="#8B4513" stroke-width="0.3"/>
  <line x1="17.5" y1="16" x2="17.5" y2="15" stroke="#8B4513" stroke-width="0.5"/>
  <line x1="17.2" y1="16" x2="17.2" y2="15" stroke="#8B4513" stroke-width="0.5"/>
  <line x1="17.8" y1="16" x2="17.8" y2="15" stroke="#8B4513" stroke-width="0.5"/>
  
  <!-- Alert details -->
  <circle cx="11" cy="5" r="0.2" fill="#E0E0E0" opacity="0.7"/>
  <circle cx="13" cy="5" r="0.2" fill="#E0E0E0" opacity="0.7"/>
  <circle cx="15" cy="6" r="0.2" fill="#E0E0E0" opacity="0.7"/>
</svg> 