<svg width="24" height="30" viewBox="0 0 24 30" xmlns="http://www.w3.org/2000/svg">
  <!-- Archer Skeleton Death Animation: Final Collapse -->
  
  <!-- Bow (fallen and broken) -->
  <path d="M 2 20 Q 5 22 2 24" fill="none" stroke="#8B4513" stroke-width="1.2" transform="rotate(45 3.5 22)"/>
  <line x1="2" y1="20" x2="2" y2="24" stroke="#666" stroke-width="0.4" transform="rotate(45 3.5 22)" opacity="0.5"/>
  
  <!-- Arrows (scattered) -->
  <line x1="5" y1="24" x2="9" y2="25" stroke="#8B4513" stroke-width="0.8" transform="rotate(25 7 24.5)"/>
  <path d="M 9 25 L 8 24.5 L 8 25.5 Z" fill="#8B4513" transform="rotate(25 7 24.5)"/>
  
  <line x1="19" y1="26" x2="22" y2="24" stroke="#8B4513" stroke-width="0.8" transform="rotate(-30 20.5 25)"/>
  <path d="M 22 24 L 21 24.5 L 21 23.5 Z" fill="#8B4513" transform="rotate(-30 20.5 25)"/>
  
  <!-- Skull (detailed, on ground) -->
  <circle cx="8" cy="22" r="3.5" fill="#F5F5DC" stroke="#E0E0E0" stroke-width="0.4"/>
  <circle cx="6.5" cy="21" r="0.8" fill="#000"/>
  <circle cx="9.5" cy="21" r="0.8" fill="#000"/>
  <circle cx="6.5" cy="21" r="0.3" fill="#FF0000" opacity="0.3"/>
  <circle cx="9.5" cy="21" r="0.3" fill="#FF0000" opacity="0.3"/>
  
  <!-- Nasal cavity -->
  <path d="M 8 22.5 L 7.2 24 L 8.8 24 Z" fill="#000"/>
  
  <!-- Jaw (slack in death) -->
  <path d="M 5.5 23.5 Q 8 25.5 10.5 23.5" stroke="#E0E0E0" stroke-width="0.5" fill="none"/>
  <rect x="6.5" y="24" width="0.3" height="1" fill="#F5F5DC"/>
  <rect x="7.2" y="24" width="0.3" height="1" fill="#F5F5DC"/>
  <rect x="8.5" y="24" width="0.3" height="1" fill="#F5F5DC"/>
  <rect x="9.2" y="24" width="0.3" height="1" fill="#F5F5DC"/>
  
  <!-- Spine (collapsed) -->
  <path d="M 8 25.5 Q 12 24 16 26" stroke="#E0E0E0" stroke-width="0.8" fill="none"/>
  <circle cx="10" cy="25" r="0.4" fill="#E0E0E0"/>
  <circle cx="12" cy="24.5" r="0.4" fill="#E0E0E0"/>
  <circle cx="14" cy="25" r="0.4" fill="#E0E0E0"/>
  <circle cx="16" cy="26" r="0.4" fill="#E0E0E0"/>
  
  <!-- Ribcage (detailed, collapsed) -->
  <ellipse cx="13" cy="24" rx="3" ry="1.5" fill="none" stroke="#E0E0E0" stroke-width="0.6" transform="rotate(30 13 24)"/>
  <path d="M 10.5 23 Q 13 22 15.5 23.5" stroke="#E0E0E0" stroke-width="0.4" fill="none"/>
  <path d="M 10.8 24 Q 13 23 15.2 24.5" stroke="#E0E0E0" stroke-width="0.4" fill="none"/>
  <path d="M 11.2 25 Q 13 24.2 14.8 25.5" stroke="#E0E0E0" stroke-width="0.4" fill="none"/>
  
  <!-- Arms (sprawled) -->
  <line x1="11" y1="23" x2="3" y2="19" stroke="#E0E0E0" stroke-width="0.6"/>
  <line x1="3" y1="19" x2="0.5" y2="17" stroke="#E0E0E0" stroke-width="0.6"/>
  <circle cx="3" cy="19" r="0.5" fill="#E0E0E0"/>
  <circle cx="0.5" cy="17" r="0.4" fill="#E0E0E0"/>
  
  <line x1="15" y1="23.5" x2="20" y2="20" stroke="#E0E0E0" stroke-width="0.6"/>
  <line x1="20" y1="20" x2="23" y2="17" stroke="#E0E0E0" stroke-width="0.6"/>
  <circle cx="20" cy="20" r="0.5" fill="#E0E0E0"/>
  <circle cx="23" cy="17" r="0.4" fill="#E0E0E0"/>
  
  <!-- Pelvis (fallen) -->
  <ellipse cx="16" cy="26" rx="2.5" ry="1.2" fill="none" stroke="#E0E0E0" stroke-width="0.6" transform="rotate(20 16 26)"/>
  
  <!-- Legs (sprawled) -->
  <line x1="14" y1="26.5" x2="11" y2="29" stroke="#E0E0E0" stroke-width="0.6"/>
  <line x1="11" y1="29" x2="8" y2="30" stroke="#E0E0E0" stroke-width="0.6"/>
  <circle cx="11" cy="29" r="0.5" fill="#E0E0E0"/>
  
  <line x1="18" y1="26.5" x2="21" y2="28" stroke="#E0E0E0" stroke-width="0.6"/>
  <line x1="21" y1="28" x2="23" y2="29" stroke="#E0E0E0" stroke-width="0.6"/>
  <circle cx="21" cy="28" r="0.5" fill="#E0E0E0"/>
  
  <!-- Feet (lifeless) -->
  <ellipse cx="7" cy="30" rx="1.5" ry="0.6" fill="#E0E0E0" transform="rotate(20 7 30)"/>
  <ellipse cx="23" cy="29" rx="1.5" ry="0.6" fill="#E0E0E0" transform="rotate(-15 23 29)"/>
  
  <!-- Quiver (fallen and empty) -->
  <rect x="15" y="28" width="1" height="4" fill="#654321" stroke="#8B4513" stroke-width="0.3" transform="rotate(60 15.5 30)"/>
  <!-- No arrows left in quiver -->
  
  <!-- Death effects (fading energy) -->
  <circle cx="8" cy="22" r="4" fill="none" stroke="#808080" stroke-width="0.3" opacity="0.4"/>
  <circle cx="13" cy="24" r="3" fill="none" stroke="#808080" stroke-width="0.3" opacity="0.3"/>
  
  <!-- Dust particles -->
  <circle cx="5" cy="25" r="0.2" fill="#D3D3D3" opacity="0.6"/>
  <circle cx="17" cy="22" r="0.2" fill="#D3D3D3" opacity="0.6"/>
  <circle cx="20" cy="25" r="0.2" fill="#D3D3D3" opacity="0.6"/>
  <circle cx="10" cy="28" r="0.2" fill="#D3D3D3" opacity="0.6"/>
  <circle cx="1" cy="20" r="0.2" fill="#D3D3D3" opacity="0.6"/>
</svg> 