<svg width="24" height="30" viewBox="0 0 24 30" xmlns="http://www.w3.org/2000/svg">
  <!-- Archer Skeleton Attack Animation: Arrow Release -->
  
  <!-- Bow (drawn back) -->
  <path d="M 2 9 Q 5 14 2 19" fill="none" stroke="#8B4513" stroke-width="1.2"/>
  <line x1="2" y1="9" x2="8" y2="14" stroke="#666" stroke-width="0.4"/>
  <line x1="2" y1="19" x2="8" y2="14" stroke="#666" stroke-width="0.4"/>
  
  <!-- Arrow (being released) -->
  <line x1="8" y1="14" x2="14" y2="14" stroke="#8B4513" stroke-width="0.8"/>
  <path d="M 14 14 L 13 13.5 L 13 14.5 Z" fill="#8B4513"/>
  <path d="M 8 14 L 9 13.7 L 9 14.3 Z" fill="#654321"/>
  
  <!-- Skull (detailed, focused) -->
  <circle cx="12" cy="8" r="3.5" fill="#F5F5DC" stroke="#E0E0E0" stroke-width="0.4"/>
  <circle cx="10.5" cy="7" r="0.8" fill="#000"/>
  <circle cx="13.5" cy="7" r="0.8" fill="#000"/>
  <circle cx="10.5" cy="7" r="0.3" fill="#FF0000" opacity="0.8"/>
  <circle cx="13.5" cy="7" r="0.3" fill="#FF0000" opacity="0.8"/>
  
  <!-- Nasal cavity -->
  <path d="M 12 8.5 L 11.2 10 L 12.8 10 Z" fill="#000"/>
  
  <!-- Jaw (focused expression) -->
  <path d="M 9.5 9.5 Q 12 10.5 14.5 9.5" stroke="#E0E0E0" stroke-width="0.5" fill="none"/>
  <rect x="10.5" y="9.8" width="0.3" height="0.8" fill="#F5F5DC"/>
  <rect x="11.2" y="9.8" width="0.3" height="0.8" fill="#F5F5DC"/>
  <rect x="12.5" y="9.8" width="0.3" height="0.8" fill="#F5F5DC"/>
  <rect x="13.2" y="9.8" width="0.3" height="0.8" fill="#F5F5DC"/>
  
  <!-- Spine (leaning into shot) -->
  <path d="M 12 11.5 Q 11 15 12 20" stroke="#E0E0E0" stroke-width="0.8" fill="none"/>
  <circle cx="11.5" cy="13" r="0.4" fill="#E0E0E0"/>
  <circle cx="11" cy="15" r="0.4" fill="#E0E0E0"/>
  <circle cx="11.5" cy="17" r="0.4" fill="#E0E0E0"/>
  <circle cx="12" cy="19" r="0.4" fill="#E0E0E0"/>
  
  <!-- Ribcage (detailed, expanded for shot) -->
  <ellipse cx="11.5" cy="15" rx="4.2" ry="2.5" fill="none" stroke="#E0E0E0" stroke-width="0.6"/>
  <path d="M 8 13 Q 11.5 11 15.5 13" stroke="#E0E0E0" stroke-width="0.4" fill="none"/>
  <path d="M 8.3 14.5 Q 11.5 12.5 15.2 14.5" stroke="#E0E0E0" stroke-width="0.4" fill="none"/>
  <path d="M 8.3 16.5 Q 11.5 14.5 15.2 16.5" stroke="#E0E0E0" stroke-width="0.4" fill="none"/>
  <path d="M 8.7 17.8 Q 11.5 16 14.8 17.8" stroke="#E0E0E0" stroke-width="0.4" fill="none"/>
  
  <!-- Arms (full draw position) -->
  <line x1="7.5" y1="13" x2="3" y2="12" stroke="#E0E0E0" stroke-width="0.6"/>
  <line x1="3" y1="12" x2="2" y2="14" stroke="#E0E0E0" stroke-width="0.6"/>
  <circle cx="3" cy="12" r="0.5" fill="#E0E0E0"/>
  <circle cx="2" cy="14" r="0.4" fill="#E0E0E0"/>
  
  <line x1="15.5" y1="13" x2="20" y2="12" stroke="#E0E0E0" stroke-width="0.6"/>
  <line x1="20" y1="12" x2="21" y2="15" stroke="#E0E0E0" stroke-width="0.6"/>
  <circle cx="20" cy="12" r="0.5" fill="#E0E0E0"/>
  <circle cx="21" cy="15" r="0.4" fill="#E0E0E0"/>
  
  <!-- Pelvis (braced) -->
  <ellipse cx="12" cy="20" rx="2.5" ry="1.2" fill="none" stroke="#E0E0E0" stroke-width="0.6"/>
  
  <!-- Legs (stable shooting stance) -->
  <line x1="10" y1="20" x2="8" y2="24" stroke="#E0E0E0" stroke-width="0.6"/>
  <line x1="8" y1="24" x2="7" y2="27" stroke="#E0E0E0" stroke-width="0.6"/>
  <circle cx="8" cy="24" r="0.5" fill="#E0E0E0"/>
  
  <line x1="14" y1="20" x2="16" y2="25" stroke="#E0E0E0" stroke-width="0.6"/>
  <line x1="16" y1="25" x2="18" y2="28" stroke="#E0E0E0" stroke-width="0.6"/>
  <circle cx="16" cy="25" r="0.5" fill="#E0E0E0"/>
  
  <!-- Feet (planted for stability) -->
  <ellipse cx="6" cy="27.5" rx="1.5" ry="0.8" fill="#E0E0E0"/>
  <ellipse cx="19" cy="28.5" rx="1.5" ry="0.8" fill="#E0E0E0"/>
  
  <!-- Quiver -->
  <rect x="18" y="16" width="1" height="4" fill="#654321" stroke="#8B4513" stroke-width="0.3"/>
  <line x1="18.5" y1="16" x2="18.5" y2="15" stroke="#8B4513" stroke-width="0.5"/>
  <line x1="18.2" y1="16" x2="18.2" y2="15" stroke="#8B4513" stroke-width="0.5"/>
  
  <!-- Attack energy -->
  <circle cx="14" cy="14" r="1.5" fill="#FFD700" opacity="0.4"/>
  <line x1="14" y1="14" x2="22" y2="14" stroke="#FFD700" stroke-width="0.5" opacity="0.6"/>
  
  <!-- Focused details -->
  <circle cx="11" cy="5" r="0.3" fill="#FFD700" opacity="0.8"/>
  <circle cx="13" cy="5" r="0.3" fill="#FFD700" opacity="0.8"/>
</svg> 