<svg xmlns="http://www.w3.org/2000/svg" viewBox="0 0 24 32">
  <!-- Skeleton body (ribcage) -->
  <rect x="8" y="12" width="8" height="12" fill="none" stroke="#e8e8e8" stroke-width="1"/>
  <line x1="8" y1="14" x2="16" y2="14" stroke="#e8e8e8" stroke-width="0.5"/>
  <line x1="8" y1="16" x2="16" y2="16" stroke="#e8e8e8" stroke-width="0.5"/>
  <line x1="8" y1="18" x2="16" y2="18" stroke="#e8e8e8" stroke-width="0.5"/>
  <line x1="8" y1="20" x2="16" y2="20" stroke="#e8e8e8" stroke-width="0.5"/>
  
  <!-- Skull -->
  <circle cx="12" cy="8" r="4" fill="#f0f0f0" stroke="#d0d0d0" stroke-width="0.5"/>
  <!-- Eye sockets -->
  <circle cx="10" cy="7" r="1" fill="#000"/>
  <circle cx="14" cy="7" r="1" fill="#000"/>
  
  <!-- Spine -->
  <line x1="12" y1="12" x2="12" y2="24" stroke="#e8e8e8" stroke-width="1"/>
  
  <!-- Arms -->
  <line x1="8" y1="14" x2="4" y2="18" stroke="#e8e8e8" stroke-width="1"/>
  <line x1="16" y1="14" x2="20" y2="18" stroke="#e8e8e8" stroke-width="1"/>
  
  <!-- Legs -->
  <line x1="10" y1="24" x2="8" y2="30" stroke="#e8e8e8" stroke-width="1"/>
  <line x1="14" y1="24" x2="16" y2="30" stroke="#e8e8e8" stroke-width="1"/>
  
  <!-- Feet -->
  <line x1="8" y1="30" x2="6" y2="30" stroke="#e8e8e8" stroke-width="1"/>
  <line x1="16" y1="30" x2="18" y2="30" stroke="#e8e8e8" stroke-width="1"/>
  
  <!-- Sword -->
  <rect x="19" y="8" width="2" height="12" fill="#c0c0c0" stroke="#808080" stroke-width="0.5"/>
  <!-- Sword guard -->
  <rect x="18" y="15" width="4" height="1" fill="#808080"/>
  <!-- Sword handle -->
  <rect x="19.5" y="16" width="1" height="3" fill="#654321"/>
  <!-- Sword pommel -->
  <circle cx="20" cy="20" r="1" fill="#808080"/>
</svg> 