<svg width="24" height="30" viewBox="0 0 24 30" xmlns="http://www.w3.org/2000/svg">
  <!-- Berserker Ultimate 01 - Rage Slam Buildup -->
  
  <!-- Enhanced Two-handed Battle Axe (Beginning to Raise) -->
  <line x1="12" y1="8" x2="12" y2="20" stroke="#654321" stroke-width="1.5"/>
  <!-- Axe Handle Grip -->
  <ellipse cx="12" cy="16" rx="0.6" ry="1.2" fill="#4A4A4A"/>
  <ellipse cx="12" cy="12" rx="0.6" ry="1.2" fill="#4A4A4A"/>
  <!-- Detailed Axe Head (Much Bigger) -->
  <ellipse cx="12" cy="6" rx="4" ry="2.5" fill="#696969"/>
  <ellipse cx="12" cy="6.5" rx="3.5" ry="2" fill="#C0C0C0"/>
  <!-- Axe Blade Edge (Larger and More Intimidating) -->
  <ellipse cx="9.5" cy="6" rx="1.8" ry="1.2" fill="#E0E0E0"/>
  <ellipse cx="14.5" cy="6" rx="1.8" ry="1.2" fill="#E0E0E0"/>
  <!-- Blade Sharp Points -->
  <ellipse cx="8.5" cy="5.5" rx="0.8" ry="0.5" fill="#F0F0F0"/>
  <ellipse cx="15.5" cy="5.5" rx="0.8" ry="0.5" fill="#F0F0F0"/>
  
  <!-- Torso (Tensing for Rage) -->
  <ellipse cx="12" cy="16" rx="4.5" ry="2.8" fill="#8B4513"/>
  <ellipse cx="12" cy="14.5" rx="3.5" ry="2.3" fill="#CD853F"/>
  
  <!-- Muscular Arms (Preparing for Slam) -->
  <ellipse cx="8" cy="12" rx="1.8" ry="3.5" fill="#DEB887"/>
  <ellipse cx="16" cy="12" rx="1.8" ry="3.5" fill="#DEB887"/>
  
  <!-- Hands Gripping Axe Tightly -->
  <circle cx="10" cy="10" r="1.2" fill="#DEB887"/>
  <circle cx="14" cy="14" r="1.2" fill="#DEB887"/>
  
  <!-- Head (Ultimate Focus) -->
  <circle cx="12" cy="10.5" r="2.5" fill="#DEB887"/>
  
  <!-- Eyes (Starting to Rage) -->
  <circle cx="11" cy="10" r="0.3" fill="#DC143C"/>
  <circle cx="13" cy="10" r="0.3" fill="#DC143C"/>
  
  <!-- Mouth (Rage Building) -->
  <path d="M 10.5 11.5 Q 12 12 13.5 11.5" stroke="#000" stroke-width="0.5" fill="none"/>
  
  <!-- Wild Hair (Energy Beginning) -->
  <ellipse cx="12" cy="8" rx="3.2" ry="1.8" fill="#654321"/>
  <ellipse cx="11" cy="7" rx="1.2" ry="1.2" fill="#654321"/>
  <ellipse cx="13" cy="7" rx="1.2" ry="1.2" fill="#654321"/>
  
  <!-- Legs (Planted for Ultimate) -->
  <ellipse cx="10" cy="24" rx="1.8" ry="4.5" fill="#8B4513"/>
  <ellipse cx="14" cy="24" rx="1.8" ry="4.5" fill="#8B4513"/>
  
  <!-- Feet (Solid Stance) -->
  <ellipse cx="9" cy="28" rx="1.8" ry="1.2" fill="#654321"/>
  <ellipse cx="15" cy="28" rx="1.8" ry="1.2" fill="#654321"/>
  
  <!-- Building Rage Aura -->
  <ellipse cx="12" cy="16" rx="6" ry="8" fill="#DC143C" opacity="0.2"/>
  <ellipse cx="12" cy="16" rx="4" ry="6" fill="#8B0000" opacity="0.15"/>
  
  <!-- Battle Scars -->
  <line x1="9" y1="11" x2="10" y2="12" stroke="#8B0000" stroke-width="0.3"/>
  <line x1="14" y1="10" x2="15" y2="11" stroke="#8B0000" stroke-width="0.3"/>
  
  <!-- Rage Energy Sparks -->
  <circle cx="8" cy="14" r="0.5" fill="#DC143C" opacity="0.4"/>
  <circle cx="16" cy="14" r="0.5" fill="#DC143C" opacity="0.4"/>
</svg> 