<svg width="24" height="30" viewBox="0 0 24 30" xmlns="http://www.w3.org/2000/svg">
  <!-- Berserker Ultimate 03 - Rage Slam Peak Moment -->
  
  <!-- Enhanced Two-handed Battle Axe (Fully Raised) -->
  <line x1="12" y1="2" x2="12" y2="14" stroke="#654321" stroke-width="1.5"/>
  <!-- Axe Handle Grip -->
  <ellipse cx="12" cy="10" rx="0.6" ry="1.2" fill="#4A4A4A"/>
  <ellipse cx="12" cy="6" rx="0.6" ry="1.2" fill="#4A4A4A"/>
  <!-- Detailed Axe Head (Much Bigger) -->
  <ellipse cx="12" cy="0.5" rx="4" ry="2.5" fill="#696969"/>
  <ellipse cx="12" cy="1" rx="3.5" ry="2" fill="#C0C0C0"/>
  <!-- Axe Blade Edge (Larger and More Intimidating) -->
  <ellipse cx="9.5" cy="0.5" rx="1.8" ry="1.2" fill="#E0E0E0"/>
  <ellipse cx="14.5" cy="0.5" rx="1.8" ry="1.2" fill="#E0E0E0"/>
  <!-- Blade Sharp Points -->
  <ellipse cx="8.5" cy="0" rx="0.8" ry="0.5" fill="#F0F0F0"/>
  <ellipse cx="15.5" cy="0" rx="0.8" ry="0.5" fill="#F0F0F0"/>
  
  <!-- Torso (Maximum Strain) -->
  <ellipse cx="12" cy="14" rx="5" ry="3.2" fill="#8B4513"/>
  <ellipse cx="12" cy="12.5" rx="4" ry="2.7" fill="#CD853F"/>
  
  <!-- Muscular Arms (Maximum Extension) -->
  <ellipse cx="8" cy="6" rx="2.2" ry="4.5" fill="#DEB887"/>
  <ellipse cx="16" cy="6" rx="2.2" ry="4.5" fill="#DEB887"/>
  
  <!-- Hands Gripping Axe (Maximum Grip) -->
  <circle cx="10" cy="4" r="1.3" fill="#DEB887"/>
  <circle cx="14" cy="8" r="1.3" fill="#DEB887"/>
  
  <!-- Head (Peak Rage Focus) -->
  <circle cx="12" cy="7" r="2.5" fill="#DEB887"/>
  
  <!-- Eyes (Blazing with Rage) -->
  <circle cx="11" cy="6.5" r="0.5" fill="#DC143C"/>
  <circle cx="13" cy="6.5" r="0.5" fill="#DC143C"/>
  
  <!-- Mouth (Roaring) -->
  <path d="M 10.5 8 Q 12 8.5 13.5 8" stroke="#000" stroke-width="0.5" fill="none"/>
  
  <!-- Wild Hair (Energy Surging) -->
  <ellipse cx="12" cy="4.5" rx="3.8" ry="2.2" fill="#654321"/>
  <ellipse cx="11" cy="3.5" rx="1.4" ry="1.4" fill="#654321"/>
  <ellipse cx="13" cy="3.5" rx="1.4" ry="1.4" fill="#654321"/>
  
  <!-- Legs (Planted for Maximum Power) -->
  <ellipse cx="10" cy="22" rx="2" ry="5" fill="#8B4513"/>
  <ellipse cx="14" cy="22" rx="2" ry="5" fill="#8B4513"/>
  
  <!-- Feet (Solid Stance) -->
  <ellipse cx="9" cy="26" rx="2" ry="1.5" fill="#654321"/>
  <ellipse cx="15" cy="26" rx="2" ry="1.5" fill="#654321"/>
  
  <!-- Maximum Rage Aura -->
  <ellipse cx="12" cy="14" rx="8" ry="10" fill="#DC143C" opacity="0.3"/>
  <ellipse cx="12" cy="14" rx="6" ry="8" fill="#8B0000" opacity="0.25"/>
  
  <!-- Battle Scars -->
  <line x1="9" y1="7" x2="10" y2="8" stroke="#8B0000" stroke-width="0.3"/>
  <line x1="14" y1="6" x2="15" y2="7" stroke="#8B0000" stroke-width="0.3"/>
  
  <!-- Peak Rage Energy -->
  <circle cx="12" cy="0.5" r="1.2" fill="#8B0000" opacity="0.6"/>
  <circle cx="8" cy="8" r="0.8" fill="#DC143C" opacity="0.6"/>
  <circle cx="16" cy="8" r="0.8" fill="#DC143C" opacity="0.6"/>
  <circle cx="6" cy="12" r="0.6" fill="#DC143C" opacity="0.4"/>
  <circle cx="18" cy="12" r="0.6" fill="#DC143C" opacity="0.4"/>
  
  <!-- Energy Lightning -->
  <line x1="10" y1="2" x2="6" y2="0" stroke="#DC143C" stroke-width="0.8" opacity="0.5"/>
  <line x1="14" y1="2" x2="18" y2="0" stroke="#DC143C" stroke-width="0.8" opacity="0.5"/>
  <line x1="8" y1="8" x2="4" y2="6" stroke="#DC143C" stroke-width="0.6" opacity="0.4"/>
  <line x1="16" y1="8" x2="20" y2="6" stroke="#DC143C" stroke-width="0.6" opacity="0.4"/>
  
  <!-- Ground Energy Buildup -->
  <ellipse cx="12" cy="27" rx="8" ry="2" fill="#8B0000" opacity="0.2"/>
</svg> 