<svg width="24" height="30" viewBox="0 0 24 30" xmlns="http://www.w3.org/2000/svg">
  <!-- Berserker Attack 03 - Enhanced Recovery with Impact Aftermath -->
  
  <!-- Two-handed Battle Axe (recovering to ready position) -->
  <line x1="19" y1="11" x2="19" y2="23" stroke="#654321" stroke-width="1.5"/>
  <!-- Axe Handle Grip -->
  <ellipse cx="19" cy="19" rx="0.6" ry="1.2" fill="#4A4A4A"/>
  <ellipse cx="19" cy="15" rx="0.6" ry="1.2" fill="#4A4A4A"/>
  <!-- Detailed Axe Head (Much Bigger) -->
  <ellipse cx="19" cy="9" rx="4" ry="2.5" fill="#696969"/>
  <ellipse cx="19" cy="9.5" rx="3.5" ry="2" fill="#C0C0C0"/>
  <!-- Axe Blade Edge (Larger and More Intimidating) -->
  <ellipse cx="16.5" cy="9" rx="1.8" ry="1.2" fill="#E0E0E0"/>
  <ellipse cx="21.5" cy="9" rx="1.8" ry="1.2" fill="#E0E0E0"/>
  <!-- Blade Sharp Points -->
  <ellipse cx="15.5" cy="8.5" rx="0.8" ry="0.5" fill="#F0F0F0"/>
  <ellipse cx="22.5" cy="8.5" rx="0.8" ry="0.5" fill="#F0F0F0"/>
  
  <!-- IMPACT AFTERMATH - Energy dissipation around axe -->
  <ellipse cx="19" cy="9" rx="5" ry="3" fill="#FFD700" opacity="0.2"/>
  <ellipse cx="19" cy="9" rx="4.5" ry="2.7" fill="#FF4500" opacity="0.15"/>
  <ellipse cx="19" cy="9" rx="4" ry="2.5" fill="#DC143C" opacity="0.1"/>
  
  <!-- FADING ENERGY LINES from impact -->
  <line x1="19" y1="9" x2="24" y2="7" stroke="#FFFF00" stroke-width="0.5" opacity="0.4"/>
  <line x1="19" y1="9" x2="24" y2="11" stroke="#FFFF00" stroke-width="0.5" opacity="0.3"/>
  <line x1="19" y1="9" x2="24" y2="13" stroke="#FFFF00" stroke-width="0.5" opacity="0.2"/>
  
  <!-- TRAILING SPARKS from axe -->
  <circle cx="20" cy="8" r="0.3" fill="#FFD700" opacity="0.6"/>
  <circle cx="21" cy="7" r="0.2" fill="#FF4500" opacity="0.5"/>
  <circle cx="22" cy="6" r="0.2" fill="#DC143C" opacity="0.4"/>
  <circle cx="18" cy="10" r="0.3" fill="#FFD700" opacity="0.5"/>
  <circle cx="17" cy="11" r="0.2" fill="#FF4500" opacity="0.4"/>
  
  <!-- Berserker Tunic (relaxing after swing) -->
  <ellipse cx="12" cy="18.5" rx="3.6" ry="2.6" fill="#8B4513"/>
  <ellipse cx="12" cy="17" rx="3.1" ry="2.1" fill="#CD853F"/>
  
  <!-- Muscular Arms (recovering) -->
  <!-- Right arm (axe holding - returning to side) -->
  <ellipse cx="15" cy="14" rx="1.3" ry="2.8" fill="#DEB887"/>
  <ellipse cx="16" cy="16" rx="1.1" ry="2.3" fill="#8B4513"/>
  
  <!-- Left arm (relaxing) -->
  <ellipse cx="9" cy="14" rx="1.2" ry="2.5" fill="#DEB887"/>
  <ellipse cx="8" cy="16" rx="1" ry="2" fill="#8B4513"/>
  
  <!-- Hands (gripping axe, catching breath) -->
  <circle cx="18" cy="13" r="0.8" fill="#DEB887"/>
  <circle cx="18" cy="17" r="0.8" fill="#DEB887"/>
  <circle cx="7" cy="18" r="0.8" fill="#DEB887"/>
  
  <!-- Head (satisfied with attack) -->
  <circle cx="12" cy="12.5" r="2.5" fill="#DEB887"/>
  
  <!-- Fierce Eyes (alert but calming) -->
  <circle cx="11" cy="12" r="0.3" fill="#000"/>
  <circle cx="13" cy="12" r="0.3" fill="#000"/>
  
  <!-- Satisfied Mouth -->
  <path d="M 10.5 13.5 Q 12 13.8 13.5 13.5" stroke="#000" stroke-width="0.5" fill="none"/>
  
  <!-- Wild Hair (settling after motion) -->
  <ellipse cx="12" cy="10" rx="2.8" ry="1.3" fill="#2F1B14"/>
  <ellipse cx="11" cy="9" rx="0.8" ry="0.8" fill="#2F1B14"/>
  <ellipse cx="13" cy="9" rx="0.8" ry="0.8" fill="#2F1B14"/>
  
  <!-- Berserker Pants (distinct from tunic) -->
  <ellipse cx="12" cy="21.5" rx="3.2" ry="2.3" fill="#654321"/>
  <ellipse cx="12" cy="20" rx="2.8" ry="1.8" fill="#654321"/>
  
  <!-- Strong Boots (dark brown) -->
  <ellipse cx="10" cy="26" rx="1.5" ry="2" fill="#2F1B14"/>
  <ellipse cx="14" cy="26" rx="1.5" ry="2" fill="#2F1B14"/>
  
  <!-- Breathing effect (subtle) -->
  <ellipse cx="12" cy="17" rx="3.5" ry="2.5" fill="#CD853F" opacity="0.3"/>
</svg> 