<svg width="24" height="30" viewBox="0 0 24 30" xmlns="http://www.w3.org/2000/svg">
  <!-- Berserker Special 01 - Enhanced Energy Buildup with Rage Aura -->
  
  <!-- Two-handed Battle Axe (raised for special ability) -->
  <line x1="17" y1="8" x2="17" y2="20" stroke="#654321" stroke-width="1.5"/>
  <!-- Axe Handle Grip -->
  <ellipse cx="17" cy="16" rx="0.6" ry="1.2" fill="#4A4A4A"/>
  <ellipse cx="17" cy="12" rx="0.6" ry="1.2" fill="#4A4A4A"/>
  <!-- Detailed Axe Head (Much Bigger) -->
  <ellipse cx="17" cy="6" rx="4" ry="2.5" fill="#696969"/>
  <ellipse cx="17" cy="6.5" rx="3.5" ry="2" fill="#C0C0C0"/>
  <!-- Axe Blade Edge (Larger and More Intimidating) -->
  <ellipse cx="14.5" cy="6" rx="1.8" ry="1.2" fill="#E0E0E0"/>
  <ellipse cx="19.5" cy="6" rx="1.8" ry="1.2" fill="#E0E0E0"/>
  <!-- Blade Sharp Points -->
  <ellipse cx="13.5" cy="5.5" rx="0.8" ry="0.5" fill="#F0F0F0"/>
  <ellipse cx="20.5" cy="5.5" rx="0.8" ry="0.5" fill="#F0F0F0"/>
  
  <!-- RAGE AURA BUILDUP - Multiple energy layers -->
  <ellipse cx="12" cy="15" rx="6" ry="8" fill="#DC143C" opacity="0.2"/>
  <ellipse cx="12" cy="15" rx="5" ry="7" fill="#FF4500" opacity="0.3"/>
  <ellipse cx="12" cy="15" rx="4" ry="6" fill="#FFD700" opacity="0.4"/>
  <ellipse cx="12" cy="15" rx="3" ry="5" fill="#FFFF00" opacity="0.5"/>
  
  <!-- ENERGY CRACKLING around axe -->
  <ellipse cx="17" cy="6" rx="5" ry="3" fill="#DC143C" opacity="0.4"/>
  <ellipse cx="17" cy="6" rx="4.5" ry="2.7" fill="#FF4500" opacity="0.5"/>
  <ellipse cx="17" cy="6" rx="4" ry="2.5" fill="#FFD700" opacity="0.6"/>
  
  <!-- POWER LINES radiating from berserker -->
  <line x1="12" y1="15" x2="6" y2="12" stroke="#FF0000" stroke-width="1" opacity="0.6"/>
  <line x1="12" y1="15" x2="18" y2="12" stroke="#FF0000" stroke-width="1" opacity="0.6"/>
  <line x1="12" y1="15" x2="6" y2="18" stroke="#FF0000" stroke-width="1" opacity="0.6"/>
  <line x1="12" y1="15" x2="18" y2="18" stroke="#FF0000" stroke-width="1" opacity="0.6"/>
  
  <!-- ENERGY SPARKS -->
  <circle cx="8" cy="10" r="0.3" fill="#FFD700" opacity="0.8"/>
  <circle cx="16" cy="8" r="0.2" fill="#FF4500" opacity="0.7"/>
  <circle cx="14" cy="20" r="0.3" fill="#DC143C" opacity="0.6"/>
  <circle cx="10" cy="18" r="0.2" fill="#FFFF00" opacity="0.8"/>
  
  <!-- Berserker Tunic (tensed for special ability) -->
  <ellipse cx="12" cy="16" rx="3.8" ry="2.7" fill="#8B4513"/>
  <ellipse cx="12" cy="14.5" rx="3.3" ry="2.2" fill="#CD853F"/>
  
  <!-- Muscular Arms (raising axe for special) -->
  <!-- Right arm (axe holding - raising) -->
  <ellipse cx="14" cy="10" rx="1.5" ry="3" fill="#DEB887"/>
  <ellipse cx="15" cy="12" rx="1.2" ry="2.5" fill="#8B4513"/>
  
  <!-- Left arm (assisting special) -->
  <ellipse cx="10" cy="10" rx="1.2" ry="2.5" fill="#DEB887"/>
  <ellipse cx="9" cy="12" rx="1" ry="2" fill="#8B4513"/>
  
  <!-- Hands (gripping axe for special) -->
  <circle cx="16" cy="8" r="0.8" fill="#DEB887"/>
  <circle cx="16" cy="12" r="0.8" fill="#DEB887"/>
  <circle cx="8" cy="14" r="0.8" fill="#DEB887"/>
  
  <!-- Head (focused on special) -->
  <circle cx="12" cy="10" r="2.5" fill="#DEB887"/>
  
  <!-- Glowing Eyes (rage building) -->
  <circle cx="11" cy="9.5" r="0.3" fill="#FF0000" opacity="0.8"/>
  <circle cx="13" cy="9.5" r="0.3" fill="#FF0000" opacity="0.8"/>
  <circle cx="11" cy="9.5" r="0.4" fill="#FF0000" opacity="0.3"/>
  <circle cx="13" cy="9.5" r="0.4" fill="#FF0000" opacity="0.3"/>
  
  <!-- Focused Mouth -->
  <path d="M 10.5 11 Q 12 11.5 13.5 11" stroke="#000" stroke-width="0.5" fill="none"/>
  
  <!-- Wild Hair (dark, distinct from clothing) -->
  <ellipse cx="12" cy="7.5" rx="2.8" ry="1.3" fill="#2F1B14"/>
  <ellipse cx="11" cy="6.5" rx="0.8" ry="0.8" fill="#2F1B14"/>
  <ellipse cx="13" cy="6.5" rx="0.8" ry="0.8" fill="#2F1B14"/>
  
  <!-- Berserker Pants (distinct from tunic) -->
  <ellipse cx="12" cy="19" rx="3.2" ry="2.3" fill="#654321"/>
  <ellipse cx="12" cy="17.5" rx="2.8" ry="1.8" fill="#654321"/>
  
  <!-- Strong Boots (dark brown) -->
  <ellipse cx="10" cy="26" rx="1.5" ry="2" fill="#2F1B14"/>
  <ellipse cx="14" cy="26" rx="1.5" ry="2" fill="#2F1B14"/>
  
  <!-- Breathing effect (subtle) -->
  <ellipse cx="12" cy="14.5" rx="3.7" ry="2.6" fill="#CD853F" opacity="0.3"/>
  
  <!-- Legs (planted firmly) -->
  <ellipse cx="10" cy="23" rx="1.5" ry="4" fill="#654321"/>
  <ellipse cx="14" cy="23" rx="1.5" ry="4" fill="#654321"/>
  
  <!-- Feet (stable stance) -->
  <ellipse cx="9" cy="27" rx="1.5" ry="1" fill="#2F1B14"/>
  <ellipse cx="15" cy="27" rx="1.5" ry="1" fill="#2F1B14"/>
  
  <!-- Subtle Leather Armor Details -->
  <line x1="12" y1="13" x2="12" y2="17" stroke="#654321" stroke-width="0.5"/>
  <line x1="10" y1="15" x2="14" y2="15" stroke="#654321" stroke-width="0.5"/>
  
  <!-- Battle Scars (minimal) -->
  <line x1="9" y1="11" x2="10" y2="11.5" stroke="#8B0000" stroke-width="0.2"/>
  <line x1="14" y1="10" x2="15" y2="10.5" stroke="#8B0000" stroke-width="0.2"/>
  
  <!-- Initial Blue Energy (subtle) -->
  <ellipse cx="17" cy="6" rx="1.5" ry="1" fill="#4169E1" opacity="0.2"/>
  <circle cx="12" cy="16" r="1" fill="#4169E1" opacity="0.15"/>
</svg> 