<svg width="24" height="30" viewBox="0 0 24 30" xmlns="http://www.w3.org/2000/svg">
  <!-- Berserker Special 03 - DRAMATIC EXPLOSIVE FLASH EFFECT -->
  
  <!-- MASSIVE ENERGY EXPLOSION - Full screen effect -->
  <ellipse cx="12" cy="15" rx="12" ry="15" fill="#FFFFFF" opacity="0.8"/>
  <ellipse cx="12" cy="15" rx="11" ry="14" fill="#FFFF00" opacity="0.9"/>
  <ellipse cx="12" cy="15" rx="10" ry="13" fill="#FFD700" opacity="0.8"/>
  <ellipse cx="12" cy="15" rx="9" ry="12" fill="#FF4500" opacity="0.7"/>
  <ellipse cx="12" cy="15" rx="8" ry="11" fill="#DC143C" opacity="0.6"/>
  <ellipse cx="12" cy="15" rx="7" ry="10" fill="#8B0000" opacity="0.5"/>
  
  <!-- EXPLOSIVE LIGHTNING BOLTS radiating in all directions -->
  <line x1="12" y1="15" x2="0" y2="0" stroke="#FFFFFF" stroke-width="2" opacity="0.9"/>
  <line x1="12" y1="15" x2="24" y2="0" stroke="#FFFFFF" stroke-width="2" opacity="0.9"/>
  <line x1="12" y1="15" x2="0" y2="30" stroke="#FFFFFF" stroke-width="2" opacity="0.9"/>
  <line x1="12" y1="15" x2="24" y2="30" stroke="#FFFFFF" stroke-width="2" opacity="0.9"/>
  <line x1="12" y1="15" x2="0" y2="15" stroke="#FFFFFF" stroke-width="2" opacity="0.9"/>
  <line x1="12" y1="15" x2="24" y2="15" stroke="#FFFFFF" stroke-width="2" opacity="0.9"/>
  <line x1="12" y1="15" x2="12" y2="0" stroke="#FFFFFF" stroke-width="2" opacity="0.9"/>
  <line x1="12" y1="15" x2="12" y2="30" stroke="#FFFFFF" stroke-width="2" opacity="0.9"/>
  
  <!-- SECONDARY LIGHTNING LAYER -->
  <line x1="12" y1="15" x2="0" y2="0" stroke="#FFFF00" stroke-width="1.5" opacity="0.8"/>
  <line x1="12" y1="15" x2="24" y2="0" stroke="#FFFF00" stroke-width="1.5" opacity="0.8"/>
  <line x1="12" y1="15" x2="0" y2="30" stroke="#FFFF00" stroke-width="1.5" opacity="0.8"/>
  <line x1="12" y1="15" x2="24" y2="30" stroke="#FFFF00" stroke-width="1.5" opacity="0.8"/>
  <line x1="12" y1="15" x2="0" y2="15" stroke="#FFFF00" stroke-width="1.5" opacity="0.8"/>
  <line x1="12" y1="15" x2="24" y2="15" stroke="#FFFF00" stroke-width="1.5" opacity="0.8"/>
  <line x1="12" y1="15" x2="12" y2="0" stroke="#FFFF00" stroke-width="1.5" opacity="0.8"/>
  <line x1="12" y1="15" x2="12" y2="30" stroke="#FFFF00" stroke-width="1.5" opacity="0.8"/>
  
  <!-- EXPLOSIVE ENERGY SPARKS scattered everywhere -->
  <circle cx="2" cy="3" r="0.5" fill="#FFFFFF" opacity="0.9"/>
  <circle cx="22" cy="5" r="0.4" fill="#FFFF00" opacity="0.8"/>
  <circle cx="4" cy="27" r="0.5" fill="#FFD700" opacity="0.9"/>
  <circle cx="20" cy="25" r="0.4" fill="#FF4500" opacity="0.8"/>
  <circle cx="1" cy="15" r="0.5" fill="#DC143C" opacity="0.9"/>
  <circle cx="23" cy="18" r="0.4" fill="#FFFFFF" opacity="0.8"/>
  <circle cx="6" cy="8" r="0.3" fill="#FFFF00" opacity="0.7"/>
  <circle cx="18" cy="22" r="0.3" fill="#FFD700" opacity="0.7"/>
  <circle cx="10" cy="2" r="0.3" fill="#FF4500" opacity="0.7"/>
  <circle cx="14" cy="28" r="0.3" fill="#DC143C" opacity="0.7"/>
  
  <!-- Two-handed Battle Axe (fully raised at explosion center) -->
  <line x1="15" y1="4" x2="15" y2="16" stroke="#654321" stroke-width="1.5"/>
  <!-- Axe Handle Grip -->
  <ellipse cx="15" cy="12" rx="0.6" ry="1.2" fill="#4A4A4A"/>
  <ellipse cx="15" cy="8" rx="0.6" ry="1.2" fill="#4A4A4A"/>
  <!-- Detailed Axe Head (Much Bigger) -->
  <ellipse cx="15" cy="2" rx="4" ry="2.5" fill="#696969"/>
  <ellipse cx="15" cy="2.5" rx="3.5" ry="2" fill="#C0C0C0"/>
  <!-- Axe Blade Edge (Larger and More Intimidating) -->
  <ellipse cx="12.5" cy="2" rx="1.8" ry="1.2" fill="#E0E0E0"/>
  <ellipse cx="17.5" cy="2" rx="1.8" ry="1.2" fill="#E0E0E0"/>
  <!-- Blade Sharp Points -->
  <ellipse cx="11.5" cy="1.5" rx="0.8" ry="0.5" fill="#F0F0F0"/>
  <ellipse cx="18.5" cy="1.5" rx="0.8" ry="0.5" fill="#F0F0F0"/>
  
  <!-- Berserker Tunic (at explosion peak) -->
  <ellipse cx="12" cy="14" rx="4.2" ry="2.9" fill="#8B4513"/>
  <ellipse cx="12" cy="12.5" rx="3.7" ry="2.4" fill="#CD853F"/>
  
  <!-- Muscular Arms (maximum extension) -->
  <!-- Right arm (axe holding - fully raised) -->
  <ellipse cx="12" cy="6" rx="1.8" ry="3.5" fill="#DEB887"/>
  <ellipse cx="13" cy="8" rx="1.5" ry="3" fill="#8B4513"/>
  
  <!-- Left arm (assisting special) -->
  <ellipse cx="12" cy="6" rx="1.2" ry="2.5" fill="#DEB887"/>
  <ellipse cx="11" cy="8" rx="1" ry="2" fill="#8B4513"/>
  
  <!-- Hands (gripping axe at explosion moment) -->
  <circle cx="14" cy="4" r="0.8" fill="#DEB887"/>
  <circle cx="14" cy="8" r="0.8" fill="#DEB887"/>
  <circle cx="10" cy="10" r="0.8" fill="#DEB887"/>
  
  <!-- Head (at explosion center) -->
  <circle cx="12" cy="7.5" r="2.5" fill="#DEB887"/>
  
  <!-- BLAZING WHITE EYES - explosion effect -->
  <circle cx="11" cy="7" r="0.5" fill="#FFFFFF" opacity="1"/>
  <circle cx="13" cy="7" r="0.5" fill="#FFFFFF" opacity="1"/>
  <circle cx="11" cy="7" r="0.7" fill="#FFFF00" opacity="0.8"/>
  <circle cx="13" cy="7" r="0.7" fill="#FFFF00" opacity="0.8"/>
  <circle cx="11" cy="7" r="0.9" fill="#FFD700" opacity="0.6"/>
  <circle cx="13" cy="7" r="0.9" fill="#FFD700" opacity="0.6"/>
  
  <!-- Focused Mouth -->
  <path d="M 10.5 8.5 Q 12 9 13.5 8.5" stroke="#000" stroke-width="0.5" fill="none"/>
  
  <!-- Wild Hair (energy-charged) -->
  <ellipse cx="12" cy="5" rx="2.8" ry="1.3" fill="#2F1B14"/>
  <ellipse cx="11" cy="4" rx="0.8" ry="0.8" fill="#2F1B14"/>
  <ellipse cx="13" cy="4" rx="0.8" ry="0.8" fill="#2F1B14"/>
  
  <!-- Berserker Pants (distinct from tunic) -->
  <ellipse cx="12" cy="17" rx="3.2" ry="2.3" fill="#654321"/>
  <ellipse cx="12" cy="15.5" rx="2.8" ry="1.8" fill="#654321"/>
  
  <!-- Strong Boots (dark brown) -->
  <ellipse cx="10" cy="26" rx="1.5" ry="2" fill="#2F1B14"/>
  <ellipse cx="14" cy="26" rx="1.5" ry="2" fill="#2F1B14"/>
  
  <!-- Breathing effect (subtle) -->
  <ellipse cx="12" cy="12.5" rx="3.7" ry="2.6" fill="#CD853F" opacity="0.3"/>
</svg> 