<svg width="24" height="30" viewBox="0 0 24 30" xmlns="http://www.w3.org/2000/svg">
  <!-- Berserker Dodge 03 - Recovery from Dodge Roll -->
  
  <!-- Two-handed Battle Axe (Recovering Position) -->
  <line x1="12" y1="10" x2="12" y2="22" stroke="#8B4513" stroke-width="1.5"/>
  <ellipse cx="12" cy="8" rx="3" ry="1.5" fill="#696969"/>
  <ellipse cx="12" cy="9" rx="2.5" ry="1" fill="#A0A0A0"/>
  
  <!-- Torso (Recovering Stance) -->
  <ellipse cx="12" cy="17" rx="4" ry="2.5" fill="#8B4513"/>
  <ellipse cx="12" cy="15.5" rx="3" ry="2" fill="#CD853F"/>
  
  <!-- Muscular Arms (Recovering) -->
  <ellipse cx="8" cy="13" rx="1.5" ry="3" fill="#DEB887"/>
  <ellipse cx="16" cy="13" rx="1.5" ry="3" fill="#DEB887"/>
  
  <!-- Hands Gripping Axe -->
  <circle cx="10" cy="11" r="1" fill="#DEB887"/>
  <circle cx="14" cy="15" r="1" fill="#DEB887"/>
  
  <!-- Head (Alert after Dodge) -->
  <circle cx="12" cy="11.5" r="2.5" fill="#DEB887"/>
  
  <!-- Alert Eyes -->
  <circle cx="11" cy="11" r="0.3" fill="#000"/>
  <circle cx="13" cy="11" r="0.3" fill="#000"/>
  
  <!-- Ready Mouth -->
  <path d="M 10.5 12.5 Q 12 13 13.5 12.5" stroke="#000" stroke-width="0.5" fill="none"/>
  
  <!-- Wild Hair (Settling) -->
  <ellipse cx="12" cy="9" rx="3" ry="1.5" fill="#654321"/>
  <ellipse cx="11" cy="8" rx="1" ry="1" fill="#654321"/>
  <ellipse cx="13" cy="8" rx="1" ry="1" fill="#654321"/>
  
  <!-- Legs (Recovering Stance) -->
  <ellipse cx="10" cy="23" rx="1.5" ry="4" fill="#8B4513"/>
  <ellipse cx="14" cy="23" rx="1.5" ry="4" fill="#8B4513"/>
  
  <!-- Feet (Planted after Dodge) -->
  <ellipse cx="9" cy="27" rx="1.5" ry="1" fill="#654321"/>
  <ellipse cx="15" cy="27" rx="1.5" ry="1" fill="#654321"/>
  
  <!-- Recovery Aura -->
  <ellipse cx="12" cy="17" rx="5" ry="7" fill="#DC143C" opacity="0.1"/>
  
  <!-- Battle Scars -->
  <line x1="9" y1="12" x2="10" y2="13" stroke="#8B0000" stroke-width="0.3"/>
  <line x1="14" y1="11" x2="15" y2="12" stroke="#8B0000" stroke-width="0.3"/>
  
  <!-- Dust Effects from Landing -->
  <ellipse cx="7" cy="28" rx="1.5" ry="0.8" fill="#888888" opacity="0.5"/>
  <ellipse cx="17" cy="28" rx="1.5" ry="0.8" fill="#888888" opacity="0.5"/>
  <ellipse cx="12" cy="29" rx="2" ry="0.6" fill="#888888" opacity="0.4"/>
  <ellipse cx="9" cy="28.5" rx="1" ry="0.4" fill="#888888" opacity="0.3"/>
  <ellipse cx="15" cy="28.5" rx="1" ry="0.4" fill="#888888" opacity="0.3"/>
  
  <!-- Movement Trail Effects -->
  <ellipse cx="10" cy="20" rx="0.8" ry="1.5" fill="#8B4513" opacity="0.2"/>
  <ellipse cx="14" cy="20" rx="0.8" ry="1.5" fill="#8B4513" opacity="0.2"/>
  
  <!-- Ground Impact Lines -->
  <line x1="9" y1="28" x2="9" y2="29" stroke="#654321" stroke-width="1" opacity="0.6"/>
  <line x1="15" y1="28" x2="15" y2="29" stroke="#654321" stroke-width="1" opacity="0.6"/>
  <line x1="7" y1="28" x2="6" y2="29" stroke="#888888" stroke-width="0.5" opacity="0.4"/>
  <line x1="17" y1="28" x2="18" y2="29" stroke="#888888" stroke-width="0.5" opacity="0.4"/>
</svg> 