<svg width="24" height="30" viewBox="0 0 24 30" xmlns="http://www.w3.org/2000/svg">
  <!-- Berserker Ultimate 05 - Rage Slam Aftermath -->
  
  <!-- Enhanced Two-handed Battle Axe (Lowering from Slam) -->
  <line x1="12" y1="10" x2="12" y2="22" stroke="#654321" stroke-width="1.5"/>
  <!-- Axe Handle Grip -->
  <ellipse cx="12" cy="18" rx="0.6" ry="1.2" fill="#4A4A4A"/>
  <ellipse cx="12" cy="14" rx="0.6" ry="1.2" fill="#4A4A4A"/>
  <!-- Detailed Axe Head (Much Bigger) -->
  <ellipse cx="12" cy="8" rx="4" ry="2.5" fill="#696969"/>
  <ellipse cx="12" cy="8.5" rx="3.5" ry="2" fill="#C0C0C0"/>
  <!-- Axe Blade Edge (Larger and More Intimidating) -->
  <ellipse cx="9.5" cy="8" rx="1.8" ry="1.2" fill="#E0E0E0"/>
  <ellipse cx="14.5" cy="8" rx="1.8" ry="1.2" fill="#E0E0E0"/>
  <!-- Blade Sharp Points -->
  <ellipse cx="8.5" cy="7.5" rx="0.8" ry="0.5" fill="#F0F0F0"/>
  <ellipse cx="15.5" cy="7.5" rx="0.8" ry="0.5" fill="#F0F0F0"/>
  
  <!-- Torso (Exhausted from Slam) -->
  <ellipse cx="12" cy="17" rx="4.2" ry="2.6" fill="#8B4513"/>
  <ellipse cx="12" cy="15.5" rx="3.2" ry="2.1" fill="#CD853F"/>
  
  <!-- Muscular Arms (Tired from Slam) -->
  <ellipse cx="8" cy="13" rx="1.6" ry="3.2" fill="#DEB887"/>
  <ellipse cx="16" cy="13" rx="1.6" ry="3.2" fill="#DEB887"/>
  
  <!-- Hands Gripping Axe (Relaxing) -->
  <circle cx="10" cy="12" r="1.1" fill="#DEB887"/>
  <circle cx="14" cy="16" r="1.1" fill="#DEB887"/>
  
  <!-- Head (Fierce but Exhausted) -->
  <circle cx="12" cy="11" r="2.5" fill="#DEB887"/>
  
  <!-- Eyes (Returning to Normal) -->
  <circle cx="11" cy="10.5" r="0.3" fill="#000"/>
  <circle cx="13" cy="10.5" r="0.3" fill="#000"/>
  
  <!-- Mouth (Heavy Breathing) -->
  <path d="M 10.5 12 Q 12 12.5 13.5 12" stroke="#000" stroke-width="0.5" fill="none"/>
  
  <!-- Wild Hair (Settling) -->
  <ellipse cx="12" cy="8.5" rx="3" ry="1.6" fill="#654321"/>
  <ellipse cx="11" cy="7.5" rx="1.1" ry="1.1" fill="#654321"/>
  <ellipse cx="13" cy="7.5" rx="1.1" ry="1.1" fill="#654321"/>
  
  <!-- Legs (Planted Firmly) -->
  <ellipse cx="10" cy="25" rx="1.7" ry="4.2" fill="#8B4513"/>
  <ellipse cx="14" cy="25" rx="1.7" ry="4.2" fill="#8B4513"/>
  
  <!-- Feet (Solid Stance) -->
  <ellipse cx="9" cy="29" rx="1.7" ry="1.1" fill="#654321"/>
  <ellipse cx="15" cy="29" rx="1.7" ry="1.1" fill="#654321"/>
  
  <!-- Dissipating Rage Aura -->
  <ellipse cx="12" cy="17" rx="6" ry="8" fill="#DC143C" opacity="0.15"/>
  <ellipse cx="12" cy="17" rx="4" ry="6" fill="#8B0000" opacity="0.1"/>
  
  <!-- Battle Scars -->
  <line x1="9" y1="11.5" x2="10" y2="12.5" stroke="#8B0000" stroke-width="0.3"/>
  <line x1="14" y1="10.5" x2="15" y2="11.5" stroke="#8B0000" stroke-width="0.3"/>
  
  <!-- Fading Impact Effects -->
  <circle cx="12" cy="8" r="0.8" fill="#8B0000" opacity="0.3"/>
  <circle cx="8" cy="12" r="0.5" fill="#DC143C" opacity="0.2"/>
  <circle cx="16" cy="12" r="0.5" fill="#DC143C" opacity="0.2"/>
  
  <!-- Ground Impact Aftermath -->
  <ellipse cx="12" cy="26" rx="6" ry="2" fill="#8B0000" opacity="0.1"/>
  <ellipse cx="12" cy="27" rx="4" ry="1.5" fill="#DC143C" opacity="0.08"/>
  
  <!-- Fading Energy Trails -->
  <line x1="12" y1="8" x2="12" y2="6" stroke="#DC143C" stroke-width="0.5" opacity="0.2"/>
  <line x1="10" y1="10" x2="8" y2="8" stroke="#DC143C" stroke-width="0.3" opacity="0.15"/>
  <line x1="14" y1="10" x2="16" y2="8" stroke="#DC143C" stroke-width="0.3" opacity="0.15"/>
  
  <!-- Smoke/Steam Effects -->
  <ellipse cx="10" cy="14" rx="0.4" ry="0.8" fill="#888888" opacity="0.3"/>
  <ellipse cx="14" cy="14" rx="0.4" ry="0.8" fill="#888888" opacity="0.3"/>
  <ellipse cx="12" cy="16" rx="0.5" ry="1" fill="#888888" opacity="0.25"/>
  
  <!-- Settling Debris -->
  <circle cx="7" cy="20" r="0.2" fill="#654321" opacity="0.4"/>
  <circle cx="17" cy="20" r="0.2" fill="#654321" opacity="0.4"/>
  <circle cx="5" cy="22" r="0.15" fill="#654321" opacity="0.3"/>
  <circle cx="19" cy="22" r="0.15" fill="#654321" opacity="0.3"/>
  
  <!-- Ground Cracks (Fading) -->
  <line x1="12" y1="22" x2="12" y2="28" stroke="#8B0000" stroke-width="0.5" opacity="0.2"/>
  <line x1="10" y1="24" x2="8" y2="26" stroke="#8B0000" stroke-width="0.3" opacity="0.15"/>
  <line x1="14" y1="24" x2="16" y2="26" stroke="#8B0000" stroke-width="0.3" opacity="0.15"/>
</svg> 