<svg width="24" height="30" viewBox="0 0 24 30" xmlns="http://www.w3.org/2000/svg">
  <!-- Berserker Ultimate 04 - Devastating Slam Impact -->
  
  <!-- Enhanced Two-handed Battle Axe (Slamming Down) -->
  <line x1="12" y1="8" x2="12" y2="20" stroke="#654321" stroke-width="1.5"/>
  <!-- Axe Handle Grip -->
  <ellipse cx="12" cy="16" rx="0.6" ry="1.2" fill="#4A4A4A"/>
  <ellipse cx="12" cy="12" rx="0.6" ry="1.2" fill="#4A4A4A"/>
  <!-- Detailed Axe Head (Much Bigger) -->
  <ellipse cx="12" cy="6" rx="4" ry="2.5" fill="#696969"/>
  <ellipse cx="12" cy="6.5" rx="3.5" ry="2" fill="#C0C0C0"/>
  <!-- Axe Blade Edge (Larger and More Intimidating) -->
  <ellipse cx="9.5" cy="6" rx="1.8" ry="1.2" fill="#E0E0E0"/>
  <ellipse cx="14.5" cy="6" rx="1.8" ry="1.2" fill="#E0E0E0"/>
  <!-- Blade Sharp Points -->
  <ellipse cx="8.5" cy="5.5" rx="0.8" ry="0.5" fill="#F0F0F0"/>
  <ellipse cx="15.5" cy="5.5" rx="0.8" ry="0.5" fill="#F0F0F0"/>
  
  <!-- Torso (Impact Strain) -->
  <ellipse cx="12" cy="16" rx="4.5" ry="2.8" fill="#8B4513"/>
  <ellipse cx="12" cy="14.5" rx="3.5" ry="2.3" fill="#CD853F"/>
  
  <!-- Muscular Arms (Slam Force) -->
  <ellipse cx="8" cy="12" rx="1.8" ry="3.5" fill="#DEB887"/>
  <ellipse cx="16" cy="12" rx="1.8" ry="3.5" fill="#DEB887"/>
  
  <!-- Hands Gripping Axe (Impact) -->
  <circle cx="10" cy="10" r="1.2" fill="#DEB887"/>
  <circle cx="14" cy="14" r="1.2" fill="#DEB887"/>
  
  <!-- Head (Fierce Impact) -->
  <circle cx="12" cy="10.5" r="2.5" fill="#DEB887"/>
  
  <!-- Eyes (Blazing Rage) -->
  <circle cx="11" cy="10" r="0.4" fill="#DC143C"/>
  <circle cx="13" cy="10" r="0.4" fill="#DC143C"/>
  
  <!-- Mouth (Roaring) -->
  <path d="M 10.5 11.5 Q 12 12 13.5 11.5" stroke="#000" stroke-width="0.5" fill="none"/>
  
  <!-- Wild Hair (Impact Wave) -->
  <ellipse cx="12" cy="8" rx="3.2" ry="1.8" fill="#654321"/>
  <ellipse cx="11" cy="7" rx="1.2" ry="1.2" fill="#654321"/>
  <ellipse cx="13" cy="7" rx="1.2" ry="1.2" fill="#654321"/>
  
  <!-- Legs (Braced for Impact) -->
  <ellipse cx="10" cy="24" rx="1.8" ry="4.5" fill="#8B4513"/>
  <ellipse cx="14" cy="24" rx="1.8" ry="4.5" fill="#8B4513"/>
  
  <!-- Feet (Solid Stance) -->
  <ellipse cx="9" cy="28" rx="1.8" ry="1.2" fill="#654321"/>
  <ellipse cx="15" cy="28" rx="1.8" ry="1.2" fill="#654321"/>
  
  <!-- Impact Rage Aura -->
  <ellipse cx="12" cy="16" rx="7" ry="9" fill="#DC143C" opacity="0.35"/>
  <ellipse cx="12" cy="16" rx="5" ry="7" fill="#8B0000" opacity="0.3"/>
  
  <!-- Battle Scars -->
  <line x1="9" y1="11" x2="10" y2="12" stroke="#8B0000" stroke-width="0.3"/>
  <line x1="14" y1="10" x2="15" y2="11" stroke="#8B0000" stroke-width="0.3"/>
  
  <!-- Massive Impact Effects -->
  <circle cx="12" cy="6" r="1.5" fill="#8B0000" opacity="0.7"/>
  <circle cx="8" cy="8" r="1" fill="#DC143C" opacity="0.6"/>
  <circle cx="16" cy="8" r="1" fill="#DC143C" opacity="0.6"/>
  <circle cx="6" cy="10" r="0.8" fill="#DC143C" opacity="0.5"/>
  <circle cx="18" cy="10" r="0.8" fill="#DC143C" opacity="0.5"/>
  
  <!-- Impact Shockwaves -->
  <ellipse cx="12" cy="20" rx="10" ry="3" fill="#8B0000" opacity="0.3"/>
  <ellipse cx="12" cy="22" rx="8" ry="2.5" fill="#DC143C" opacity="0.25"/>
  <ellipse cx="12" cy="24" rx="6" ry="2" fill="#8B0000" opacity="0.2"/>
  
  <!-- Ground Impact Cracks -->
  <line x1="12" y1="20" x2="12" y2="30" stroke="#8B0000" stroke-width="1" opacity="0.4"/>
  <line x1="8" y1="22" x2="4" y2="26" stroke="#8B0000" stroke-width="0.8" opacity="0.3"/>
  <line x1="16" y1="22" x2="20" y2="26" stroke="#8B0000" stroke-width="0.8" opacity="0.3"/>
  
  <!-- Energy Explosion -->
  <line x1="12" y1="6" x2="12" y2="2" stroke="#DC143C" stroke-width="1.5" opacity="0.6"/>
  <line x1="10" y1="8" x2="6" y2="4" stroke="#DC143C" stroke-width="1" opacity="0.5"/>
  <line x1="14" y1="8" x2="18" y2="4" stroke="#DC143C" stroke-width="1" opacity="0.5"/>
  <line x1="8" y1="10" x2="2" y2="6" stroke="#DC143C" stroke-width="0.8" opacity="0.4"/>
  <line x1="16" y1="10" x2="22" y2="6" stroke="#DC143C" stroke-width="0.8" opacity="0.4"/>
  
  <!-- Debris Effects -->
  <circle cx="6" cy="18" r="0.4" fill="#654321" opacity="0.6"/>
  <circle cx="18" cy="18" r="0.4" fill="#654321" opacity="0.6"/>
  <circle cx="4" cy="20" r="0.3" fill="#654321" opacity="0.5"/>
  <circle cx="20" cy="20" r="0.3" fill="#654321" opacity="0.5"/>
</svg> 