<svg width="24" height="30" viewBox="0 0 24 30" xmlns="http://www.w3.org/2000/svg">
  <!-- Berserker Dodge 02 - Mid-Dodge Roll with Motion Blur -->
  
  <!-- Two-handed Battle Axe (Angled in Roll) -->
  <line x1="8" y1="14" x2="16" y2="20" stroke="#8B4513" stroke-width="1.5"/>
  <ellipse cx="6" cy="13" rx="2" ry="1" fill="#696969"/>
  <ellipse cx="7" cy="13.5" rx="1.5" ry="0.8" fill="#A0A0A0"/>
  
  <!-- Torso (Rolling) -->
  <ellipse cx="12" cy="18" rx="3" ry="4" fill="#8B4513"/>
  <ellipse cx="12" cy="17" rx="2.5" ry="3" fill="#CD853F"/>
  
  <!-- Muscular Arms (Mid-Roll) -->
  <ellipse cx="10" cy="16" rx="2" ry="1.5" fill="#DEB887"/>
  <ellipse cx="14" cy="20" rx="2" ry="1.5" fill="#DEB887"/>
  
  <!-- Hands Gripping Axe -->
  <circle cx="8" cy="15" r="0.8" fill="#DEB887"/>
  <circle cx="16" cy="19" r="0.8" fill="#DEB887"/>
  
  <!-- Head (Rolling) -->
  <circle cx="11" cy="15" r="2" fill="#DEB887"/>
  
  <!-- Eyes (Focused) -->
  <circle cx="10.5" cy="14.5" r="0.2" fill="#000"/>
  <circle cx="11.5" cy="15.5" r="0.2" fill="#000"/>
  
  <!-- Mouth (Determined) -->
  <path d="M 10 15.5 Q 11 16 12 15.5" stroke="#000" stroke-width="0.3" fill="none"/>
  
  <!-- Wild Hair (Motion Blur) -->
  <ellipse cx="11" cy="13" rx="2" ry="1" fill="#654321"/>
  <ellipse cx="9" cy="12" rx="1" ry="0.5" fill="#654321"/>
  <ellipse cx="13" cy="14" rx="1" ry="0.5" fill="#654321"/>
  
  <!-- Legs (Tucked in Roll) -->
  <ellipse cx="13" cy="21" rx="1.5" ry="2.5" fill="#8B4513"/>
  <ellipse cx="11" cy="22" rx="1.5" ry="2.5" fill="#8B4513"/>
  
  <!-- Feet (In Motion) -->
  <ellipse cx="14" cy="23" rx="1" ry="0.8" fill="#654321"/>
  <ellipse cx="10" cy="24" rx="1" ry="0.8" fill="#654321"/>
  
  <!-- Motion Blur Effects -->
  <ellipse cx="12" cy="18" rx="4" ry="5" fill="#DC143C" opacity="0.2"/>
  <ellipse cx="10" cy="17" rx="2" ry="3" fill="#8B4513" opacity="0.3"/>
  <ellipse cx="14" cy="19" rx="2" ry="3" fill="#8B4513" opacity="0.3"/>
  
  <!-- Battle Scars -->
  <line x1="9" y1="16" x2="10" y2="17" stroke="#8B0000" stroke-width="0.2"/>
  <line x1="13" y1="15" x2="14" y2="16" stroke="#8B0000" stroke-width="0.2"/>
  
  <!-- Motion Lines -->
  <line x1="8" y1="15" x2="6" y2="14" stroke="#8B4513" stroke-width="0.5" opacity="0.4"/>
  <line x1="16" y1="19" x2="18" y2="20" stroke="#8B4513" stroke-width="0.5" opacity="0.4"/>
  <line x1="10" y1="17" x2="8" y2="16" stroke="#DEB887" stroke-width="0.3" opacity="0.3"/>
  <line x1="14" y1="19" x2="16" y2="20" stroke="#DEB887" stroke-width="0.3" opacity="0.3"/>
  
  <!-- Dust Effects -->
  <ellipse cx="8" cy="24" rx="1" ry="0.5" fill="#888888" opacity="0.4"/>
  <ellipse cx="16" cy="25" rx="1" ry="0.5" fill="#888888" opacity="0.4"/>
  <ellipse cx="12" cy="26" rx="0.8" ry="0.3" fill="#888888" opacity="0.3"/>
</svg> 