<svg width="24" height="30" viewBox="0 0 24 30" xmlns="http://www.w3.org/2000/svg">
  <!-- Berserker Attack 02 - Enhanced Axe Forward Swing with Motion Blur -->
  
  <!-- Two-handed Battle Axe (swinging forward) -->
  <line x1="8" y1="12" x2="8" y2="24" stroke="#654321" stroke-width="1.5"/>
  <!-- Axe Handle Grip -->
  <ellipse cx="8" cy="20" rx="0.6" ry="1.2" fill="#4A4A4A"/>
  <ellipse cx="8" cy="16" rx="0.6" ry="1.2" fill="#4A4A4A"/>
  <!-- Detailed Axe Head (Much Bigger) -->
  <ellipse cx="8" cy="10" rx="4" ry="2.5" fill="#696969"/>
  <ellipse cx="8" cy="10.5" rx="3.5" ry="2" fill="#C0C0C0"/>
  <!-- Axe Blade Edge (Larger and More Intimidating) -->
  <ellipse cx="5.5" cy="10" rx="1.8" ry="1.2" fill="#E0E0E0"/>
  <ellipse cx="10.5" cy="10" rx="1.8" ry="1.2" fill="#E0E0E0"/>
  <!-- Blade Sharp Points -->
  <ellipse cx="4.5" cy="9.5" rx="0.8" ry="0.5" fill="#F0F0F0"/>
  <ellipse cx="11.5" cy="9.5" rx="0.8" ry="0.5" fill="#F0F0F0"/>
  
  <!-- MOTION BLUR EFFECT - Multiple axe positions showing swing motion -->
  <ellipse cx="12" cy="8" rx="3.5" ry="2" fill="#C0C0C0" opacity="0.3"/>
  <ellipse cx="14" cy="7" rx="3" ry="1.8" fill="#C0C0C0" opacity="0.2"/>
  <ellipse cx="16" cy="6" rx="2.5" ry="1.5" fill="#C0C0C0" opacity="0.1"/>
  
  <!-- ENERGY TRAIL showing swing path -->
  <path d="M 16 6 Q 12 8 8 10" stroke="#FFD700" stroke-width="2" fill="none" opacity="0.8"/>
  <path d="M 16 6 Q 12 8 8 10" stroke="#FF4500" stroke-width="1.5" fill="none" opacity="0.6"/>
  <path d="M 16 6 Q 12 8 8 10" stroke="#DC143C" stroke-width="1" fill="none" opacity="0.4"/>
  
  <!-- IMPACT LINES showing force -->
  <line x1="8" y1="10" x2="2" y2="8" stroke="#FFFF00" stroke-width="1" opacity="0.7"/>
  <line x1="8" y1="10" x2="1" y2="12" stroke="#FFFF00" stroke-width="1" opacity="0.7"/>
  <line x1="8" y1="10" x2="3" y2="14" stroke="#FFFF00" stroke-width="1" opacity="0.7"/>
  
  <!-- SPEED LINES around axe -->
  <line x1="8" y1="10" x2="0" y2="10" stroke="#FF0000" stroke-width="0.5" opacity="0.6"/>
  <line x1="8" y1="10" x2="0" y2="6" stroke="#FF0000" stroke-width="0.5" opacity="0.5"/>
  <line x1="8" y1="10" x2="0" y2="14" stroke="#FF0000" stroke-width="0.5" opacity="0.5"/>
  
  <!-- Berserker Tunic (strained with swing) -->
  <ellipse cx="12" cy="18" rx="3.8" ry="2.7" fill="#8B4513"/>
  <ellipse cx="12" cy="16.5" rx="3.3" ry="2.2" fill="#CD853F"/>
  
  <!-- Muscular Arms (mid-swing) -->
  <!-- Right arm (axe holding - swinging forward) -->
  <ellipse cx="10" cy="14" rx="1.5" ry="3" fill="#DEB887"/>
  <ellipse cx="9" cy="16" rx="1.2" ry="2.5" fill="#8B4513"/>
  
  <!-- Left arm (assisting swing) -->
  <ellipse cx="14" cy="15" rx="1.2" ry="2.5" fill="#DEB887"/>
  <ellipse cx="15" cy="17" rx="1" ry="2" fill="#8B4513"/>
  
  <!-- Hands (both gripping axe in motion) -->
  <circle cx="9" cy="14" r="0.8" fill="#DEB887"/>
  <circle cx="9" cy="18" r="0.8" fill="#DEB887"/>
  <circle cx="16" cy="20" r="0.8" fill="#DEB887"/>
  
  <!-- Head (focused on target) -->
  <circle cx="12" cy="12" r="2.5" fill="#DEB887"/>
  
  <!-- Fierce Eyes (intense concentration) -->
  <circle cx="11" cy="11.5" r="0.3" fill="#000"/>
  <circle cx="13" cy="11.5" r="0.3" fill="#000"/>
  
  <!-- Fierce Mouth -->
  <path d="M 10.5 13 Q 12 12.8 13.5 13" stroke="#000" stroke-width="0.5" fill="none"/>
  
  <!-- Wild Hair (motion blur) -->
  <ellipse cx="12" cy="9.5" rx="2.8" ry="1.3" fill="#2F1B14"/>
  <ellipse cx="11" cy="8.5" rx="0.8" ry="0.8" fill="#2F1B14"/>
  <ellipse cx="13" cy="8.5" rx="0.8" ry="0.8" fill="#2F1B14"/>
  <!-- Hair motion blur -->
  <ellipse cx="14" cy="9" rx="2.5" ry="1" fill="#2F1B14" opacity="0.5"/>
  <ellipse cx="16" cy="8.5" rx="2" ry="0.8" fill="#2F1B14" opacity="0.3"/>
  
  <!-- Berserker Pants (distinct from tunic) -->
  <ellipse cx="12" cy="21" rx="3.2" ry="2.3" fill="#654321"/>
  <ellipse cx="12" cy="19.5" rx="2.8" ry="1.8" fill="#654321"/>
  
  <!-- Strong Boots (dark brown) -->
  <ellipse cx="10" cy="26" rx="1.5" ry="2" fill="#2F1B14"/>
  <ellipse cx="14" cy="26" rx="1.5" ry="2" fill="#2F1B14"/>
  
  <!-- Breathing effect (subtle) -->
  <ellipse cx="12" cy="16.5" rx="3.7" ry="2.6" fill="#CD853F" opacity="0.3"/>
  
  <!-- Legs (braced for swing) -->
  <ellipse cx="10" cy="24" rx="1.5" ry="4" fill="#654321"/>
  <ellipse cx="14" cy="24" rx="1.5" ry="4" fill="#654321"/>
  
  <!-- Feet (solid stance) -->
  <ellipse cx="9" cy="28" rx="1.5" ry="1" fill="#2F1B14"/>
  <ellipse cx="15" cy="28" rx="1.5" ry="1" fill="#2F1B14"/>
  
  <!-- Subtle Leather Armor Details -->
  <line x1="12" y1="15" x2="12" y2="19" stroke="#654321" stroke-width="0.5"/>
  <line x1="10" y1="17" x2="14" y2="17" stroke="#654321" stroke-width="0.5"/>
  
  <!-- Battle Scars (minimal) -->
  <line x1="9" y1="13" x2="10" y2="13.5" stroke="#8B0000" stroke-width="0.2"/>
  <line x1="14" y1="12" x2="15" y2="12.5" stroke="#8B0000" stroke-width="0.2"/>
  
  <!-- Attack Motion Trail -->
  <ellipse cx="8" cy="10" rx="1.5" ry="0.8" fill="#DC143C" opacity="0.3"/>
  <line x1="10" y1="10" x2="14" y2="10" stroke="#DC143C" stroke-width="0.5" opacity="0.4"/>
</svg> 