<svg width="24" height="30" viewBox="0 0 24 30" xmlns="http://www.w3.org/2000/svg">
  <!-- Berserker Special 04 - Energy Dissipation after Explosion -->
  
  <!-- FADING ENERGY EXPLOSION - Dissipating effects -->
  <ellipse cx="12" cy="15" rx="8" ry="10" fill="#FFFFFF" opacity="0.4"/>
  <ellipse cx="12" cy="15" rx="7" ry="9" fill="#FFFF00" opacity="0.5"/>
  <ellipse cx="12" cy="15" rx="6" ry="8" fill="#FFD700" opacity="0.4"/>
  <ellipse cx="12" cy="15" rx="5" ry="7" fill="#FF4500" opacity="0.3"/>
  <ellipse cx="12" cy="15" rx="4" ry="6" fill="#DC143C" opacity="0.2"/>
  
  <!-- FADING LIGHTNING BOLTS - Dissipating energy -->
  <line x1="12" y1="15" x2="2" y2="2" stroke="#FFFFFF" stroke-width="1" opacity="0.5"/>
  <line x1="12" y1="15" x2="22" y2="2" stroke="#FFFFFF" stroke-width="1" opacity="0.5"/>
  <line x1="12" y1="15" x2="2" y2="28" stroke="#FFFFFF" stroke-width="1" opacity="0.5"/>
  <line x1="12" y1="15" x2="22" y2="28" stroke="#FFFFFF" stroke-width="1" opacity="0.5"/>
  <line x1="12" y1="15" x2="2" y2="15" stroke="#FFFFFF" stroke-width="1" opacity="0.5"/>
  <line x1="12" y1="15" x2="22" y2="15" stroke="#FFFFFF" stroke-width="1" opacity="0.5"/>
  
  <!-- SECONDARY FADING LIGHTNING -->
  <line x1="12" y1="15" x2="2" y2="2" stroke="#FFFF00" stroke-width="0.8" opacity="0.4"/>
  <line x1="12" y1="15" x2="22" y2="2" stroke="#FFFF00" stroke-width="0.8" opacity="0.4"/>
  <line x1="12" y1="15" x2="2" y2="28" stroke="#FFFF00" stroke-width="0.8" opacity="0.4"/>
  <line x1="12" y1="15" x2="22" y2="28" stroke="#FFFF00" stroke-width="0.8" opacity="0.4"/>
  
  <!-- DISSIPATING ENERGY SPARKS -->
  <circle cx="4" cy="6" r="0.3" fill="#FFFFFF" opacity="0.6"/>
  <circle cx="20" cy="8" r="0.3" fill="#FFFF00" opacity="0.5"/>
  <circle cx="6" cy="24" r="0.3" fill="#FFD700" opacity="0.6"/>
  <circle cx="18" cy="22" r="0.3" fill="#FF4500" opacity="0.5"/>
  <circle cx="3" cy="15" r="0.3" fill="#DC143C" opacity="0.6"/>
  <circle cx="21" cy="18" r="0.3" fill="#FFFFFF" opacity="0.5"/>
  <circle cx="8" cy="10" r="0.2" fill="#FFFF00" opacity="0.4"/>
  <circle cx="16" cy="20" r="0.2" fill="#FFD700" opacity="0.4"/>
  
  <!-- Two-handed Battle Axe (lowering from peak) -->
  <line x1="16" y1="6" x2="16" y2="18" stroke="#654321" stroke-width="1.5"/>
  <!-- Axe Handle Grip -->
  <ellipse cx="16" cy="14" rx="0.6" ry="1.2" fill="#4A4A4A"/>
  <ellipse cx="16" cy="10" rx="0.6" ry="1.2" fill="#4A4A4A"/>
  <!-- Detailed Axe Head (Much Bigger) -->
  <ellipse cx="16" cy="4" rx="4" ry="2.5" fill="#696969"/>
  <ellipse cx="16" cy="4.5" rx="3.5" ry="2" fill="#C0C0C0"/>
  <!-- Axe Blade Edge (Larger and More Intimidating) -->
  <ellipse cx="13.5" cy="4" rx="1.8" ry="1.2" fill="#E0E0E0"/>
  <ellipse cx="18.5" cy="4" rx="1.8" ry="1.2" fill="#E0E0E0"/>
  <!-- Blade Sharp Points -->
  <ellipse cx="12.5" cy="3.5" rx="0.8" ry="0.5" fill="#F0F0F0"/>
  <ellipse cx="19.5" cy="3.5" rx="0.8" ry="0.5" fill="#F0F0F0"/>
  
  <!-- FADING ENERGY around axe -->
  <ellipse cx="16" cy="4" rx="5" ry="3" fill="#DC143C" opacity="0.3"/>
  <ellipse cx="16" cy="4" rx="4.5" ry="2.7" fill="#FF4500" opacity="0.4"/>
  <ellipse cx="16" cy="4" rx="4" ry="2.5" fill="#FFD700" opacity="0.5"/>
  <ellipse cx="16" cy="4" rx="3.5" ry="2.2" fill="#FFFFFF" opacity="0.3"/>
  
  <!-- Berserker Tunic (settling after explosion) -->
  <ellipse cx="12" cy="15" rx="4" ry="2.8" fill="#8B4513"/>
  <ellipse cx="12" cy="13.5" rx="3.5" ry="2.3" fill="#CD853F"/>
  
  <!-- Muscular Arms (lowering from peak) -->
  <!-- Right arm (axe holding - lowering) -->
  <ellipse cx="13" cy="8" rx="1.6" ry="3.2" fill="#DEB887"/>
  <ellipse cx="14" cy="10" rx="1.3" ry="2.7" fill="#8B4513"/>
  
  <!-- Left arm (assisting) -->
  <ellipse cx="11" cy="8" rx="1.2" ry="2.5" fill="#DEB887"/>
  <ellipse cx="10" cy="10" rx="1" ry="2" fill="#8B4513"/>
  
  <!-- Hands (gripping axe, energy dissipating) -->
  <circle cx="15" cy="6" r="0.8" fill="#DEB887"/>
  <circle cx="15" cy="10" r="0.8" fill="#DEB887"/>
  <circle cx="9" cy="12" r="0.8" fill="#DEB887"/>
  
  <!-- Head (recovering from peak) -->
  <circle cx="12" cy="8.5" r="2.5" fill="#DEB887"/>
  
  <!-- Fading Glowing Eyes -->
  <circle cx="11" cy="8" r="0.4" fill="#FF0000" opacity="0.6"/>
  <circle cx="13" cy="8" r="0.4" fill="#FF0000" opacity="0.6"/>
  <circle cx="11" cy="8" r="0.6" fill="#FFFF00" opacity="0.4"/>
  <circle cx="13" cy="8" r="0.6" fill="#FFFF00" opacity="0.4"/>
  <circle cx="11" cy="8" r="0.8" fill="#FFD700" opacity="0.2"/>
  <circle cx="13" cy="8" r="0.8" fill="#FFD700" opacity="0.2"/>
  
  <!-- Focused Mouth -->
  <path d="M 10.5 9.5 Q 12 10 13.5 9.5" stroke="#000" stroke-width="0.5" fill="none"/>
  
  <!-- Wild Hair (energy dissipating) -->
  <ellipse cx="12" cy="6" rx="2.8" ry="1.3" fill="#2F1B14"/>
  <ellipse cx="11" cy="5" rx="0.8" ry="0.8" fill="#2F1B14"/>
  <ellipse cx="13" cy="5" rx="0.8" ry="0.8" fill="#2F1B14"/>
  
  <!-- Berserker Pants (distinct from tunic) -->
  <ellipse cx="12" cy="18" rx="3.2" ry="2.3" fill="#654321"/>
  <ellipse cx="12" cy="16.5" rx="2.8" ry="1.8" fill="#654321"/>
  
  <!-- Strong Boots (dark brown) -->
  <ellipse cx="10" cy="26" rx="1.5" ry="2" fill="#2F1B14"/>
  <ellipse cx="14" cy="26" rx="1.5" ry="2" fill="#2F1B14"/>
  
  <!-- Breathing effect (subtle) -->
  <ellipse cx="12" cy="13.5" rx="3.7" ry="2.6" fill="#CD853F" opacity="0.3"/>
</svg> 