<svg width="80" height="120" viewBox="0 0 80 120" xmlns="http://www.w3.org/2000/svg">
  <!-- Stone Golem Death Animation - Collapsing -->
  
  <!-- Base/Feet (Stone blocks - fallen and scattered) -->
  <rect x="16" y="114" width="16" height="6" fill="#5D4E37" stroke="#4A3B28" stroke-width="1" opacity="0.8"/>
  <rect x="48" y="116" width="16" height="4" fill="#5D4E37" stroke="#4A3B28" stroke-width="1" opacity="0.8"/>
  
  <!-- Fallen stone pieces -->
  <rect x="10" y="118" width="8" height="2" fill="#4A3B28" stroke="#3A2B18" stroke-width="1" opacity="0.7"/>
  <rect x="60" y="119" width="6" height="1" fill="#4A3B28" stroke="#3A2B18" stroke-width="1" opacity="0.7"/>
  
  <!-- Leg Joints (Dark stone - collapsed) -->
  <rect x="18" y="106" width="12" height="8" fill="#4A3B28" stroke="#3A2B18" stroke-width="1" opacity="0.7"/>
  <rect x="50" y="108" width="12" height="8" fill="#4A3B28" stroke="#3A2B18" stroke-width="1" opacity="0.7"/>
  
  <!-- Lower Legs (Large stone blocks - fallen over) -->
  <rect x="14" y="86" width="20" height="22" fill="#696969" stroke="#555555" stroke-width="1" opacity="0.8"/>
  <rect x="46" y="88" width="20" height="22" fill="#696969" stroke="#555555" stroke-width="1" opacity="0.8"/>
  
  <!-- Knee Joints (disconnected) -->
  <circle cx="24" cy="84" r="4" fill="#4A3B28" opacity="0.6"/>
  <circle cx="56" cy="86" r="4" fill="#4A3B28" opacity="0.6"/>
  
  <!-- Upper Legs/Hips (crumbling) -->
  <rect x="16" y="61" width="16" height="25" fill="#8B7355" stroke="#6B5535" stroke-width="1" opacity="0.7"/>
  <rect x="48" y="63" width="16" height="25" fill="#8B7355" stroke="#6B5535" stroke-width="1" opacity="0.7"/>
  
  <!-- Core/Torso (Main body - heavily damaged and tilting) -->
  <rect x="8" y="30" width="50" height="35" fill="#A9A9A9" stroke="#808080" stroke-width="2" opacity="0.6"/>
  
  <!-- Chest Detail (Central stone - shattered) -->
  <rect x="18" y="37" width="30" height="20" fill="#D3D3D3" stroke="#A9A9A9" stroke-width="1" opacity="0.5"/>
  
  <!-- Ancient Runes on Chest (fading/broken) -->
  <path d="M28 43 L30 47 L28 51" stroke="#8B4513" stroke-width="1.5" fill="none" opacity="0.3"/>
  <path d="M35 43 L37 45 L35 47 L37 49 L35 51" stroke="#8B4513" stroke-width="1.5" fill="none" opacity="0.3"/>
  <circle cx="41" cy="47" r="2" stroke="#8B4513" stroke-width="1.5" fill="none" opacity="0.3"/>
  
  <!-- Major structural cracks -->
  <path d="M13 35 Q18 37 23 35" stroke="#4A3B28" stroke-width="2" fill="none" opacity="0.9"/>
  <path d="M45 38 Q50 40 55 38" stroke="#4A3B28" stroke-width="2" fill="none" opacity="0.9"/>
  <path d="M20 50 Q25 52 30 50" stroke="#4A3B28" stroke-width="2" fill="none" opacity="0.9"/>
  <path d="M38 52 Q43 54 48 52" stroke="#4A3B28" stroke-width="2" fill="none" opacity="0.9"/>
  
  <!-- Shoulder Joints (fallen and detached) -->
  <circle cx="4" cy="45" r="6" fill="#696969" stroke="#555555" stroke-width="1" opacity="0.5"/>
  <circle cx="76" cy="47" r="6" fill="#696969" stroke="#555555" stroke-width="1" opacity="0.5"/>
  
  <!-- Arms (Collapsed to the ground) -->
  <rect x="-6" y="55" width="12" height="25" fill="#8B7355" stroke="#6B5535" stroke-width="1" opacity="0.6"/>
  <rect x="74" y="57" width="12" height="25" fill="#8B7355" stroke="#6B5535" stroke-width="1" opacity="0.6"/>
  
  <!-- Elbow Joints (disconnected) -->
  <circle cx="0" cy="82" r="3" fill="#4A3B28" opacity="0.5"/>
  <circle cx="80" cy="84" r="3" fill="#4A3B28" opacity="0.5"/>
  
  <!-- Forearms (Fallen separately) -->
  <rect x="-2" y="85" width="8" height="20" fill="#696969" stroke="#555555" stroke-width="1" opacity="0.6"/>
  <rect x="74" y="87" width="8" height="20" fill="#696969" stroke="#555555" stroke-width="1" opacity="0.6"/>
  
  <!-- Hands (Stone fists - crumbled) -->
  <circle cx="2" cy="107" r="5" fill="#8B7355" stroke="#6B5535" stroke-width="1" opacity="0.5"/>
  <circle cx="78" cy="109" r="5" fill="#8B7355" stroke="#6B5535" stroke-width="1" opacity="0.5"/>
  
  <!-- Head (Stone block - tilted and cracking) -->
  <rect x="20" y="15" width="30" height="25" fill="#C0C0C0" stroke="#A0A0A0" stroke-width="2" opacity="0.7"/>
  
  <!-- Face Features (Fading life) -->
  <!-- Eyes (Dimming completely) -->
  <rect x="27" y="23" width="4" height="4" fill="#FFD700" opacity="0.2"/>
  <rect x="39" y="23" width="4" height="4" fill="#FFD700" opacity="0.2"/>
  
  <!-- Eye glow effect (almost gone) -->
  <rect x="26" y="22" width="6" height="6" fill="#FFFF00" opacity="0.1"/>
  <rect x="38" y="22" width="6" height="6" fill="#FFFF00" opacity="0.1"/>
  
  <!-- Deep structural cracks on head -->
  <path d="M25 20 Q30 22 35 20" stroke="#4A3B28" stroke-width="1.5" fill="none" opacity="0.8"/>
  <path d="M35 25 Q40 27 45 25" stroke="#4A3B28" stroke-width="1.5" fill="none" opacity="0.8"/>
  
  <!-- Nose (Stone ridge - damaged) -->
  <rect x="33" y="29" width="4" height="6" fill="#A0A0A0" stroke="#808080" stroke-width="1" opacity="0.6"/>
  
  <!-- Mouth (Open, no sound) -->
  <ellipse cx="35" cy="35" rx="5" ry="2" fill="#2F2F2F" opacity="0.8"/>
  
  <!-- Head Runes (completely faded) -->
  <path d="M23 19 L25 21 L23 23" stroke="#8B4513" stroke-width="1" fill="none" opacity="0.2"/>
  <path d="M45 19 L47 21 L45 23" stroke="#8B4513" stroke-width="1" fill="none" opacity="0.2"/>
  
  <!-- Debris and rubble scattered around -->
  <circle cx="8" cy="70" r="2" fill="#696969" opacity="0.7"/>
  <circle cx="72" cy="72" r="2" fill="#696969" opacity="0.7"/>
  <circle cx="12" cy="95" r="1.5" fill="#8B7355" opacity="0.8"/>
  <circle cx="68" cy="97" r="1.5" fill="#8B7355" opacity="0.8"/>
  <circle cx="25" cy="115" r="1" fill="#4A3B28" opacity="0.6"/>
  <circle cx="55" cy="117" r="1" fill="#4A3B28" opacity="0.6"/>
  
  <!-- Small stone fragments -->
  <rect x="5" y="100" width="2" height="2" fill="#696969" opacity="0.6"/>
  <rect x="73" y="102" width="2" height="2" fill="#696969" opacity="0.6"/>
  <rect x="15" y="110" width="1" height="1" fill="#8B7355" opacity="0.7"/>
  <rect x="65" y="112" width="1" height="1" fill="#8B7355" opacity="0.7"/>
  
  <!-- Dissipating Energy (Last traces) -->
  <!-- Fading magical aura -->
  <circle cx="35" cy="65" r="20" fill="none" stroke="#FFD700" stroke-width="0.5" opacity="0.1"/>
  <circle cx="35" cy="65" r="25" fill="none" stroke="#FFFF00" stroke-width="0.3" opacity="0.05"/>
  
  <!-- Final energy wisps escaping upward -->
  <path d="M30 20 Q32 15 34 10" stroke="#FFD700" stroke-width="0.5" fill="none" opacity="0.3"/>
  <path d="M40 20 Q42 15 44 10" stroke="#FFD700" stroke-width="0.5" fill="none" opacity="0.3"/>
  <path d="M35 25 Q37 20 39 15" stroke="#FFFF00" stroke-width="0.3" fill="none" opacity="0.2"/>
  
  <!-- Dust settling -->
  <ellipse cx="35" cy="118" rx="30" ry="2" fill="#A0A0A0" opacity="0.3"/>
  <ellipse cx="40" cy="119" rx="25" ry="1" fill="#D3D3D3" opacity="0.2"/>
</svg> 