<svg width="80" height="120" viewBox="0 0 80 120" xmlns="http://www.w3.org/2000/svg">
  <!-- Stone Golem Hit Animation - Recoiling from impact -->
  
  <!-- Base/Feet (Stone blocks - staggering back) -->
  <rect x="18" y="110" width="16" height="10" fill="#5D4E37" stroke="#4A3B28" stroke-width="1"/>
  <rect x="46" y="112" width="16" height="8" fill="#5D4E37" stroke="#4A3B28" stroke-width="1"/>
  
  <!-- Leg Joints (Dark stone - unsteady) -->
  <rect x="20" y="102" width="12" height="10" fill="#4A3B28" stroke="#3A2B18" stroke-width="1"/>
  <rect x="48" y="104" width="12" height="10" fill="#4A3B28" stroke="#3A2B18" stroke-width="1"/>
  
  <!-- Lower Legs (Large stone blocks - off balance) -->
  <rect x="16" y="82" width="20" height="22" fill="#696969" stroke="#555555" stroke-width="1"/>
  <rect x="44" y="84" width="20" height="22" fill="#696969" stroke="#555555" stroke-width="1"/>
  
  <!-- Knee Joints (staggered) -->
  <circle cx="26" cy="80" r="4" fill="#4A3B28"/>
  <circle cx="54" cy="82" r="4" fill="#4A3B28"/>
  
  <!-- Upper Legs/Hips (recoiling) -->
  <rect x="18" y="57" width="16" height="25" fill="#8B7355" stroke="#6B5535" stroke-width="1"/>
  <rect x="46" y="59" width="16" height="25" fill="#8B7355" stroke="#6B5535" stroke-width="1"/>
  
  <!-- Core/Torso (Main body - leaning back from impact) -->
  <rect x="10" y="27" width="50" height="35" fill="#A9A9A9" stroke="#808080" stroke-width="2"/>
  
  <!-- Chest Detail (Central stone - cracked from impact) -->
  <rect x="20" y="34" width="30" height="20" fill="#D3D3D3" stroke="#A9A9A9" stroke-width="1"/>
  
  <!-- Ancient Runes on Chest (disrupted) -->
  <path d="M30 40 L32 44 L30 48" stroke="#8B4513" stroke-width="1.5" fill="none" opacity="0.7"/>
  <path d="M37 40 L39 42 L37 44 L39 46 L37 48" stroke="#8B4513" stroke-width="1.5" fill="none" opacity="0.7"/>
  <circle cx="43" cy="44" r="2" stroke="#8B4513" stroke-width="1.5" fill="none" opacity="0.7"/>
  
  <!-- Impact damage cracks -->
  <path d="M25 38 Q30 40 35 38" stroke="#FF0000" stroke-width="1" fill="none" opacity="0.8"/>
  <path d="M35 42 Q40 44 45 42" stroke="#FF0000" stroke-width="1" fill="none" opacity="0.8"/>
  <path d="M28 46 Q33 48 38 46" stroke="#FF0000" stroke-width="1" fill="none" opacity="0.8"/>
  
  <!-- Shoulder Joints (defensive position) -->
  <circle cx="7" cy="37" r="6" fill="#696969" stroke="#555555" stroke-width="1"/>
  <circle cx="73" cy="37" r="6" fill="#696969" stroke="#555555" stroke-width="1"/>
  
  <!-- Arms (Raised defensively from impact) -->
  <rect x="-3" y="30" width="12" height="25" fill="#8B7355" stroke="#6B5535" stroke-width="1"/>
  <rect x="71" y="30" width="12" height="25" fill="#8B7355" stroke="#6B5535" stroke-width="1"/>
  
  <!-- Elbow Joints (bent from recoil) -->
  <circle cx="3" cy="57" r="3" fill="#4A3B28"/>
  <circle cx="77" cy="57" r="3" fill="#4A3B28"/>
  
  <!-- Forearms (protecting from damage) -->
  <rect x="1" y="60" width="8" height="20" fill="#696969" stroke="#555555" stroke-width="1"/>
  <rect x="71" y="60" width="8" height="20" fill="#696969" stroke="#555555" stroke-width="1"/>
  
  <!-- Hands (Stone fists - defensive) -->
  <circle cx="5" cy="82" r="5" fill="#8B7355" stroke="#6B5535" stroke-width="1"/>
  <circle cx="75" cy="82" r="5" fill="#8B7355" stroke="#6B5535" stroke-width="1"/>
  
  <!-- Head (Stone block with pained expression - recoiling) -->
  <rect x="22" y="10" width="30" height="25" fill="#C0C0C0" stroke="#A0A0A0" stroke-width="2"/>
  
  <!-- Face Features (Pained expression) -->
  <!-- Eyes (Dimmed from pain) -->
  <rect x="29" y="18" width="4" height="4" fill="#FFD700" opacity="0.5"/>
  <rect x="41" y="18" width="4" height="4" fill="#FFD700" opacity="0.5"/>
  
  <!-- Eye glow effect (weakened) -->
  <rect x="28" y="17" width="6" height="6" fill="#FFFF00" opacity="0.2"/>
  <rect x="40" y="17" width="6" height="6" fill="#FFFF00" opacity="0.2"/>
  
  <!-- Pain lines around eyes -->
  <path d="M27 16 L29 18" stroke="#555555" stroke-width="0.5" fill="none"/>
  <path d="M35 16 L33 18" stroke="#555555" stroke-width="0.5" fill="none"/>
  <path d="M39 16 L41 18" stroke="#555555" stroke-width="0.5" fill="none"/>
  <path d="M47 16 L45 18" stroke="#555555" stroke-width="0.5" fill="none"/>
  
  <!-- Nose (Stone ridge) -->
  <rect x="35" y="24" width="4" height="6" fill="#A0A0A0" stroke="#808080" stroke-width="1"/>
  
  <!-- Mouth (Grimacing from pain) -->
  <path d="M32 30 Q37 32 42 30" stroke="#2F2F2F" stroke-width="2" fill="none"/>
  
  <!-- Head Runes (flickering) -->
  <path d="M25 14 L27 16 L25 18" stroke="#8B4513" stroke-width="1" fill="none" opacity="0.6"/>
  <path d="M47 14 L49 16 L47 18" stroke="#8B4513" stroke-width="1" fill="none" opacity="0.6"/>
  
  <!-- Impact Effects -->
  <!-- Impact burst on chest -->
  <circle cx="35" cy="44" r="8" fill="none" stroke="#FF0000" stroke-width="2" opacity="0.7"/>
  <circle cx="35" cy="44" r="12" fill="none" stroke="#FF4500" stroke-width="1.5" opacity="0.5"/>
  <circle cx="35" cy="44" r="16" fill="none" stroke="#FFD700" stroke-width="1" opacity="0.3"/>
  
  <!-- Impact sparks -->
  <path d="M27 40 L31 42 L29 44" stroke="#FF0000" stroke-width="1.5" fill="none"/>
  <path d="M43 40 L39 42 L41 44" stroke="#FF0000" stroke-width="1.5" fill="none"/>
  <path d="M31 36 L35 38 L33 40" stroke="#FF4500" stroke-width="1.5" fill="none"/>
  <path d="M39 36 L35 38 L37 40" stroke="#FF4500" stroke-width="1.5" fill="none"/>
  
  <!-- Scattered stone debris -->
  <circle cx="15" cy="50" r="1" fill="#696969" opacity="0.8"/>
  <circle cx="65" cy="52" r="1" fill="#696969" opacity="0.8"/>
  <circle cx="12" cy="45" r="0.5" fill="#8B7355" opacity="0.8"/>
  <circle cx="68" cy="47" r="0.5" fill="#8B7355" opacity="0.8"/>
  
  <!-- Stone Texture Details (Damage emphasized) -->
  <!-- New cracks from damage -->
  <path d="M15 47 Q20 49 25 47" stroke="#FF0000" stroke-width="0.8" fill="none" opacity="0.6"/>
  <path d="M55 50 Q60 52 65 50" stroke="#FF0000" stroke-width="0.8" fill="none" opacity="0.6"/>
  <path d="M20 87 Q25 89 30 87" stroke="#4A3B28" stroke-width="0.5" fill="none" opacity="0.7"/>
  <path d="M50 90 Q55 92 60 90" stroke="#4A3B28" stroke-width="0.5" fill="none" opacity="0.7"/>
  
  <!-- Disrupted energy field -->
  <circle cx="37" cy="60" r="25" fill="none" stroke="#FF0000" stroke-width="0.5" opacity="0.3"/>
  <circle cx="37" cy="60" r="30" fill="none" stroke="#FFD700" stroke-width="0.3" opacity="0.2"/>
</svg> 