<svg width="32" height="40" viewBox="0 0 32 40" xmlns="http://www.w3.org/2000/svg">
  <!-- Huntress Idle Frame 1 - Bounce up + breathing in -->
  
  <!-- Bow (held at side, bounce up position) -->
  <path d="M 8 11.5 Q 6 15.5 6 19.5 Q 6 23.5 8 27.5" stroke="#4A4A4A" stroke-width="1.5" fill="none"/>
  <line x1="8" y1="11.5" x2="8" y2="27.5" stroke="#8B4513" stroke-width="1"/>
  <circle cx="8" cy="19.5" r="1" fill="#228B22" opacity="0.6"/>
  
  <!-- Quiver on back (bounce up) -->
  <ellipse cx="22" cy="17.5" rx="2" ry="6" fill="#654321"/>
  <rect x="21" y="11.5" width="2" height="2" fill="#8B4513"/>
  <rect x="21" y="13.5" width="2" height="2" fill="#A0522D"/>
  <rect x="21" y="15.5" width="2" height="2" fill="#8B4513"/>
  
  <!-- Body - leather armor with nature details (bounce up + slight breathing in) -->
  <ellipse cx="16" cy="31.5" rx="7.2" ry="5.2" fill="#8B4513"/>
  <ellipse cx="16" cy="27.5" rx="5.2" ry="7.2" fill="#A0522D"/>
  <ellipse cx="16" cy="25.5" rx="4.2" ry="5.2" fill="#CD853F"/>
  
  <!-- Nature emblem on chest (bounce up) -->
  <circle cx="16" cy="25.5" r="1.5" fill="#228B22" opacity="0.7"/>
  <polygon points="16,24.5 15.5,26 16.5,26" fill="#90EE90"/>
  
  <!-- Arms - relaxed position (bounce up) -->
  <ellipse cx="11" cy="21.5" rx="1.5" ry="3" fill="#DEB887"/>
  <ellipse cx="21" cy="21.5" rx="1.5" ry="3" fill="#DEB887"/>
  
  <!-- Hands (bounce up) -->
  <circle cx="10" cy="24.5" r="1" fill="#DEB887"/>
  <circle cx="22" cy="24.5" r="1" fill="#DEB887"/>
  
  <!-- Head (bounce up) -->
  <circle cx="16" cy="15.5" r="3.5" fill="#DEB887"/>
  
  <!-- Hair - flowing ranger style (bounce up) -->
  <path d="M 12.5 13.5 Q 14 11.5 16 11.5 Q 18 11.5 19.5 13.5" fill="#654321"/>
  <ellipse cx="13" cy="15.5" rx="1" ry="3" fill="#654321"/>
  <ellipse cx="19" cy="15.5" rx="1" ry="3" fill="#654321"/>
  
  <!-- Face - alert expression (bounce up) -->
  <circle cx="14.5" cy="15" r="0.3" fill="#000"/>
  <circle cx="17.5" cy="15" r="0.3" fill="#000"/>
  <path d="M 15 17 Q 16 17.5 17 17" stroke="#000" stroke-width="0.3" fill="none"/>
  
  <!-- Hood/cap (bounce up) -->
  <path d="M 12.5 13.5 Q 16 9.5 19.5 13.5 Q 19 12.5 16 10.5 Q 13 12.5 12.5 13.5" fill="#2F4F2F"/>
  
  <!-- Leg armor/boots (bounce up) -->
  <ellipse cx="14" cy="36.5" rx="2" ry="2.5" fill="#654321"/>
  <ellipse cx="18" cy="36.5" rx="2" ry="2.5" fill="#654321"/>
  
  <!-- Nature magic aura (subtle) -->
  <circle cx="14" cy="14" r="0.5" fill="#90EE90" opacity="0.4"/>
  <circle cx="18" cy="18" r="0.3" fill="#90EE90" opacity="0.5"/>
  <circle cx="12" cy="20" r="0.4" fill="#90EE90" opacity="0.3"/>
</svg> 