<svg width="32" height="40" viewBox="0 0 32 40" xmlns="http://www.w3.org/2000/svg">
  <!-- Huntress Idle Frame 4 - Return to base position -->
  
  <!-- Bow (held at side, easily identifiable) -->
  <path d="M 8 12 Q 6 16 6 20 Q 6 24 8 28" stroke="#4A4A4A" stroke-width="1.5" fill="none"/>
  <line x1="8" y1="12" x2="8" y2="28" stroke="#8B4513" stroke-width="1"/>
  <circle cx="8" cy="20" r="1" fill="#228B22" opacity="0.6"/>
  
  <!-- Quiver on back -->
  <ellipse cx="22" cy="18" rx="2" ry="6" fill="#654321"/>
  <rect x="21" y="12" width="2" height="2" fill="#8B4513"/>
  <rect x="21" y="14" width="2" height="2" fill="#A0522D"/>
  <rect x="21" y="16" width="2" height="2" fill="#8B4513"/>
  
  <!-- Body - leather armor with nature details (returning to base) -->
  <ellipse cx="16" cy="32" rx="7.1" ry="5.05" fill="#8B4513"/>
  <ellipse cx="16" cy="28" rx="5.1" ry="7.1" fill="#A0522D"/>
  <ellipse cx="16" cy="26" rx="4.1" ry="5.1" fill="#CD853F"/>
  
  <!-- Nature emblem on chest -->
  <circle cx="16" cy="26" r="1.5" fill="#228B22" opacity="0.7"/>
  <polygon points="16,25 15.5,26.5 16.5,26.5" fill="#90EE90"/>
  
  <!-- Arms - relaxed position (returning to base) -->
  <ellipse cx="11" cy="22" rx="1.5" ry="3.05" fill="#DEB887"/>
  <ellipse cx="21" cy="22" rx="1.5" ry="3.05" fill="#DEB887"/>
  
  <!-- Hands -->
  <circle cx="10" cy="25" r="1" fill="#DEB887"/>
  <circle cx="22" cy="25" r="1" fill="#DEB887"/>
  
  <!-- Head -->
  <circle cx="16" cy="16" r="3.5" fill="#DEB887"/>
  
  <!-- Hair - flowing ranger style -->
  <path d="M 12.5 14 Q 14 12 16 12 Q 18 12 19.5 14" fill="#654321"/>
  <ellipse cx="13" cy="16" rx="1" ry="3" fill="#654321"/>
  <ellipse cx="19" cy="16" rx="1" ry="3" fill="#654321"/>
  
  <!-- Face - alert expression -->
  <circle cx="14.5" cy="15.5" r="0.3" fill="#000"/>
  <circle cx="17.5" cy="15.5" r="0.3" fill="#000"/>
  <path d="M 15 17.5 Q 16 18 17 17.5" stroke="#000" stroke-width="0.3" fill="none"/>
  
  <!-- Hood/cap -->
  <path d="M 12.5 14 Q 16 10 19.5 14 Q 19 13 16 11 Q 13 13 12.5 14" fill="#2F4F2F"/>
  
  <!-- Leg armor/boots -->
  <ellipse cx="14" cy="37" rx="2" ry="2.5" fill="#654321"/>
  <ellipse cx="18" cy="37" rx="2" ry="2.5" fill="#654321"/>
  
  <!-- Nature magic aura (subtle) -->
  <circle cx="14" cy="14" r="0.4" fill="#90EE90" opacity="0.4"/>
  <circle cx="18" cy="18" r="0.3" fill="#90EE90" opacity="0.4"/>
  <circle cx="12" cy="20" r="0.4" fill="#90EE90" opacity="0.3"/>
  <circle cx="20" cy="15" r="0.3" fill="#90EE90" opacity="0.3"/>
</svg> 