<svg width="32" height="40" viewBox="0 0 32 40" xmlns="http://www.w3.org/2000/svg">
  <!-- Huntress Special Frame 2 - Nature's Wrath Intensifying -->
  
  <!-- Bow - GREEN FLASH -->
  <path d="M 12 10 Q 10 14 10 18 Q 10 22 12 26" stroke="#00FF00" stroke-width="1.5" fill="none"/>
  <line x1="12" y1="10" x2="12" y2="26" stroke="#32CD32" stroke-width="1"/>
  <circle cx="12" cy="18" r="1.4" fill="#00FF00" opacity="1.0"/>
  
  <!-- BRIGHT GREEN FLASH - Nature's Wrath Burst -->
  <circle cx="16" cy="20" r="12" fill="#00FF00" opacity="0.7"/>
  <circle cx="16" cy="20" r="10" fill="#32CD32" opacity="0.8"/>
  <circle cx="16" cy="20" r="8" fill="#90EE90" opacity="0.9"/>
  <circle cx="16" cy="20" r="6" fill="#FFFFFF" opacity="0.6"/>
  
  <!-- Nature energy intensifying around bow (enhanced) -->
  <circle cx="12" cy="18" r="4" fill="#00FF00" opacity="0.8"/>
  <circle cx="12" cy="18" r="3" fill="#90EE90" opacity="1.0"/>
  <circle cx="11" cy="16" r="1.2" fill="#00FF00" opacity="1.0"/>
  <circle cx="13" cy="20" r="1.2" fill="#00FF00" opacity="1.0"/>
  <circle cx="10" cy="18" r="0.8" fill="#FFFFFF" opacity="0.8"/>
  
  <!-- Quiver - GREEN FLASH -->
  <ellipse cx="22" cy="18" rx="2" ry="6" fill="#228B22"/>
  <rect x="21" y="12" width="2" height="2" fill="#32CD32"/>
  <rect x="21" y="14" width="2" height="2" fill="#90EE90"/>
  <rect x="21" y="16" width="2" height="2" fill="#32CD32"/>
  
  <!-- Body - ENTIRE CHARACTER GREEN FLASH -->
  <ellipse cx="16" cy="32" rx="7" ry="5" fill="#228B22"/>
  <ellipse cx="16" cy="28" rx="5" ry="7" fill="#32CD32"/>
  <ellipse cx="16" cy="26" rx="4" ry="5" fill="#90EE90"/>
  
  <!-- Nature emblem on chest (BRIGHT GREEN FLASH) -->
  <circle cx="16" cy="26" r="1.5" fill="#00FF00" opacity="1.0"/>
  <polygon points="16,25 15.5,26.5 16.5,26.5" fill="#FFFFFF"/>
  <circle cx="16" cy="26" r="5" fill="#00FF00" opacity="0.7"/>
  <circle cx="16" cy="26" r="7" fill="#32CD32" opacity="0.5"/>
  <circle cx="16" cy="26" r="9" fill="#90EE90" opacity="0.3"/>
  
  <!-- Arms - GREEN FLASH -->
  <ellipse cx="14" cy="20" rx="1.5" ry="3" fill="#32CD32"/>
  <ellipse cx="18" cy="22" rx="1.5" ry="3" fill="#32CD32"/>
  
  <!-- Hands - GREEN FLASH -->
  <circle cx="13" cy="23" r="1" fill="#90EE90"/>
  <circle cx="19" cy="25" r="1" fill="#90EE90"/>
  
  <!-- Enhanced nature energy around hands -->
  <circle cx="13" cy="23" r="2" fill="#90EE90" opacity="0.5"/>
  <circle cx="19" cy="25" r="2" fill="#90EE90" opacity="0.5"/>
  <circle cx="13" cy="23" r="1" fill="#FFFF00" opacity="0.4"/>
  <circle cx="19" cy="25" r="1" fill="#FFFF00" opacity="0.4"/>
  
  <!-- Head - GREEN FLASH -->
  <circle cx="16" cy="16" r="3.5" fill="#90EE90"/>
  
  <!-- Hair - GREEN FLASH -->
  <path d="M 12.5 14 Q 14 12 16 12 Q 18 12 19.5 14" fill="#228B22"/>
  <ellipse cx="13" cy="16" rx="1" ry="3.2" fill="#228B22"/>
  <ellipse cx="19" cy="16" rx="1" ry="3.2" fill="#228B22"/>
  
  <!-- Face - intense concentration -->
  <circle cx="14.5" cy="15.5" r="0.3" fill="#000"/>
  <circle cx="17.5" cy="15.5" r="0.3" fill="#000"/>
  <path d="M 15 17.5 Q 16 17.8 17 17.5" stroke="#000" stroke-width="0.3" fill="none"/>
  
  <!-- Hood/cap - GREEN FLASH -->
  <path d="M 12.5 14 Q 16 10 19.5 14 Q 19 13 16 11 Q 13 13 12.5 14" fill="#228B22"/>
  
  <!-- Leg armor/boots - GREEN FLASH -->
  <ellipse cx="14" cy="37" rx="2" ry="2.5" fill="#228B22"/>
  <ellipse cx="18" cy="37" rx="2" ry="2.5" fill="#228B22"/>
  
  <!-- INTENSE nature magic flash effects -->
  <circle cx="14" cy="14" r="1.2" fill="#00FF00" opacity="0.9"/>
  <circle cx="18" cy="18" r="1.0" fill="#00FF00" opacity="1.0"/>
  <circle cx="12" cy="20" r="1.2" fill="#00FF00" opacity="0.8"/>
  <circle cx="20" cy="15" r="1.0" fill="#00FF00" opacity="0.9"/>
  <circle cx="16" cy="12" r="0.8" fill="#FFFFFF" opacity="0.7"/>
  
  <!-- Additional flash sparkles -->
  <circle cx="8" cy="16" r="0.6" fill="#00FF00" opacity="0.8"/>
  <circle cx="24" cy="22" r="0.7" fill="#00FF00" opacity="0.7"/>
  <circle cx="10" cy="28" r="0.5" fill="#32CD32" opacity="0.9"/>
  <circle cx="22" cy="14" r="0.6" fill="#FFFFFF" opacity="0.6"/>
  
  <!-- Growing vines (brighter) -->
  <path d="M 6 32 Q 8 30 10 32 Q 12 30 14 32" stroke="#00FF00" stroke-width="1.2" fill="none" opacity="0.8"/>
  <path d="M 18 32 Q 20 30 22 32 Q 24 30 26 32" stroke="#228B22" stroke-width="0.8" fill="none" opacity="0.6"/>
  <path d="M 8 28 Q 10 26 12 28" stroke="#228B22" stroke-width="0.6" fill="none" opacity="0.5"/>
  <path d="M 20 28 Q 22 26 24 28" stroke="#228B22" stroke-width="0.6" fill="none" opacity="0.5"/>
  
  <!-- Leaves appearing -->
  <ellipse cx="9" cy="30" rx="0.5" ry="1" fill="#228B22" opacity="0.6"/>
  <ellipse cx="23" cy="30" rx="0.5" ry="1" fill="#228B22" opacity="0.6"/>
</svg> 