<svg width="32" height="40" viewBox="0 0 32 40" xmlns="http://www.w3.org/2000/svg">
  <!-- Huntress Attack Frame 1 - Draw bow -->
  
  <!-- Bow (drawn back position) -->
  <path d="M 10 12 Q 8 16 8 20 Q 8 24 10 28" stroke="#4A4A4A" stroke-width="1.5" fill="none"/>
  <line x1="10" y1="12" x2="10" y2="28" stroke="#8B4513" stroke-width="1"/>
  <circle cx="10" cy="20" r="1.2" fill="#228B22" opacity="0.8"/>
  
  <!-- Bowstring (pulled back) -->
  <path d="M 10 13 Q 18 16 20 20 Q 18 24 10 27" stroke="#654321" stroke-width="0.8" fill="none"/>
  
  <!-- Arrow (nocked and ready) -->
  <line x1="10" y1="20" x2="19" y2="20" stroke="#8B4513" stroke-width="1"/>
  <polygon points="19,19.5 21,20 19,20.5" fill="#C0C0C0"/>
  <circle cx="11" cy="20" r="0.5" fill="#654321"/>
  
  <!-- Arrow energy trail (building) -->
  <circle cx="20" cy="20" r="0.4" fill="#90EE90" opacity="0.6"/>
  <circle cx="19" cy="19" r="0.3" fill="#90EE90" opacity="0.4"/>
  <circle cx="19" cy="21" r="0.3" fill="#90EE90" opacity="0.4"/>
  
  <!-- Quiver on back -->
  <ellipse cx="22" cy="18" rx="2" ry="6" fill="#654321"/>
  <rect x="21" y="12" width="2" height="1.5" fill="#8B4513"/>
  <rect x="21" y="14" width="2" height="1.5" fill="#A0522D"/>
  <rect x="21" y="16" width="2" height="1.5" fill="#8B4513"/>
  
  <!-- Body - leather armor (stance adjusted for draw) -->
  <ellipse cx="16" cy="32" rx="7" ry="5" fill="#8B4513"/>
  <ellipse cx="16" cy="28" rx="5" ry="7" fill="#A0522D"/>
  <ellipse cx="16" cy="26" rx="4" ry="5" fill="#CD853F"/>
  
  <!-- Nature emblem on chest (glowing) -->
  <circle cx="16" cy="26" r="1.5" fill="#228B22" opacity="0.9"/>
  <polygon points="16,25 15.5,26.5 16.5,26.5" fill="#90EE90"/>
  <circle cx="16" cy="26" r="2" fill="#90EE90" opacity="0.3"/>
  
  <!-- Arms - drawing bow -->
  <ellipse cx="12" cy="18" rx="1.5" ry="2.5" fill="#DEB887"/>
  <ellipse cx="19" cy="20" rx="1.5" ry="2.5" fill="#DEB887" transform="rotate(15 19 20)"/>
  
  <!-- Hands - bow grip and string pull -->
  <circle cx="11" cy="20" r="1" fill="#DEB887"/>
  <circle cx="20" cy="20" r="1" fill="#DEB887"/>
  
  <!-- Head (focused aim) -->
  <circle cx="16" cy="16" r="3.5" fill="#DEB887"/>
  
  <!-- Hair - flowing with tension -->
  <path d="M 12.5 14 Q 14 12 16 12 Q 18 12 19.5 14" fill="#654321"/>
  <ellipse cx="13" cy="16" rx="1" ry="3" fill="#654321"/>
  <ellipse cx="19" cy="16" rx="1" ry="3" fill="#654321"/>
  
  <!-- Face - intense concentration -->
  <circle cx="14.5" cy="15.5" r="0.3" fill="#000"/>
  <circle cx="17.5" cy="15.5" r="0.3" fill="#000"/>
  <path d="M 15 17.5 Q 16 17.8 17 17.5" stroke="#000" stroke-width="0.3" fill="none"/>
  
  <!-- Hood/cap -->
  <path d="M 12.5 14 Q 16 10 19.5 14 Q 19 13 16 11 Q 13 13 12.5 14" fill="#2F4F2F"/>
  
  <!-- Leg armor/boots - archer stance -->
  <ellipse cx="14" cy="37" rx="2" ry="2.5" fill="#654321"/>
  <ellipse cx="18" cy="37" rx="2" ry="2.5" fill="#654321"/>
  
  <!-- Nature magic aura (focusing energy) -->
  <circle cx="14" cy="14" r="0.5" fill="#90EE90" opacity="0.6"/>
  <circle cx="18" cy="18" r="0.4" fill="#90EE90" opacity="0.7"/>
  <circle cx="12" cy="22" r="0.5" fill="#90EE90" opacity="0.5"/>
  <circle cx="20" cy="15" r="0.4" fill="#90EE90" opacity="0.6"/>
  <circle cx="16" cy="12" r="0.3" fill="#90EE90" opacity="0.4"/>
</svg> 