<svg width="32" height="40" viewBox="0 0 32 40" xmlns="http://www.w3.org/2000/svg">
  <!-- Huntress Dodge Frame 1 - Preparation crouch -->
  
  <!-- Bow (held low, ready to dodge) -->
  <path d="M 9 16 Q 7 20 7 24 Q 7 28 9 32" stroke="#4A4A4A" stroke-width="1.5" fill="none"/>
  <line x1="9" y1="16" x2="9" y2="32" stroke="#8B4513" stroke-width="1"/>
  <circle cx="9" cy="24" r="1" fill="#228B22" opacity="0.6"/>
  
  <!-- Quiver on back (lowered) -->
  <ellipse cx="21" cy="22" rx="2" ry="5" fill="#654321"/>
  <rect x="20" y="18" width="2" height="2" fill="#8B4513"/>
  <rect x="20" y="20" width="2" height="2" fill="#A0522D"/>
  <rect x="20" y="22" width="2" height="2" fill="#8B4513"/>
  
  <!-- Body - crouched position -->
  <ellipse cx="16" cy="34" rx="6" ry="4" fill="#8B4513"/>
  <ellipse cx="16" cy="30" rx="4" ry="6" fill="#A0522D"/>
  <ellipse cx="16" cy="28" rx="3" ry="4" fill="#CD853F"/>
  
  <!-- Nature emblem on chest -->
  <circle cx="16" cy="28" r="1.5" fill="#228B22" opacity="0.7"/>
  <polygon points="16,27 15.5,28.5 16.5,28.5" fill="#90EE90"/>
  
  <!-- Arms - braced for dodge -->
  <ellipse cx="12" cy="26" rx="1.5" ry="2.5" fill="#DEB887"/>
  <ellipse cx="20" cy="26" rx="1.5" ry="2.5" fill="#DEB887"/>
  
  <!-- Hands -->
  <circle cx="11" cy="28" r="1" fill="#DEB887"/>
  <circle cx="21" cy="28" r="1" fill="#DEB887"/>
  
  <!-- Head (alert, looking ahead) -->
  <circle cx="16" cy="18" r="3" fill="#DEB887"/>
  <circle cx="15" cy="17" r="0.5" fill="#000000"/>
  <circle cx="17" cy="17" r="0.5" fill="#000000"/>
  <path d="M 15.5 18.5 Q 16 19 16.5 18.5" stroke="#000000" stroke-width="0.5" fill="none"/>
  
  <!-- Hair (flowing) -->
  <ellipse cx="14" cy="16" rx="2" ry="3" fill="#8B4513"/>
  <ellipse cx="18" cy="16" rx="2" ry="3" fill="#8B4513"/>
  <ellipse cx="16" cy="14" rx="3" ry="2" fill="#8B4513"/>
  
  <!-- Hood/cap detail -->
  <path d="M 12 15 Q 16 12 20 15" stroke="#654321" stroke-width="1.5" fill="none"/>
  <circle cx="16" cy="14" r="1" fill="#228B22" opacity="0.5"/>
  
  <!-- Leg armor (crouched) -->
  <ellipse cx="14" cy="36" rx="2" ry="3" fill="#A0522D"/>
  <ellipse cx="18" cy="36" rx="2" ry="3" fill="#A0522D"/>
  
  <!-- Boots -->
  <ellipse cx="14" cy="38" rx="2" ry="1.5" fill="#654321"/>
  <ellipse cx="18" cy="38" rx="2" ry="1.5" fill="#654321"/>
  
  <!-- Dodge preparation effect -->
  <circle cx="16" cy="28" r="8" fill="none" stroke="#228B22" stroke-width="0.5" opacity="0.3"/>
  <circle cx="16" cy="28" r="6" fill="none" stroke="#90EE90" stroke-width="0.3" opacity="0.5"/>
</svg> 