<svg width="32" height="40" viewBox="0 0 32 40" xmlns="http://www.w3.org/2000/svg">
  <!-- Huntress Ultimate Frame 4 - Forest's Vengeance Dissipating -->
  
  <!-- Bow - FADING GOLDEN DIVINE -->
  <path d="M 10 10 Q 8 14 8 18 Q 8 22 10 26" stroke="#FFA500" stroke-width="1.5" fill="none"/>
  <line x1="10" y1="10" x2="10" y2="26" stroke="#FFD700" stroke-width="1"/>
  <circle cx="10" cy="18" r="1.2" fill="#FFD700" opacity="0.9"/>
  
  <!-- Fading GOLDEN energy -->
  <circle cx="10" cy="18" r="3" fill="#FFD700" opacity="0.6"/>
  <circle cx="10" cy="18" r="2" fill="#FFFF00" opacity="0.5"/>
  
  <!-- Body - FADING GOLDEN DIVINE -->
  <ellipse cx="16" cy="32" rx="7" ry="5" fill="#8B4513"/>
  <ellipse cx="16" cy="28" rx="5" ry="7" fill="#A0522D"/>
  <ellipse cx="16" cy="26" rx="4" ry="5" fill="#CD853F"/>
  
  <!-- Nature emblem (fading) -->
  <circle cx="16" cy="26" r="1.5" fill="#228B22" opacity="0.8"/>
  <polygon points="16,25 15.5,26.5 16.5,26.5" fill="#90EE90"/>
  <circle cx="16" cy="26" r="3" fill="#90EE90" opacity="0.3"/>
  
  <!-- Arms -->
  <ellipse cx="12" cy="20" rx="1.5" ry="3" fill="#DEB887"/>
  <ellipse cx="20" cy="22" rx="1.5" ry="3" fill="#DEB887"/>
  
  <!-- Hands -->
  <circle cx="11" cy="23" r="1" fill="#DEB887"/>
  <circle cx="21" cy="25" r="1" fill="#DEB887"/>
  
  <!-- Fading energy -->
  <circle cx="11" cy="23" r="1.5" fill="#90EE90" opacity="0.3"/>
  <circle cx="21" cy="25" r="1.5" fill="#90EE90" opacity="0.3"/>
  
  <!-- Head -->
  <circle cx="16" cy="16" r="3.5" fill="#DEB887"/>
  
  <!-- Hair -->
  <path d="M 12.5 14 Q 14 12 16 12 Q 18 12 19.5 14" fill="#654321"/>
  <ellipse cx="13" cy="16" rx="1" ry="3.2" fill="#654321"/>
  <ellipse cx="19" cy="16" rx="1" ry="3.2" fill="#654321"/>
  
  <!-- Face -->
  <circle cx="14.5" cy="15.5" r="0.3" fill="#90EE90" opacity="0.3"/>
  <circle cx="17.5" cy="15.5" r="0.3" fill="#90EE90" opacity="0.3"/>
  <path d="M 15 17.5 Q 16 17.8 17 17.5" stroke="#000" stroke-width="0.3" fill="none"/>
  
  <!-- Hood/cap -->
  <path d="M 12.5 14 Q 16 10 19.5 14 Q 19 13 16 11 Q 13 13 12.5 14" fill="#2F4F2F"/>
  
  <!-- Leg armor/boots -->
  <ellipse cx="14" cy="37" rx="2" ry="2.5" fill="#654321"/>
  <ellipse cx="18" cy="37" rx="2" ry="2.5" fill="#654321"/>
  
  <!-- Fading forest effects -->
  <path d="M 8 35 Q 10 33 12 35 Q 14 33 16 35 Q 18 33 20 35 Q 22 33 24 35" stroke="#228B22" stroke-width="1" fill="none" opacity="0.5"/>
  <ellipse cx="9" cy="33" rx="0.4" ry="0.8" fill="#228B22" opacity="0.5"/>
  <ellipse cx="23" cy="33" rx="0.4" ry="0.8" fill="#228B22" opacity="0.5"/>
  
  <!-- Residual wisps -->
  <circle cx="8" cy="20" r="0.3" fill="#90EE90" opacity="0.3"/>
  <circle cx="24" cy="20" r="0.3" fill="#90EE90" opacity="0.3"/>
</svg> 