<svg width="32" height="40" viewBox="0 0 32 40" xmlns="http://www.w3.org/2000/svg">
  <!-- Huntress Attack Frame 3 - Release and follow-through -->
  
  <!-- Bow (released position) -->
  <path d="M 10 12 Q 8 16 8 20 Q 8 24 10 28" stroke="#4A4A4A" stroke-width="1.5" fill="none"/>
  <line x1="10" y1="12" x2="10" y2="28" stroke="#8B4513" stroke-width="1"/>
  <circle cx="10" cy="20" r="1" fill="#228B22" opacity="0.7"/>
  
  <!-- Bowstring (snapped forward) -->
  <path d="M 10 13 Q 12 16 12 20 Q 12 24 10 27" stroke="#654321" stroke-width="0.8" fill="none"/>
  
  <!-- Arrow trail (fired arrow path) -->
  <line x1="12" y1="20" x2="25" y2="19" stroke="#90EE90" stroke-width="1.5" opacity="0.8"/>
  <line x1="14" y1="20" x2="27" y2="19" stroke="#FFFF00" stroke-width="1" opacity="0.6"/>
  <line x1="16" y1="20" x2="29" y2="19" stroke="#FFFFFF" stroke-width="0.5" opacity="0.4"/>
  
  <!-- Energy burst from release -->
  <circle cx="12" cy="20" r="1.5" fill="#90EE90" opacity="0.6"/>
  <circle cx="11" cy="19" r="0.8" fill="#FFFF00" opacity="0.7"/>
  <circle cx="11" cy="21" r="0.8" fill="#FFFF00" opacity="0.7"/>
  <circle cx="13" cy="20" r="0.6" fill="#FFFFFF" opacity="0.5"/>
  
  <!-- Energy lines from release point -->
  <line x1="11" y1="18" x2="9" y2="16" stroke="#90EE90" stroke-width="0.5" opacity="0.5"/>
  <line x1="11" y1="22" x2="9" y2="24" stroke="#90EE90" stroke-width="0.5" opacity="0.5"/>
  <line x1="13" y1="19" x2="15" y2="17" stroke="#90EE90" stroke-width="0.5" opacity="0.5"/>
  <line x1="13" y1="21" x2="15" y2="23" stroke="#90EE90" stroke-width="0.5" opacity="0.5"/>
  
  <!-- Quiver on back (vibrating from release) -->
  <ellipse cx="22.2" cy="18.2" rx="2" ry="6" fill="#654321"/>
  <rect x="21.2" y="12.2" width="2" height="1.5" fill="#8B4513"/>
  <rect x="21.2" y="14.2" width="2" height="1.5" fill="#A0522D"/>
  <rect x="21.2" y="16.2" width="2" height="1.5" fill="#8B4513"/>
  
  <!-- Body - leather armor (follow-through stance) -->
  <ellipse cx="16" cy="32" rx="7" ry="5" fill="#8B4513"/>
  <ellipse cx="16" cy="28" rx="5" ry="7" fill="#A0522D"/>
  <ellipse cx="16" cy="26" rx="4" ry="5" fill="#CD853F"/>
  
  <!-- Nature emblem on chest (energy dispersing) -->
  <circle cx="16" cy="26" r="1.5" fill="#228B22" opacity="0.8"/>
  <polygon points="16,25 15.5,26.5 16.5,26.5" fill="#90EE90"/>
  <circle cx="16" cy="26" r="2" fill="#90EE90" opacity="0.3"/>
  
  <!-- Arms - follow-through position -->
  <ellipse cx="13" cy="19" rx="1.5" ry="2.5" fill="#DEB887"/>
  <ellipse cx="17" cy="18" rx="1.5" ry="2.5" fill="#DEB887" transform="rotate(-10 17 18)"/>
  
  <!-- Hands - post-release -->
  <circle cx="12" cy="21" r="1" fill="#DEB887"/>
  <circle cx="18" cy="17" r="1" fill="#DEB887"/>
  
  <!-- Head (focused tracking) -->
  <circle cx="16" cy="16" r="3.5" fill="#DEB887"/>
  
  <!-- Hair - flowing with release motion -->
  <path d="M 12.5 14 Q 14 12 16 12 Q 18 12 19.5 14" fill="#654321"/>
  <ellipse cx="13.2" cy="16" rx="1" ry="3.4" fill="#654321"/>
  <ellipse cx="18.8" cy="16" rx="1" ry="3.4" fill="#654321"/>
  
  <!-- Face - satisfaction and tracking -->
  <circle cx="14.5" cy="15.5" r="0.3" fill="#000"/>
  <circle cx="17.5" cy="15.5" r="0.3" fill="#000"/>
  <path d="M 15 17.5 Q 16 18.2 17 17.5" stroke="#000" stroke-width="0.3" fill="none"/>
  
  <!-- Hood/cap -->
  <path d="M 12.5 14 Q 16 10 19.5 14 Q 19 13 16 11 Q 13 13 12.5 14" fill="#2F4F2F"/>
  
  <!-- Leg armor/boots - stable stance -->
  <ellipse cx="14" cy="37" rx="2" ry="2.5" fill="#654321"/>
  <ellipse cx="18" cy="37" rx="2" ry="2.5" fill="#654321"/>
  
  <!-- Nature magic aura (dispersing energy) -->
  <circle cx="14" cy="14" r="0.4" fill="#90EE90" opacity="0.5"/>
  <circle cx="18" cy="18" r="0.3" fill="#90EE90" opacity="0.4"/>
  <circle cx="12" cy="22" r="0.4" fill="#90EE90" opacity="0.3"/>
  <circle cx="20" cy="15" r="0.3" fill="#90EE90" opacity="0.4"/>
  <circle cx="16" cy="12" r="0.3" fill="#90EE90" opacity="0.3"/>
  
  <!-- Residual energy wisps -->
  <circle cx="8" cy="18" r="0.3" fill="#90EE90" opacity="0.3"/>
  <circle cx="9" cy="22" r="0.2" fill="#90EE90" opacity="0.2"/>
  <circle cx="15" cy="17" r="0.2" fill="#90EE90" opacity="0.2"/>
</svg> 