<svg width="32" height="40" viewBox="0 0 32 40" xmlns="http://www.w3.org/2000/svg">
  <!-- Huntress Ultimate Frame 3 - FOREST'S VENGEANCE UNLEASHED -->
  
  <!-- Bow (BLAZING ultimate power) -->
  <path d="M 14 8 Q 12 12 12 16 Q 12 20 14 24" stroke="#4A4A4A" stroke-width="1.5" fill="none"/>
  <line x1="14" y1="8" x2="14" y2="24" stroke="#8B4513" stroke-width="1"/>
  <circle cx="14" cy="16" r="2" fill="#228B22" opacity="1.0"/>
  
  <!-- MASSIVE DIVINE GOLDEN EXPLOSION -->
  <circle cx="16" cy="18" r="12" fill="#FFD700" opacity="0.9"/>
  <circle cx="16" cy="18" r="10" fill="#FFA500" opacity="1.0"/>
  <circle cx="16" cy="18" r="8" fill="#FFFF00" opacity="1.0"/>
  <circle cx="16" cy="18" r="6" fill="#FFFFFF" opacity="0.8"/>
  
  <!-- MASSIVE DIVINE LIGHTNING in ALL directions -->
  <line x1="14" y1="16" x2="2" y2="4" stroke="#FFFF00" stroke-width="4" opacity="1.0"/>
  <line x1="14" y1="16" x2="26" y2="4" stroke="#FFD700" stroke-width="4" opacity="1.0"/>
  <line x1="14" y1="16" x2="2" y2="28" stroke="#FFA500" stroke-width="4" opacity="1.0"/>
  <line x1="14" y1="16" x2="26" y2="28" stroke="#FFFF00" stroke-width="4" opacity="1.0"/>
  <line x1="14" y1="16" x2="0" y2="16" stroke="#FFD700" stroke-width="4" opacity="1.0"/>
  <line x1="14" y1="16" x2="28" y2="16" stroke="#FFFF00" stroke-width="4" opacity="1.0"/>
  <line x1="14" y1="16" x2="14" y2="0" stroke="#FFFFFF" stroke-width="3" opacity="1.0"/>
  <line x1="14" y1="16" x2="14" y2="32" stroke="#FFA500" stroke-width="4" opacity="1.0"/>
  
  <!-- Body -->
  <ellipse cx="16" cy="32" rx="7" ry="5" fill="#8B4513"/>
  <ellipse cx="16" cy="28" rx="5" ry="7" fill="#A0522D"/>
  <ellipse cx="16" cy="26" rx="4" ry="5" fill="#CD853F"/>
  
  <!-- Divine emblem (EXPLOSIVE GOLDEN) -->
  <circle cx="16" cy="26" r="1.5" fill="#FFD700" opacity="1.0"/>
  <polygon points="16,25 15.5,26.5 16.5,26.5" fill="#FFFFFF"/>
  <circle cx="16" cy="26" r="6" fill="#FFD700" opacity="0.8"/>
  <circle cx="16" cy="26" r="8" fill="#FFA500" opacity="0.6"/>
  <circle cx="16" cy="26" r="10" fill="#FFFF00" opacity="0.4"/>
  <polygon points="16,25 15.5,26.5 16.5,26.5" fill="#90EE90"/>
  <circle cx="16" cy="26" r="6" fill="#90EE90" opacity="0.8"/>
  <circle cx="16" cy="26" r="9" fill="#90EE90" opacity="0.5"/>
  <circle cx="16" cy="26" r="12" fill="#90EE90" opacity="0.2"/>
  
  <!-- Arms -->
  <ellipse cx="16" cy="18" rx="1.5" ry="3" fill="#DEB887"/>
  <ellipse cx="16" cy="22" rx="1.5" ry="3" fill="#DEB887"/>
  
  <!-- Hands -->
  <circle cx="15" cy="21" r="1" fill="#DEB887"/>
  <circle cx="17" cy="15" r="1" fill="#DEB887"/>
  
  <!-- EXPLOSIVE ultimate energy -->
  <circle cx="15" cy="21" r="5" fill="#90EE90" opacity="0.9"/>
  <circle cx="17" cy="15" r="5" fill="#90EE90" opacity="0.9"/>
  <circle cx="15" cy="21" r="3" fill="#FFFF00" opacity="0.8"/>
  <circle cx="17" cy="15" r="3" fill="#FFFF00" opacity="0.8"/>
  <circle cx="15" cy="21" r="2" fill="#FFFFFF" opacity="0.7"/>
  <circle cx="17" cy="15" r="2" fill="#FFFFFF" opacity="0.7"/>
  
  <!-- Head -->
  <circle cx="16" cy="16" r="3.5" fill="#DEB887"/>
  
  <!-- Hair (flowing dramatically) -->
  <path d="M 12.5 14 Q 14 12 16 12 Q 18 12 19.5 14" fill="#654321"/>
  <ellipse cx="13" cy="16" rx="1" ry="4" fill="#654321"/>
  <ellipse cx="19" cy="16" rx="1" ry="4" fill="#654321"/>
  
  <!-- Face - EYES BLAZING -->
  <circle cx="14.5" cy="15.5" r="0.5" fill="#90EE90"/>
  <circle cx="17.5" cy="15.5" r="0.5" fill="#90EE90"/>
  <path d="M 15 17.5 Q 16 17.8 17 17.5" stroke="#000" stroke-width="0.3" fill="none"/>
  
  <!-- Hood/cap -->
  <path d="M 12.5 14 Q 16 10 19.5 14 Q 19 13 16 11 Q 13 13 12.5 14" fill="#2F4F2F"/>
  
  <!-- Leg armor/boots -->
  <ellipse cx="14" cy="37" rx="2" ry="2.5" fill="#654321"/>
  <ellipse cx="18" cy="37" rx="2" ry="2.5" fill="#654321"/>
  
  <!-- MAXIMUM nature effects everywhere -->
  <circle cx="4" cy="8" r="1" fill="#90EE90" opacity="1.0"/>
  <circle cx="28" cy="8" r="1" fill="#90EE90" opacity="1.0"/>
  <circle cx="4" cy="24" r="1" fill="#90EE90" opacity="1.0"/>
  <circle cx="28" cy="24" r="1" fill="#90EE90" opacity="1.0"/>
  <circle cx="2" cy="16" r="0.8" fill="#FFFF00" opacity="0.9"/>
  <circle cx="30" cy="16" r="0.8" fill="#FFFF00" opacity="0.9"/>
  
  <!-- EXPLOSIVE forest awakening -->
  <path d="M 0 38 Q 2 36 4 38 Q 6 36 8 38 Q 10 36 12 38 Q 14 36 16 38 Q 18 36 20 38 Q 22 36 24 38 Q 26 36 28 38 Q 30 36 32 38" stroke="#228B22" stroke-width="2" fill="none" opacity="1.0"/>
  <path d="M 2 24 Q 4 22 6 24 Q 8 22 10 24 Q 12 22 14 24 Q 16 22 18 24 Q 20 22 22 24 Q 24 22 26 24 Q 28 22 30 24" stroke="#228B22" stroke-width="1.8" fill="none" opacity="0.9"/>
  <path d="M 4 12 Q 6 10 8 12 Q 10 10 12 12 Q 14 10 16 12 Q 18 10 20 12 Q 22 10 24 12 Q 26 10 28 12" stroke="#228B22" stroke-width="1.5" fill="none" opacity="0.8"/>
  
  <!-- EXPLOSIVE leaves and flowers -->
  <ellipse cx="3" cy="36" rx="1" ry="2" fill="#228B22" opacity="1.0"/>
  <ellipse cx="29" cy="36" rx="1" ry="2" fill="#228B22" opacity="1.0"/>
  <ellipse cx="5" cy="22" rx="0.8" ry="1.6" fill="#228B22" opacity="0.9"/>
  <ellipse cx="27" cy="22" rx="0.8" ry="1.6" fill="#228B22" opacity="0.9"/>
  <circle cx="2" cy="32" r="0.6" fill="#FFFF00" opacity="1.0"/>
  <circle cx="30" cy="32" r="0.6" fill="#FFFF00" opacity="1.0"/>
  <circle cx="6" cy="18" r="0.5" fill="#FFFF00" opacity="0.8"/>
  <circle cx="26" cy="18" r="0.5" fill="#FFFF00" opacity="0.8"/>
</svg> 