<svg width="32" height="40" viewBox="0 0 32 40" xmlns="http://www.w3.org/2000/svg">
  <!-- Huntress Dodge Frame 3 - Recovery, straightening up -->
  
  <!-- Bow (returning to normal position) -->
  <path d="M 9 13 Q 7 17 7 21 Q 7 25 9 29" stroke="#4A4A4A" stroke-width="1.5" fill="none"/>
  <line x1="9" y1="13" x2="9" y2="29" stroke="#8B4513" stroke-width="1"/>
  <circle cx="9" cy="21" r="1" fill="#228B22" opacity="0.6"/>
  
  <!-- Quiver on back (returning to normal) -->
  <ellipse cx="22" cy="19" rx="2" ry="5" fill="#654321"/>
  <rect x="21" y="15" width="2" height="2" fill="#8B4513"/>
  <rect x="21" y="17" width="2" height="2" fill="#A0522D"/>
  <rect x="21" y="19" width="2" height="2" fill="#8B4513"/>
  
  <!-- Body - straightening up after dodge -->
  <ellipse cx="16" cy="32" rx="6.5" ry="4.5" fill="#8B4513"/>
  <ellipse cx="16" cy="28" rx="4.5" ry="6.5" fill="#A0522D"/>
  <ellipse cx="16" cy="26" rx="3.5" ry="4.5" fill="#CD853F"/>
  
  <!-- Nature emblem on chest -->
  <circle cx="16" cy="26" r="1.5" fill="#228B22" opacity="0.7"/>
  <polygon points="16,25 15.5,26.5 16.5,26.5" fill="#90EE90"/>
  
  <!-- Arms - regaining balance -->
  <ellipse cx="12" cy="24" rx="1.5" ry="2.5" fill="#DEB887"/>
  <ellipse cx="20" cy="24" rx="1.5" ry="2.5" fill="#DEB887"/>
  
  <!-- Hands -->
  <circle cx="11" cy="26" r="1" fill="#DEB887"/>
  <circle cx="21" cy="26" r="1" fill="#DEB887"/>
  
  <!-- Head (alert, checking surroundings) -->
  <circle cx="16" cy="16" r="3" fill="#DEB887"/>
  <circle cx="15" cy="15" r="0.5" fill="#000000"/>
  <circle cx="17" cy="15" r="0.5" fill="#000000"/>
  <path d="M 15.5 16.5 Q 16 17 16.5 16.5" stroke="#000000" stroke-width="0.5" fill="none"/>
  
  <!-- Hair (settling after movement) -->
  <ellipse cx="14" cy="14" rx="2" ry="3" fill="#8B4513"/>
  <ellipse cx="18" cy="14" rx="2" ry="3" fill="#8B4513"/>
  <ellipse cx="16" cy="12" rx="3" ry="2" fill="#8B4513"/>
  
  <!-- Hood/cap detail -->
  <path d="M 12 13 Q 16 10 20 13" stroke="#654321" stroke-width="1.5" fill="none"/>
  <circle cx="16" cy="12" r="1" fill="#228B22" opacity="0.5"/>
  
  <!-- Leg armor (stabilizing) -->
  <ellipse cx="14" cy="35" rx="2" ry="2.5" fill="#A0522D"/>
  <ellipse cx="18" cy="35" rx="2" ry="2.5" fill="#A0522D"/>
  
  <!-- Boots -->
  <ellipse cx="14" cy="37" rx="2" ry="1.5" fill="#654321"/>
  <ellipse cx="18" cy="37" rx="2" ry="1.5" fill="#654321"/>
  
  <!-- Recovery effects -->
  <circle cx="16" cy="26" r="6" fill="none" stroke="#228B22" stroke-width="0.5" opacity="0.3"/>
  <circle cx="16" cy="26" r="4" fill="none" stroke="#90EE90" stroke-width="0.3" opacity="0.5"/>
  <path d="M 12 26 Q 16 24 20 26" stroke="#228B22" stroke-width="0.5" opacity="0.4" fill="none"/>
</svg> 