<svg width="32" height="40" viewBox="0 0 32 40" xmlns="http://www.w3.org/2000/svg">
  <!-- Huntress Special Frame 1 - Nature's Wrath Buildup -->
  
  <!-- Bow - GREEN FLASH -->
  <path d="M 12 10 Q 10 14 10 18 Q 10 22 12 26" stroke="#00FF00" stroke-width="1.5" fill="none"/>
  <line x1="12" y1="10" x2="12" y2="26" stroke="#32CD32" stroke-width="1"/>
  <circle cx="12" cy="18" r="1.2" fill="#00FF00" opacity="1.0"/>
  
  <!-- BRIGHT GREEN FLASH - Nature energy gathering -->
  <circle cx="12" cy="18" r="3" fill="#00FF00" opacity="0.6"/>
  <circle cx="12" cy="18" r="2" fill="#32CD32" opacity="0.8"/>
  <circle cx="11" cy="16" r="0.8" fill="#00FF00" opacity="0.8"/>
  <circle cx="13" cy="20" r="0.8" fill="#00FF00" opacity="0.8"/>
  
  <!-- Quiver - GREEN FLASH -->
  <ellipse cx="22" cy="18" rx="2" ry="6" fill="#228B22"/>
  <rect x="21" y="12" width="2" height="2" fill="#32CD32"/>
  <rect x="21" y="14" width="2" height="2" fill="#90EE90"/>
  <rect x="21" y="16" width="2" height="2" fill="#32CD32"/>
  
  <!-- Body - ENTIRE CHARACTER GREEN FLASH -->
  <ellipse cx="16" cy="32" rx="7" ry="5" fill="#228B22"/>
  <ellipse cx="16" cy="28" rx="5" ry="7" fill="#32CD32"/>
  <ellipse cx="16" cy="26" rx="4" ry="5" fill="#90EE90"/>
  
  <!-- Nature emblem on chest (GREEN FLASH beginning) -->
  <circle cx="16" cy="26" r="1.5" fill="#00FF00" opacity="0.9"/>
  <polygon points="16,25 15.5,26.5 16.5,26.5" fill="#32CD32"/>
  <circle cx="16" cy="26" r="3.5" fill="#00FF00" opacity="0.5"/>
  <circle cx="16" cy="26" r="5" fill="#32CD32" opacity="0.3"/>
  
  <!-- Arms - GREEN FLASH -->
  <ellipse cx="14" cy="20" rx="1.5" ry="3" fill="#32CD32"/>
  <ellipse cx="18" cy="22" rx="1.5" ry="3" fill="#32CD32"/>
  
  <!-- Hands - GREEN FLASH -->
  <circle cx="13" cy="23" r="1" fill="#90EE90"/>
  <circle cx="19" cy="25" r="1" fill="#90EE90"/>
  
  <!-- Nature energy around hands -->
  <circle cx="13" cy="23" r="1.5" fill="#90EE90" opacity="0.3"/>
  <circle cx="19" cy="25" r="1.5" fill="#90EE90" opacity="0.3"/>
  
  <!-- Head - GREEN FLASH -->
  <circle cx="16" cy="16" r="3.5" fill="#90EE90"/>
  
  <!-- Hair - GREEN FLASH -->
  <path d="M 12.5 14 Q 14 12 16 12 Q 18 12 19.5 14" fill="#228B22"/>
  <ellipse cx="13" cy="16" rx="1" ry="3" fill="#228B22"/>
  <ellipse cx="19" cy="16" rx="1" ry="3" fill="#228B22"/>
  
  <!-- Face - concentrating -->
  <circle cx="14.5" cy="15.5" r="0.3" fill="#000"/>
  <circle cx="17.5" cy="15.5" r="0.3" fill="#000"/>
  <path d="M 15 17.5 Q 16 18 17 17.5" stroke="#000" stroke-width="0.3" fill="none"/>
  
  <!-- Hood/cap - GREEN FLASH -->
  <path d="M 12.5 14 Q 16 10 19.5 14 Q 19 13 16 11 Q 13 13 12.5 14" fill="#228B22"/>
  
  <!-- Leg armor/boots - GREEN FLASH -->
  <ellipse cx="14" cy="37" rx="2" ry="2.5" fill="#228B22"/>
  <ellipse cx="18" cy="37" rx="2" ry="2.5" fill="#228B22"/>
  
  <!-- Initial nature magic effects -->
  <circle cx="14" cy="14" r="0.4" fill="#90EE90" opacity="0.5"/>
  <circle cx="18" cy="18" r="0.3" fill="#90EE90" opacity="0.6"/>
  <circle cx="12" cy="20" r="0.4" fill="#90EE90" opacity="0.4"/>
  <circle cx="20" cy="15" r="0.3" fill="#90EE90" opacity="0.5"/>
  
  <!-- Small vines beginning to appear -->
  <path d="M 8 30 Q 10 28 12 30" stroke="#228B22" stroke-width="0.5" fill="none" opacity="0.4"/>
  <path d="M 20 30 Q 22 28 24 30" stroke="#228B22" stroke-width="0.5" fill="none" opacity="0.4"/>
</svg> 