<svg width="32" height="40" viewBox="0 0 32 40" xmlns="http://www.w3.org/2000/svg">
  <!-- Huntress Ultimate Frame 2 - Forest's Vengeance Intensifying -->
  
  <!-- Bow (blazing with ultimate power) -->
  <path d="M 14 8 Q 12 12 12 16 Q 12 20 14 24" stroke="#4A4A4A" stroke-width="1.5" fill="none"/>
  <line x1="14" y1="8" x2="14" y2="24" stroke="#8B4513" stroke-width="1"/>
  <circle cx="14" cy="16" r="1.5" fill="#228B22" opacity="1.0"/>
  
  <!-- DIVINE GOLDEN STORM - Forest's Ancient Vengeance -->
  <circle cx="16" cy="18" r="10" fill="#FFD700" opacity="0.8"/>
  <circle cx="16" cy="18" r="8" fill="#FFA500" opacity="0.9"/>
  <circle cx="16" cy="18" r="6" fill="#FFFF00" opacity="1.0"/>
  <circle cx="16" cy="18" r="4" fill="#FFFFFF" opacity="0.8"/>
  
  <!-- Ancient rune circle -->
  <circle cx="16" cy="18" r="7" stroke="#FFD700" stroke-width="1" fill="none" opacity="0.9"/>
  <circle cx="16" cy="18" r="5" stroke="#FFA500" stroke-width="0.8" fill="none" opacity="1.0"/>
  
  <!-- LIGHTNING BEAMS - Divine wrath -->
  <line x1="14" y1="16" x2="4" y2="6" stroke="#FFFF00" stroke-width="3" opacity="0.9"/>
  <line x1="14" y1="16" x2="24" y2="6" stroke="#FFD700" stroke-width="3" opacity="0.9"/>
  <line x1="14" y1="16" x2="2" y2="26" stroke="#FFFFFF" stroke-width="2.5" opacity="0.8"/>
  <line x1="14" y1="16" x2="26" y2="26" stroke="#FFA500" stroke-width="3" opacity="0.9"/>
  <line x1="14" y1="16" x2="14" y2="2" stroke="#FFFF00" stroke-width="2" opacity="0.8"/>
  <line x1="14" y1="16" x2="14" y2="38" stroke="#FFD700" stroke-width="2" opacity="0.8"/>
  
  <!-- Quiver (glowing intensely) -->
  <ellipse cx="22" cy="18" rx="2" ry="6" fill="#654321"/>
  <rect x="21" y="12" width="2" height="2" fill="#8B4513"/>
  <rect x="21" y="14" width="2" height="2" fill="#A0522D"/>
  <rect x="21" y="16" width="2" height="2" fill="#8B4513"/>
  <circle cx="22" cy="18" r="2.5" fill="#90EE90" opacity="0.6"/>
  
  <!-- Body -->
  <ellipse cx="16" cy="32" rx="7" ry="5" fill="#8B4513"/>
  <ellipse cx="16" cy="28" rx="5" ry="7" fill="#A0522D"/>
  <ellipse cx="16" cy="26" rx="4" ry="5" fill="#CD853F"/>
  
  <!-- Divine emblem (golden radiance) -->
  <circle cx="16" cy="26" r="1.5" fill="#FFD700" opacity="1.0"/>
  <polygon points="16,25 15.5,26.5 16.5,26.5" fill="#FFFFFF"/>
  <circle cx="16" cy="26" r="6" fill="#FFD700" opacity="0.7"/>
  <circle cx="16" cy="26" r="8" fill="#FFA500" opacity="0.5"/>
  <circle cx="16" cy="26" r="10" fill="#FFFF00" opacity="0.3"/>
  
  <!-- Arms -->
  <ellipse cx="16" cy="18" rx="1.5" ry="3" fill="#DEB887"/>
  <ellipse cx="16" cy="22" rx="1.5" ry="3" fill="#DEB887"/>
  
  <!-- Hands -->
  <circle cx="15" cy="21" r="1" fill="#DEB887"/>
  <circle cx="17" cy="15" r="1" fill="#DEB887"/>
  
  <!-- DIVINE golden energy around hands -->
  <circle cx="15" cy="21" r="3" fill="#FFD700" opacity="0.8"/>
  <circle cx="17" cy="15" r="3" fill="#FFFF00" opacity="0.9"/>
  <circle cx="15" cy="21" r="1.5" fill="#FFFFFF" opacity="0.7"/>
  <circle cx="17" cy="15" r="1.5" fill="#FFFFFF" opacity="0.7"/>
  <circle cx="15" cy="21" r="2" fill="#FFFF00" opacity="0.6"/>
  <circle cx="17" cy="15" r="2" fill="#FFFF00" opacity="0.6"/>
  
  <!-- Head -->
  <circle cx="16" cy="16" r="3.5" fill="#DEB887"/>
  
  <!-- Hair -->
  <path d="M 12.5 14 Q 14 12 16 12 Q 18 12 19.5 14" fill="#654321"/>
  <ellipse cx="13" cy="16" rx="1" ry="3.5" fill="#654321"/>
  <ellipse cx="19" cy="16" rx="1" ry="3.5" fill="#654321"/>
  
  <!-- Face -->
  <circle cx="14.5" cy="15.5" r="0.3" fill="#000"/>
  <circle cx="17.5" cy="15.5" r="0.3" fill="#000"/>
  <path d="M 15 17.5 Q 16 17.8 17 17.5" stroke="#000" stroke-width="0.3" fill="none"/>
  
  <!-- Hood/cap -->
  <path d="M 12.5 14 Q 16 10 19.5 14 Q 19 13 16 11 Q 13 13 12.5 14" fill="#2F4F2F"/>
  
  <!-- Leg armor/boots -->
  <ellipse cx="14" cy="37" rx="2" ry="2.5" fill="#654321"/>
  <ellipse cx="18" cy="37" rx="2" ry="2.5" fill="#654321"/>
  
  <!-- DIVINE SPARKLES - Ancient power awakening -->
  <circle cx="14" cy="14" r="1.0" fill="#FFD700" opacity="1.0"/>
  <circle cx="18" cy="18" r="0.9" fill="#FFFF00" opacity="1.0"/>
  <circle cx="12" cy="20" r="1.0" fill="#FFA500" opacity="0.9"/>
  <circle cx="20" cy="15" r="0.9" fill="#FFD700" opacity="1.0"/>
  <circle cx="16" cy="12" r="0.8" fill="#FFFFFF" opacity="0.9"/>
  <circle cx="10" cy="18" r="0.7" fill="#FFFF00" opacity="0.8"/>
  <circle cx="22" cy="22" r="0.7" fill="#FFA500" opacity="0.8"/>
  
  <!-- Divine energy lines -->
  <line x1="4" y1="36" x2="12" y2="36" stroke="#FFD700" stroke-width="2" opacity="0.9"/>
  <line x1="16" y1="36" x2="28" y2="36" stroke="#FFFF00" stroke-width="2" opacity="0.9"/>
  <line x1="6" y1="28" x2="14" y2="28" stroke="#FFA500" stroke-width="1.5" opacity="0.8"/>
  <line x1="18" y1="28" x2="26" y2="28" stroke="#FFD700" stroke-width="1.5" opacity="0.8"/>
  
  <!-- Lightning crackle effects -->
  <path d="M 8 32 L 10 30 L 9 32 L 11 29" stroke="#FFFFFF" stroke-width="1" fill="none" opacity="0.9"/>
  <path d="M 20 32 L 22 30 L 21 32 L 23 29" stroke="#FFFF00" stroke-width="1" fill="none" opacity="0.9"/>
  
  <!-- More leaves and spirits -->
  <ellipse cx="7" cy="34" rx="0.6" ry="1.2" fill="#228B22" opacity="0.7"/>
  <ellipse cx="25" cy="34" rx="0.6" ry="1.2" fill="#228B22" opacity="0.7"/>
  <circle cx="5" cy="30" r="0.4" fill="#90EE90" opacity="0.6"/>
  <circle cx="27" cy="30" r="0.4" fill="#90EE90" opacity="0.6"/>
  <circle cx="9" cy="26" r="0.3" fill="#FFFF00" opacity="0.5"/>
  <circle cx="23" cy="26" r="0.3" fill="#FFFF00" opacity="0.5"/>
</svg> 