<svg width="32" height="40" viewBox="0 0 32 40" xmlns="http://www.w3.org/2000/svg">
  <!-- Huntress Ultimate Frame 1 - Forest's Vengeance Begins -->
  
  <!-- Bow (raised high for ultimate channeling) -->
  <path d="M 14 8 Q 12 12 12 16 Q 12 20 14 24" stroke="#4A4A4A" stroke-width="1.5" fill="none"/>
  <line x1="14" y1="8" x2="14" y2="24" stroke="#8B4513" stroke-width="1"/>
  <circle cx="14" cy="16" r="1.3" fill="#228B22" opacity="0.9"/>
  
  <!-- DIVINE GOLDEN STORM gathering -->
  <circle cx="16" cy="18" r="8" fill="#FFD700" opacity="0.6"/>
  <circle cx="16" cy="18" r="6" fill="#FFA500" opacity="0.7"/>
  <circle cx="16" cy="18" r="4" fill="#FFFF00" opacity="0.8"/>
  <circle cx="14" cy="16" r="1" fill="#FFFFFF" opacity="0.6"/>
  
  <!-- Quiver on back (beginning to glow) -->
  <ellipse cx="22" cy="18" rx="2" ry="6" fill="#654321"/>
  <rect x="21" y="12" width="2" height="2" fill="#8B4513"/>
  <rect x="21" y="14" width="2" height="2" fill="#A0522D"/>
  <rect x="21" y="16" width="2" height="2" fill="#8B4513"/>
  <circle cx="22" cy="18" r="1.5" fill="#90EE90" opacity="0.3"/>
  
  <!-- Body - leather armor with growing ultimate energy -->
  <ellipse cx="16" cy="32" rx="7" ry="5" fill="#8B4513"/>
  <ellipse cx="16" cy="28" rx="5" ry="7" fill="#A0522D"/>
  <ellipse cx="16" cy="26" rx="4" ry="5" fill="#CD853F"/>
  
  <!-- Divine emblem on chest (beginning golden glow) -->
  <circle cx="16" cy="26" r="1.5" fill="#FFD700" opacity="0.9"/>
  <polygon points="16,25 15.5,26.5 16.5,26.5" fill="#FFA500"/>
  <circle cx="16" cy="26" r="4" fill="#FFD700" opacity="0.5"/>
  <circle cx="16" cy="26" r="6" fill="#FFA500" opacity="0.3"/>
  <circle cx="16" cy="26" r="8" fill="#FFFF00" opacity="0.2"/>
  
  <!-- Arms - channeling ultimate power -->
  <ellipse cx="16" cy="18" rx="1.5" ry="3" fill="#DEB887"/>
  <ellipse cx="16" cy="22" rx="1.5" ry="3" fill="#DEB887"/>
  
  <!-- Hands - ultimate energy building -->
  <circle cx="15" cy="21" r="1" fill="#DEB887"/>
  <circle cx="17" cy="15" r="1" fill="#DEB887"/>
  
  <!-- Ultimate nature energy around hands -->
  <circle cx="15" cy="21" r="2" fill="#90EE90" opacity="0.4"/>
  <circle cx="17" cy="15" r="2" fill="#90EE90" opacity="0.4"/>
  <circle cx="15" cy="21" r="1.3" fill="#FFFF00" opacity="0.3"/>
  <circle cx="17" cy="15" r="1.3" fill="#FFFF00" opacity="0.3"/>
  
  <!-- Head (intense concentration) -->
  <circle cx="16" cy="16" r="3.5" fill="#DEB887"/>
  
  <!-- Hair - beginning to flow with ultimate power -->
  <path d="M 12.5 14 Q 14 12 16 12 Q 18 12 19.5 14" fill="#654321"/>
  <ellipse cx="13" cy="16" rx="1" ry="3.2" fill="#654321"/>
  <ellipse cx="19" cy="16" rx="1" ry="3.2" fill="#654321"/>
  
  <!-- Face - deep concentration -->
  <circle cx="14.5" cy="15.5" r="0.3" fill="#000"/>
  <circle cx="17.5" cy="15.5" r="0.3" fill="#000"/>
  <path d="M 15 17.5 Q 16 17.8 17 17.5" stroke="#000" stroke-width="0.3" fill="none"/>
  
  <!-- Hood/cap -->
  <path d="M 12.5 14 Q 16 10 19.5 14 Q 19 13 16 11 Q 13 13 12.5 14" fill="#2F4F2F"/>
  
  <!-- Leg armor/boots -->
  <ellipse cx="14" cy="37" rx="2" ry="2.5" fill="#654321"/>
  <ellipse cx="18" cy="37" rx="2" ry="2.5" fill="#654321"/>
  
  <!-- Initial ultimate nature magic effects -->
  <circle cx="14" cy="14" r="0.5" fill="#90EE90" opacity="0.6"/>
  <circle cx="18" cy="18" r="0.4" fill="#90EE90" opacity="0.7"/>
  <circle cx="12" cy="20" r="0.5" fill="#90EE90" opacity="0.5"/>
  <circle cx="20" cy="15" r="0.4" fill="#90EE90" opacity="0.6"/>
  <circle cx="16" cy="12" r="0.3" fill="#90EE90" opacity="0.5"/>
  <circle cx="10" cy="18" r="0.3" fill="#90EE90" opacity="0.4"/>
  <circle cx="22" cy="22" r="0.3" fill="#90EE90" opacity="0.4"/>
  
  <!-- Beginning forest awakening -->
  <path d="M 6 35 Q 8 33 10 35 Q 12 33 14 35" stroke="#228B22" stroke-width="0.8" fill="none" opacity="0.5"/>
  <path d="M 18 35 Q 20 33 22 35 Q 24 33 26 35" stroke="#228B22" stroke-width="0.8" fill="none" opacity="0.5"/>
  <path d="M 8 30 Q 10 28 12 30" stroke="#228B22" stroke-width="0.6" fill="none" opacity="0.4"/>
  <path d="M 20 30 Q 22 28 24 30" stroke="#228B22" stroke-width="0.6" fill="none" opacity="0.4"/>
  
  <!-- Initial leaves and nature spirits -->
  <ellipse cx="9" cy="33" rx="0.4" ry="0.8" fill="#228B22" opacity="0.5"/>
  <ellipse cx="23" cy="33" rx="0.4" ry="0.8" fill="#228B22" opacity="0.5"/>
  <circle cx="7" cy="29" r="0.3" fill="#90EE90" opacity="0.4"/>
  <circle cx="25" cy="29" r="0.3" fill="#90EE90" opacity="0.4"/>
</svg> 