<svg width="32" height="40" viewBox="0 0 32 40" xmlns="http://www.w3.org/2000/svg">
  <!-- Huntress Death - Fallen state -->
  
  <!-- Bow (dropped, lying on ground) -->
  <path d="M 8 35 Q 6 36 6 37 Q 6 38 8 39" stroke="#4A4A4A" stroke-width="1.5" fill="none"/>
  <line x1="8" y1="35" x2="8" y2="39" stroke="#8B4513" stroke-width="1"/>
  <circle cx="8" cy="37" r="1" fill="#228B22" opacity="0.4"/>
  
  <!-- Quiver (fallen off, scattered arrows) -->
  <ellipse cx="24" cy="36" rx="1.5" ry="3" fill="#654321" transform="rotate(45 24 36)"/>
  <rect x="22" y="34" width="1" height="4" fill="#8B4513" transform="rotate(30 22 34)"/>
  <rect x="25" y="35" width="1" height="4" fill="#A0522D" transform="rotate(60 25 35)"/>
  <rect x="26" y="37" width="1" height="4" fill="#8B4513" transform="rotate(90 26 37)"/>
  
  <!-- Body - lying down, defeated -->
  <ellipse cx="16" cy="36" rx="8" ry="3" fill="#8B4513"/>
  <ellipse cx="16" cy="34" rx="6" ry="4" fill="#A0522D"/>
  <ellipse cx="16" cy="32" rx="4" ry="3" fill="#CD853F"/>
  
  <!-- Nature emblem on chest (fading) -->
  <circle cx="16" cy="32" r="1.5" fill="#228B22" opacity="0.3"/>
  <polygon points="16,31 15.5,32.5 16.5,32.5" fill="#90EE90" opacity="0.3"/>
  
  <!-- Arms - fallen to sides -->
  <ellipse cx="10" cy="34" rx="2" ry="1.5" fill="#DEB887" transform="rotate(-30 10 34)"/>
  <ellipse cx="22" cy="34" rx="2" ry="1.5" fill="#DEB887" transform="rotate(30 22 34)"/>
  
  <!-- Hands -->
  <circle cx="8" cy="36" r="1" fill="#DEB887"/>
  <circle cx="24" cy="36" r="1" fill="#DEB887"/>
  
  <!-- Head (turned to side, eyes closed) -->
  <circle cx="16" cy="26" r="3" fill="#DEB887"/>
  <path d="M 14.5 25.5 Q 15 25 15.5 25.5" stroke="#000000" stroke-width="0.5" fill="none"/>
  <path d="M 16.5 25.5 Q 17 25 17.5 25.5" stroke="#000000" stroke-width="0.5" fill="none"/>
  <path d="M 15.5 26.5 Q 16 26 16.5 26.5" stroke="#000000" stroke-width="0.5" fill="none"/>
  
  <!-- Hair (spread out) -->
  <ellipse cx="12" cy="24" rx="3" ry="2" fill="#8B4513"/>
  <ellipse cx="20" cy="24" rx="3" ry="2" fill="#8B4513"/>
  <ellipse cx="16" cy="22" rx="4" ry="2" fill="#8B4513"/>
  
  <!-- Hood/cap detail (disheveled) -->
  <path d="M 10 23 Q 16 20 22 23" stroke="#654321" stroke-width="1.5" fill="none"/>
  <circle cx="16" cy="22" r="1" fill="#228B22" opacity="0.3"/>
  
  <!-- Leg armor (collapsed) -->
  <ellipse cx="14" cy="38" rx="2.5" ry="2" fill="#A0522D"/>
  <ellipse cx="18" cy="38" rx="2.5" ry="2" fill="#A0522D"/>
  
  <!-- Boots -->
  <ellipse cx="14" cy="39" rx="2" ry="1" fill="#654321"/>
  <ellipse cx="18" cy="39" rx="2" ry="1" fill="#654321"/>
  
  <!-- Death effects - fading energy -->
  <circle cx="16" cy="32" r="12" fill="none" stroke="#228B22" stroke-width="0.3" opacity="0.1"/>
  <circle cx="16" cy="32" r="8" fill="none" stroke="#90EE90" stroke-width="0.2" opacity="0.2"/>
  <circle cx="16" cy="32" r="4" fill="none" stroke="#228B22" stroke-width="0.1" opacity="0.3"/>
  
  <!-- Soul/spirit effect rising -->
  <circle cx="16" cy="20" r="0.5" fill="#90EE90" opacity="0.6"/>
  <circle cx="17" cy="18" r="0.3" fill="#228B22" opacity="0.4"/>
  <circle cx="15" cy="16" r="0.2" fill="#90EE90" opacity="0.3"/>
  <circle cx="16" cy="14" r="0.1" fill="#228B22" opacity="0.2"/>
</svg> 