<svg width="24" height="30" viewBox="0 0 24 30" xmlns="http://www.w3.org/2000/svg">
  <!-- Sword Skeleton Move Animation Frame 2: Passing Position -->
  
  <!-- Sword (neutral swing) -->
  <rect x="19" y="8" width="1.5" height="10" fill="#C0C0C0" stroke="#808080" stroke-width="0.3"/>
  <rect x="18.5" y="13" width="2.5" height="0.8" fill="#404040"/>
  <rect x="19" y="13.8" width="1.5" height="2.5" fill="#654321"/>
  <circle cx="19.75" cy="16.5" r="0.8" fill="#404040"/>
  
  <!-- Skull (detailed, neutral) -->
  <circle cx="12" cy="8" r="3.5" fill="#F5F5DC" stroke="#E0E0E0" stroke-width="0.4"/>
  <circle cx="10.5" cy="7" r="0.8" fill="#000"/>
  <circle cx="13.5" cy="7" r="0.8" fill="#000"/>
  <circle cx="10.5" cy="7" r="0.3" fill="#FF0000" opacity="0.6"/>
  <circle cx="13.5" cy="7" r="0.3" fill="#FF0000" opacity="0.6"/>
  
  <!-- Nasal cavity -->
  <path d="M 12 8.5 L 11.2 10 L 12.8 10 Z" fill="#000"/>
  
  <!-- Jaw -->
  <path d="M 9.5 9.5 Q 12 11 14.5 9.5" stroke="#E0E0E0" stroke-width="0.5" fill="none"/>
  <rect x="10.5" y="9.8" width="0.3" height="0.8" fill="#F5F5DC"/>
  <rect x="11.2" y="9.8" width="0.3" height="0.8" fill="#F5F5DC"/>
  <rect x="12.5" y="9.8" width="0.3" height="0.8" fill="#F5F5DC"/>
  <rect x="13.2" y="9.8" width="0.3" height="0.8" fill="#F5F5DC"/>
  
  <!-- Spine (neutral) -->
  <line x1="12" y1="11.5" x2="12" y2="20" stroke="#E0E0E0" stroke-width="0.8"/>
  <circle cx="12" cy="13" r="0.4" fill="#E0E0E0"/>
  <circle cx="12" cy="15" r="0.4" fill="#E0E0E0"/>
  <circle cx="12" cy="17" r="0.4" fill="#E0E0E0"/>
  <circle cx="12" cy="19" r="0.4" fill="#E0E0E0"/>
  
  <!-- Ribcage (detailed, neutral) -->
  <ellipse cx="12" cy="15" rx="4" ry="2.5" fill="none" stroke="#E0E0E0" stroke-width="0.6"/>
  <path d="M 8.5 13 Q 12 11.5 15.5 13" stroke="#E0E0E0" stroke-width="0.4" fill="none"/>
  <path d="M 8.8 14.5 Q 12 13.2 15.2 14.5" stroke="#E0E0E0" stroke-width="0.4" fill="none"/>
  <path d="M 8.8 16.5 Q 12 15.2 15.2 16.5" stroke="#E0E0E0" stroke-width="0.4" fill="none"/>
  <path d="M 9.2 17.8 Q 12 16.8 14.8 17.8" stroke="#E0E0E0" stroke-width="0.4" fill="none"/>
  
  <!-- Arms (bone structure, neutral swing) -->
  <line x1="8" y1="13" x2="5" y2="16" stroke="#E0E0E0" stroke-width="0.6"/>
  <line x1="5" y1="16" x2="6" y2="19" stroke="#E0E0E0" stroke-width="0.6"/>
  <circle cx="5" cy="16" r="0.5" fill="#E0E0E0"/>
  <circle cx="6" cy="19" r="0.4" fill="#E0E0E0"/>
  
  <line x1="16" y1="13" x2="18" y2="15" stroke="#E0E0E0" stroke-width="0.6"/>
  <line x1="18" y1="15" x2="19" y2="18" stroke="#E0E0E0" stroke-width="0.6"/>
  <circle cx="18" cy="15" r="0.5" fill="#E0E0E0"/>
  <circle cx="19" cy="18" r="0.4" fill="#E0E0E0"/>
  
  <!-- Pelvis -->
  <ellipse cx="12" cy="20" rx="2.5" ry="1.2" fill="none" stroke="#E0E0E0" stroke-width="0.6"/>
  
  <!-- Legs (bone structure, passing position) -->
  <line x1="10" y1="20" x2="9" y2="25" stroke="#E0E0E0" stroke-width="0.6"/>
  <line x1="9" y1="25" x2="8" y2="28" stroke="#E0E0E0" stroke-width="0.6"/>
  <circle cx="9" cy="25" r="0.5" fill="#E0E0E0"/>
  
  <line x1="14" y1="20" x2="15" y2="25" stroke="#E0E0E0" stroke-width="0.6"/>
  <line x1="15" y1="25" x2="16" y2="28" stroke="#E0E0E0" stroke-width="0.6"/>
  <circle cx="15" cy="25" r="0.5" fill="#E0E0E0"/>
  
  <!-- Feet (bone structure, even) -->
  <ellipse cx="7" cy="28.5" rx="1.5" ry="0.8" fill="#E0E0E0"/>
  <ellipse cx="17" cy="28.5" rx="1.5" ry="0.8" fill="#E0E0E0"/>
  
  <!-- Motion lines -->
  <line x1="6" y1="27" x2="4" y2="27" stroke="#E0E0E0" stroke-width="0.3" opacity="0.5"/>
  <line x1="18" y1="27" x2="20" y2="27" stroke="#E0E0E0" stroke-width="0.3" opacity="0.5"/>
  
  <!-- Menacing details -->
  <circle cx="11" cy="5" r="0.2" fill="#E0E0E0" opacity="0.7"/>
  <circle cx="13" cy="5" r="0.2" fill="#E0E0E0" opacity="0.7"/>
  <circle cx="15" cy="6" r="0.2" fill="#E0E0E0" opacity="0.7"/>
</svg> 