<svg width="24" height="30" viewBox="0 0 24 30" xmlns="http://www.w3.org/2000/svg">
  <!-- Sword Skeleton Move Animation Frame 4: Cycle Complete -->
  
  <!-- Sword (returning to neutral) -->
  <rect x="19.2" y="8.2" width="1.5" height="10" fill="#C0C0C0" stroke="#808080" stroke-width="0.3"/>
  <rect x="18.7" y="13.2" width="2.5" height="0.8" fill="#404040"/>
  <rect x="19.2" y="14" width="1.5" height="2.5" fill="#654321"/>
  <circle cx="19.95" cy="16.7" r="0.8" fill="#404040"/>
  
  <!-- Skull (detailed, returning to neutral) -->
  <circle cx="11.9" cy="8.2" r="3.5" fill="#F5F5DC" stroke="#E0E0E0" stroke-width="0.4"/>
  <circle cx="10.4" cy="7.2" r="0.8" fill="#000"/>
  <circle cx="13.4" cy="7.2" r="0.8" fill="#000"/>
  <circle cx="10.4" cy="7.2" r="0.3" fill="#FF0000" opacity="0.6"/>
  <circle cx="13.4" cy="7.2" r="0.3" fill="#FF0000" opacity="0.6"/>
  
  <!-- Nasal cavity -->
  <path d="M 11.9 8.7 L 11.1 10.2 L 12.7 10.2 Z" fill="#000"/>
  
  <!-- Jaw -->
  <path d="M 9.4 9.7 Q 11.9 11.2 14.4 9.7" stroke="#E0E0E0" stroke-width="0.5" fill="none"/>
  <rect x="10.4" y="10" width="0.3" height="0.8" fill="#F5F5DC"/>
  <rect x="11.1" y="10" width="0.3" height="0.8" fill="#F5F5DC"/>
  <rect x="12.4" y="10" width="0.3" height="0.8" fill="#F5F5DC"/>
  <rect x="13.1" y="10" width="0.3" height="0.8" fill="#F5F5DC"/>
  
  <!-- Spine (returning to neutral) -->
  <line x1="11.9" y1="11.7" x2="11.9" y2="20.2" stroke="#E0E0E0" stroke-width="0.8"/>
  <circle cx="11.9" cy="13.2" r="0.4" fill="#E0E0E0"/>
  <circle cx="11.9" cy="15.2" r="0.4" fill="#E0E0E0"/>
  <circle cx="11.9" cy="17.2" r="0.4" fill="#E0E0E0"/>
  <circle cx="11.9" cy="19.2" r="0.4" fill="#E0E0E0"/>
  
  <!-- Ribcage (detailed, returning to center) -->
  <ellipse cx="11.9" cy="15.2" rx="4" ry="2.5" fill="none" stroke="#E0E0E0" stroke-width="0.6"/>
  <path d="M 8.4 13.2 Q 11.9 11.7 15.4 13.2" stroke="#E0E0E0" stroke-width="0.4" fill="none"/>
  <path d="M 8.7 14.7 Q 11.9 13.4 15.1 14.7" stroke="#E0E0E0" stroke-width="0.4" fill="none"/>
  <path d="M 8.7 16.7 Q 11.9 15.4 15.1 16.7" stroke="#E0E0E0" stroke-width="0.4" fill="none"/>
  <path d="M 9.1 18 Q 11.9 17 14.7 18" stroke="#E0E0E0" stroke-width="0.4" fill="none"/>
  
  <!-- Arms (bone structure, returning to neutral) -->
  <line x1="7.9" y1="13.2" x2="4.8" y2="16" stroke="#E0E0E0" stroke-width="0.6"/>
  <line x1="4.8" y1="16" x2="5.8" y2="19.2" stroke="#E0E0E0" stroke-width="0.6"/>
  <circle cx="4.8" cy="16" r="0.5" fill="#E0E0E0"/>
  <circle cx="5.8" cy="19.2" r="0.4" fill="#E0E0E0"/>
  
  <line x1="15.9" y1="13.2" x2="18.2" y2="15.2" stroke="#E0E0E0" stroke-width="0.6"/>
  <line x1="18.2" y1="15.2" x2="19.2" y2="18.2" stroke="#E0E0E0" stroke-width="0.6"/>
  <circle cx="18.2" cy="15.2" r="0.5" fill="#E0E0E0"/>
  <circle cx="19.2" cy="18.2" r="0.4" fill="#E0E0E0"/>
  
  <!-- Pelvis -->
  <ellipse cx="11.9" cy="20.2" rx="2.5" ry="1.2" fill="none" stroke="#E0E0E0" stroke-width="0.6"/>
  
  <!-- Legs (bone structure, returning to neutral) -->
  <line x1="9.9" y1="20.2" x2="8.8" y2="25" stroke="#E0E0E0" stroke-width="0.6"/>
  <line x1="8.8" y1="25" x2="7.8" y2="28.2" stroke="#E0E0E0" stroke-width="0.6"/>
  <circle cx="8.8" cy="25" r="0.5" fill="#E0E0E0"/>
  
  <line x1="13.9" y1="20.2" x2="15" y2="25" stroke="#E0E0E0" stroke-width="0.6"/>
  <line x1="15" y1="25" x2="16" y2="28.2" stroke="#E0E0E0" stroke-width="0.6"/>
  <circle cx="15" cy="25" r="0.5" fill="#E0E0E0"/>
  
  <!-- Feet (bone structure, returning to neutral) -->
  <ellipse cx="6.8" cy="28.7" rx="1.5" ry="0.8" fill="#E0E0E0"/>
  <ellipse cx="17" cy="28.7" rx="1.5" ry="0.8" fill="#E0E0E0"/>
  
  <!-- Motion lines -->
  <line x1="6" y1="27" x2="4" y2="27" stroke="#E0E0E0" stroke-width="0.3" opacity="0.5"/>
  <line x1="18" y1="27" x2="20" y2="27" stroke="#E0E0E0" stroke-width="0.3" opacity="0.5"/>
  
  <!-- Menacing details -->
  <circle cx="10.9" cy="5.2" r="0.2" fill="#E0E0E0" opacity="0.7"/>
  <circle cx="12.9" cy="5.2" r="0.2" fill="#E0E0E0" opacity="0.7"/>
  <circle cx="14.9" cy="6.2" r="0.2" fill="#E0E0E0" opacity="0.7"/>
</svg> 