<svg width="24" height="30" viewBox="0 0 24 30" xmlns="http://www.w3.org/2000/svg">
  <!-- Sword Skeleton Move Animation Frame 3: Right Leg Forward -->
  
  <!-- Sword (opposite swing) -->
  <rect x="19.5" y="8.5" width="1.5" height="10" fill="#C0C0C0" stroke="#808080" stroke-width="0.3"/>
  <rect x="19" y="13.5" width="2.5" height="0.8" fill="#404040"/>
  <rect x="19.5" y="14.3" width="1.5" height="2.5" fill="#654321"/>
  <circle cx="20.25" cy="17" r="0.8" fill="#404040"/>
  
  <!-- Skull (detailed, slight backward lean) -->
  <circle cx="11.7" cy="8.5" r="3.5" fill="#F5F5DC" stroke="#E0E0E0" stroke-width="0.4"/>
  <circle cx="10.2" cy="7.5" r="0.8" fill="#000"/>
  <circle cx="13.2" cy="7.5" r="0.8" fill="#000"/>
  <circle cx="10.2" cy="7.5" r="0.3" fill="#FF0000" opacity="0.6"/>
  <circle cx="13.2" cy="7.5" r="0.3" fill="#FF0000" opacity="0.6"/>
  
  <!-- Nasal cavity -->
  <path d="M 11.7 9 L 10.9 10.5 L 12.5 10.5 Z" fill="#000"/>
  
  <!-- Jaw -->
  <path d="M 9.2 10 Q 11.7 11.5 14.2 10" stroke="#E0E0E0" stroke-width="0.5" fill="none"/>
  <rect x="10.2" y="10.3" width="0.3" height="0.8" fill="#F5F5DC"/>
  <rect x="10.9" y="10.3" width="0.3" height="0.8" fill="#F5F5DC"/>
  <rect x="12.2" y="10.3" width="0.3" height="0.8" fill="#F5F5DC"/>
  <rect x="12.9" y="10.3" width="0.3" height="0.8" fill="#F5F5DC"/>
  
  <!-- Spine (slight backward lean) -->
  <path d="M 11.7 12 Q 11.9 15.5 11.8 20.5" stroke="#E0E0E0" stroke-width="0.8" fill="none"/>
  <circle cx="11.8" cy="13.5" r="0.4" fill="#E0E0E0"/>
  <circle cx="11.9" cy="15.5" r="0.4" fill="#E0E0E0"/>
  <circle cx="11.9" cy="17.5" r="0.4" fill="#E0E0E0"/>
  <circle cx="11.8" cy="19.5" r="0.4" fill="#E0E0E0"/>
  
  <!-- Ribcage (detailed, moving back) -->
  <ellipse cx="11.9" cy="15.5" rx="4" ry="2.5" fill="none" stroke="#E0E0E0" stroke-width="0.6"/>
  <path d="M 8.4 13.5 Q 11.9 12 15.4 13.5" stroke="#E0E0E0" stroke-width="0.4" fill="none"/>
  <path d="M 8.7 15 Q 11.9 13.7 15.1 15" stroke="#E0E0E0" stroke-width="0.4" fill="none"/>
  <path d="M 8.7 17 Q 11.9 15.7 15.1 17" stroke="#E0E0E0" stroke-width="0.4" fill="none"/>
  <path d="M 9.1 18.3 Q 11.9 17.3 14.7 18.3" stroke="#E0E0E0" stroke-width="0.4" fill="none"/>
  
  <!-- Arms (bone structure, opposite swing) -->
  <line x1="7.9" y1="13.5" x2="4.5" y2="16.5" stroke="#E0E0E0" stroke-width="0.6"/>
  <line x1="4.5" y1="16.5" x2="5.5" y2="19.5" stroke="#E0E0E0" stroke-width="0.6"/>
  <circle cx="4.5" cy="16.5" r="0.5" fill="#E0E0E0"/>
  <circle cx="5.5" cy="19.5" r="0.4" fill="#E0E0E0"/>
  
  <line x1="15.9" y1="13.5" x2="18.5" y2="15.5" stroke="#E0E0E0" stroke-width="0.6"/>
  <line x1="18.5" y1="15.5" x2="20" y2="18.5" stroke="#E0E0E0" stroke-width="0.6"/>
  <circle cx="18.5" cy="15.5" r="0.5" fill="#E0E0E0"/>
  <circle cx="20" cy="18.5" r="0.4" fill="#E0E0E0"/>
  
  <!-- Pelvis -->
  <ellipse cx="11.9" cy="20.5" rx="2.5" ry="1.2" fill="none" stroke="#E0E0E0" stroke-width="0.6"/>
  
  <!-- Legs (bone structure, right leg forward) -->
  <line x1="9.9" y1="20.5" x2="8.5" y2="25.5" stroke="#E0E0E0" stroke-width="0.6"/>
  <line x1="8.5" y1="25.5" x2="7.5" y2="28.5" stroke="#E0E0E0" stroke-width="0.6"/>
  <circle cx="8.5" cy="25.5" r="0.5" fill="#E0E0E0"/>
  
  <line x1="13.9" y1="20.5" x2="15.5" y2="24" stroke="#E0E0E0" stroke-width="0.6"/>
  <line x1="15.5" y1="24" x2="16.5" y2="27.5" stroke="#E0E0E0" stroke-width="0.6"/>
  <circle cx="15.5" cy="24" r="0.5" fill="#E0E0E0"/>
  
  <!-- Feet (bone structure, right foot forward) -->
  <ellipse cx="6.5" cy="29" rx="1.5" ry="0.8" fill="#E0E0E0"/>
  <ellipse cx="17.5" cy="28" rx="1.5" ry="0.8" fill="#E0E0E0"/>
  
  <!-- Motion lines -->
  <line x1="18" y1="26" x2="20" y2="26" stroke="#E0E0E0" stroke-width="0.3" opacity="0.5"/>
  <line x1="6" y1="28" x2="4" y2="28" stroke="#E0E0E0" stroke-width="0.3" opacity="0.5"/>
  
  <!-- Menacing details -->
  <circle cx="10.7" cy="5.5" r="0.2" fill="#E0E0E0" opacity="0.7"/>
  <circle cx="12.7" cy="5.5" r="0.2" fill="#E0E0E0" opacity="0.7"/>
  <circle cx="14.7" cy="6.5" r="0.2" fill="#E0E0E0" opacity="0.7"/>
</svg> 