<svg width="24" height="30" viewBox="0 0 24 30" xmlns="http://www.w3.org/2000/svg">
  <!-- Sword Skeleton Idle Animation Frame 3: Return to Neutral -->
  
  <!-- Sword (held at side) -->
  <rect x="18.8" y="7.8" width="1.5" height="10" fill="#C0C0C0" stroke="#808080" stroke-width="0.3"/>
  <rect x="18.3" y="12.8" width="2.5" height="0.8" fill="#404040"/>
  <rect x="18.8" y="13.6" width="1.5" height="2.5" fill="#654321"/>
  <circle cx="19.55" cy="16.3" r="0.8" fill="#404040"/>
  
  <!-- Skull (detailed, back to neutral) -->
  <circle cx="11.8" cy="7.9" r="3.5" fill="#F5F5DC" stroke="#E0E0E0" stroke-width="0.4"/>
  <circle cx="10.3" cy="6.9" r="0.8" fill="#000"/>
  <circle cx="13.3" cy="6.9" r="0.8" fill="#000"/>
  <circle cx="10.3" cy="6.9" r="0.3" fill="#FF0000" opacity="0.6"/>
  <circle cx="13.3" cy="6.9" r="0.3" fill="#FF0000" opacity="0.6"/>
  
  <!-- Nasal cavity -->
  <path d="M 11.8 8.4 L 11 9.9 L 12.6 9.9 Z" fill="#000"/>
  
  <!-- Jaw -->
  <path d="M 9.3 9.4 Q 11.8 10.9 14.3 9.4" stroke="#E0E0E0" stroke-width="0.5" fill="none"/>
  <rect x="10.3" y="9.7" width="0.3" height="0.8" fill="#F5F5DC"/>
  <rect x="11" y="9.7" width="0.3" height="0.8" fill="#F5F5DC"/>
  <rect x="12.3" y="9.7" width="0.3" height="0.8" fill="#F5F5DC"/>
  <rect x="13" y="9.7" width="0.3" height="0.8" fill="#F5F5DC"/>
  
  <!-- Spine (straighter) -->
  <line x1="11.8" y1="11.4" x2="11.9" y2="19.9" stroke="#E0E0E0" stroke-width="0.8"/>
  <circle cx="11.8" cy="12.9" r="0.4" fill="#E0E0E0"/>
  <circle cx="11.9" cy="14.9" r="0.4" fill="#E0E0E0"/>
  <circle cx="11.9" cy="16.9" r="0.4" fill="#E0E0E0"/>
  <circle cx="11.9" cy="18.9" r="0.4" fill="#E0E0E0"/>
  
  <!-- Ribcage (detailed, back to center) -->
  <ellipse cx="11.9" cy="14.9" rx="4" ry="2.5" fill="none" stroke="#E0E0E0" stroke-width="0.6"/>
  <path d="M 8.4 12.9 Q 11.9 11.4 15.4 12.9" stroke="#E0E0E0" stroke-width="0.4" fill="none"/>
  <path d="M 8.7 14.4 Q 11.9 13.1 15.1 14.4" stroke="#E0E0E0" stroke-width="0.4" fill="none"/>
  <path d="M 8.7 16.4 Q 11.9 15.1 15.1 16.4" stroke="#E0E0E0" stroke-width="0.4" fill="none"/>
  <path d="M 9.1 17.7 Q 11.9 16.7 14.7 17.7" stroke="#E0E0E0" stroke-width="0.4" fill="none"/>
  
  <!-- Arms (bone structure, back to neutral) -->
  <line x1="7.9" y1="12.9" x2="4.8" y2="15.8" stroke="#E0E0E0" stroke-width="0.6"/>
  <line x1="4.8" y1="15.8" x2="5.9" y2="18.9" stroke="#E0E0E0" stroke-width="0.6"/>
  <circle cx="4.8" cy="15.8" r="0.5" fill="#E0E0E0"/>
  <circle cx="5.9" cy="18.9" r="0.4" fill="#E0E0E0"/>
  
  <line x1="15.9" y1="12.9" x2="17.8" y2="14.8" stroke="#E0E0E0" stroke-width="0.6"/>
  <line x1="17.8" y1="14.8" x2="18.9" y2="17.9" stroke="#E0E0E0" stroke-width="0.6"/>
  <circle cx="17.8" cy="14.8" r="0.5" fill="#E0E0E0"/>
  <circle cx="18.9" cy="17.9" r="0.4" fill="#E0E0E0"/>
  
  <!-- Pelvis -->
  <ellipse cx="11.9" cy="19.9" rx="2.5" ry="1.2" fill="none" stroke="#E0E0E0" stroke-width="0.6"/>
  
  <!-- Legs (bone structure, back to neutral) -->
  <line x1="9.9" y1="19.9" x2="8.9" y2="24.9" stroke="#E0E0E0" stroke-width="0.6"/>
  <line x1="8.9" y1="24.9" x2="7.9" y2="27.9" stroke="#E0E0E0" stroke-width="0.6"/>
  <circle cx="8.9" cy="24.9" r="0.5" fill="#E0E0E0"/>
  
  <line x1="13.9" y1="19.9" x2="14.9" y2="24.9" stroke="#E0E0E0" stroke-width="0.6"/>
  <line x1="14.9" y1="24.9" x2="15.9" y2="27.9" stroke="#E0E0E0" stroke-width="0.6"/>
  <circle cx="14.9" cy="24.9" r="0.5" fill="#E0E0E0"/>
  
  <!-- Feet (bone structure) -->
  <ellipse cx="6.9" cy="28.4" rx="1.5" ry="0.8" fill="#E0E0E0"/>
  <ellipse cx="16.9" cy="28.4" rx="1.5" ry="0.8" fill="#E0E0E0"/>
  
  <!-- Menacing details -->
  <circle cx="10.9" cy="4.9" r="0.2" fill="#E0E0E0" opacity="0.7"/>
  <circle cx="12.9" cy="4.9" r="0.2" fill="#E0E0E0" opacity="0.7"/>
  <circle cx="14.9" cy="5.9" r="0.2" fill="#E0E0E0" opacity="0.7"/>
</svg> 