<svg width="24" height="30" viewBox="0 0 24 30" xmlns="http://www.w3.org/2000/svg">
  <!-- Sword Skeleton Idle Animation Frame 2: Slight Sway -->
  
  <!-- Sword (held at side, slightly moved) -->
  <rect x="19.2" y="8.2" width="1.5" height="10" fill="#C0C0C0" stroke="#808080" stroke-width="0.3"/>
  <rect x="18.7" y="13.2" width="2.5" height="0.8" fill="#404040"/>
  <rect x="19.2" y="14" width="1.5" height="2.5" fill="#654321"/>
  <circle cx="19.95" cy="16.7" r="0.8" fill="#404040"/>
  
  <!-- Skull (detailed, slightly tilted) -->
  <circle cx="12.2" cy="8.1" r="3.5" fill="#F5F5DC" stroke="#E0E0E0" stroke-width="0.4"/>
  <circle cx="10.7" cy="7.1" r="0.8" fill="#000"/>
  <circle cx="13.7" cy="7.1" r="0.8" fill="#000"/>
  <circle cx="10.7" cy="7.1" r="0.3" fill="#FF0000" opacity="0.6"/>
  <circle cx="13.7" cy="7.1" r="0.3" fill="#FF0000" opacity="0.6"/>
  
  <!-- Nasal cavity -->
  <path d="M 12.2 8.6 L 11.4 10.1 L 13 10.1 Z" fill="#000"/>
  
  <!-- Jaw -->
  <path d="M 9.7 9.6 Q 12.2 11.1 14.7 9.6" stroke="#E0E0E0" stroke-width="0.5" fill="none"/>
  <rect x="10.7" y="9.9" width="0.3" height="0.8" fill="#F5F5DC"/>
  <rect x="11.4" y="9.9" width="0.3" height="0.8" fill="#F5F5DC"/>
  <rect x="12.7" y="9.9" width="0.3" height="0.8" fill="#F5F5DC"/>
  <rect x="13.4" y="9.9" width="0.3" height="0.8" fill="#F5F5DC"/>
  
  <!-- Spine (slight curve) -->
  <path d="M 12.2 11.6 Q 12.1 15.5 12.2 20.1" stroke="#E0E0E0" stroke-width="0.8" fill="none"/>
  <circle cx="12.1" cy="13.1" r="0.4" fill="#E0E0E0"/>
  <circle cx="12.1" cy="15.1" r="0.4" fill="#E0E0E0"/>
  <circle cx="12.1" cy="17.1" r="0.4" fill="#E0E0E0"/>
  <circle cx="12.2" cy="19.1" r="0.4" fill="#E0E0E0"/>
  
  <!-- Ribcage (detailed, slightly shifted) -->
  <ellipse cx="12.1" cy="15.1" rx="4" ry="2.5" fill="none" stroke="#E0E0E0" stroke-width="0.6"/>
  <path d="M 8.6 13.1 Q 12.1 11.6 15.6 13.1" stroke="#E0E0E0" stroke-width="0.4" fill="none"/>
  <path d="M 8.9 14.6 Q 12.1 13.3 15.3 14.6" stroke="#E0E0E0" stroke-width="0.4" fill="none"/>
  <path d="M 8.9 16.6 Q 12.1 15.3 15.3 16.6" stroke="#E0E0E0" stroke-width="0.4" fill="none"/>
  <path d="M 9.3 17.9 Q 12.1 16.9 14.9 17.9" stroke="#E0E0E0" stroke-width="0.4" fill="none"/>
  
  <!-- Arms (bone structure, slightly moved) -->
  <line x1="8.1" y1="13.1" x2="5.2" y2="16.2" stroke="#E0E0E0" stroke-width="0.6"/>
  <line x1="5.2" y1="16.2" x2="6.1" y2="19.1" stroke="#E0E0E0" stroke-width="0.6"/>
  <circle cx="5.2" cy="16.2" r="0.5" fill="#E0E0E0"/>
  <circle cx="6.1" cy="19.1" r="0.4" fill="#E0E0E0"/>
  
  <line x1="16.1" y1="13.1" x2="18.2" y2="15.2" stroke="#E0E0E0" stroke-width="0.6"/>
  <line x1="18.2" y1="15.2" x2="19.1" y2="18.1" stroke="#E0E0E0" stroke-width="0.6"/>
  <circle cx="18.2" cy="15.2" r="0.5" fill="#E0E0E0"/>
  <circle cx="19.1" cy="18.1" r="0.4" fill="#E0E0E0"/>
  
  <!-- Pelvis -->
  <ellipse cx="12.1" cy="20.1" rx="2.5" ry="1.2" fill="none" stroke="#E0E0E0" stroke-width="0.6"/>
  
  <!-- Legs (bone structure, slightly adjusted) -->
  <line x1="10.1" y1="20.1" x2="9.1" y2="25.1" stroke="#E0E0E0" stroke-width="0.6"/>
  <line x1="9.1" y1="25.1" x2="8.1" y2="28.1" stroke="#E0E0E0" stroke-width="0.6"/>
  <circle cx="9.1" cy="25.1" r="0.5" fill="#E0E0E0"/>
  
  <line x1="14.1" y1="20.1" x2="15.1" y2="25.1" stroke="#E0E0E0" stroke-width="0.6"/>
  <line x1="15.1" y1="25.1" x2="16.1" y2="28.1" stroke="#E0E0E0" stroke-width="0.6"/>
  <circle cx="15.1" cy="25.1" r="0.5" fill="#E0E0E0"/>
  
  <!-- Feet (bone structure) -->
  <ellipse cx="7.1" cy="28.6" rx="1.5" ry="0.8" fill="#E0E0E0"/>
  <ellipse cx="17.1" cy="28.6" rx="1.5" ry="0.8" fill="#E0E0E0"/>
  
  <!-- Menacing details -->
  <circle cx="11.1" cy="5.1" r="0.2" fill="#E0E0E0" opacity="0.7"/>
  <circle cx="13.1" cy="5.1" r="0.2" fill="#E0E0E0" opacity="0.7"/>
  <circle cx="15.1" cy="6.1" r="0.2" fill="#E0E0E0" opacity="0.7"/>
</svg> 