<svg width="24" height="30" viewBox="0 0 24 30" xmlns="http://www.w3.org/2000/svg">
  <!-- Sword Skeleton Attack Animation Frame 1: Windup Preparation -->
  
  <!-- Sword (raised for attack) -->
  <rect x="15" y="2" width="1.5" height="10" fill="#C0C0C0" stroke="#808080" stroke-width="0.3"/>
  <rect x="14.5" y="7" width="2.5" height="0.8" fill="#404040"/>
  <rect x="15" y="7.8" width="1.5" height="2.5" fill="#654321"/>
  <circle cx="15.75" cy="10.5" r="0.8" fill="#404040"/>
  
  <!-- Skull (detailed, aggressive expression) -->
  <circle cx="12" cy="8" r="3.5" fill="#F5F5DC" stroke="#E0E0E0" stroke-width="0.4"/>
  <circle cx="10.5" cy="7" r="0.8" fill="#000"/>
  <circle cx="13.5" cy="7" r="0.8" fill="#000"/>
  <circle cx="10.5" cy="7" r="0.3" fill="#FF0000" opacity="0.8"/>
  <circle cx="13.5" cy="7" r="0.3" fill="#FF0000" opacity="0.8"/>
  
  <!-- Nasal cavity -->
  <path d="M 12 8.5 L 11.2 10 L 12.8 10 Z" fill="#000"/>
  
  <!-- Jaw (open in aggressive roar) -->
  <path d="M 9.5 9.5 Q 12 12 14.5 9.5" stroke="#E0E0E0" stroke-width="0.5" fill="none"/>
  <rect x="10.5" y="10.5" width="0.3" height="1.2" fill="#F5F5DC"/>
  <rect x="11.2" y="10.5" width="0.3" height="1.2" fill="#F5F5DC"/>
  <rect x="12.5" y="10.5" width="0.3" height="1.2" fill="#F5F5DC"/>
  <rect x="13.2" y="10.5" width="0.3" height="1.2" fill="#F5F5DC"/>
  
  <!-- Spine (leaning back for windup) -->
  <path d="M 12 11.5 Q 10.5 15 11 20" stroke="#E0E0E0" stroke-width="0.8" fill="none"/>
  <circle cx="11.5" cy="13" r="0.4" fill="#E0E0E0"/>
  <circle cx="11" cy="15" r="0.4" fill="#E0E0E0"/>
  <circle cx="10.8" cy="17" r="0.4" fill="#E0E0E0"/>
  <circle cx="11" cy="19" r="0.4" fill="#E0E0E0"/>
  
  <!-- Ribcage (detailed, expanded for windup) -->
  <ellipse cx="11" cy="15" rx="4.5" ry="2.5" fill="none" stroke="#E0E0E0" stroke-width="0.6"/>
  <path d="M 7.5 13 Q 11 11 16 13" stroke="#E0E0E0" stroke-width="0.4" fill="none"/>
  <path d="M 7.8 14.5 Q 11 12.5 15.7 14.5" stroke="#E0E0E0" stroke-width="0.4" fill="none"/>
  <path d="M 7.8 16.5 Q 11 14.5 15.7 16.5" stroke="#E0E0E0" stroke-width="0.4" fill="none"/>
  <path d="M 8.2 17.8 Q 11 16.2 15.3 17.8" stroke="#E0E0E0" stroke-width="0.4" fill="none"/>
  
  <!-- Arms (preparing for massive strike) -->
  <line x1="7" y1="13" x2="3" y2="14" stroke="#E0E0E0" stroke-width="0.6"/>
  <line x1="3" y1="14" x2="4" y2="17" stroke="#E0E0E0" stroke-width="0.6"/>
  <circle cx="3" cy="14" r="0.5" fill="#E0E0E0"/>
  <circle cx="4" cy="17" r="0.4" fill="#E0E0E0"/>
  
  <line x1="15" y1="13" x2="20" y2="8" stroke="#E0E0E0" stroke-width="0.6"/>
  <line x1="20" y1="8" x2="16" y2="5" stroke="#E0E0E0" stroke-width="0.6"/>
  <circle cx="20" cy="8" r="0.5" fill="#E0E0E0"/>
  <circle cx="16" cy="5" r="0.4" fill="#E0E0E0"/>
  
  <!-- Pelvis (shifted for power) -->
  <ellipse cx="11" cy="20" rx="2.5" ry="1.2" fill="none" stroke="#E0E0E0" stroke-width="0.6"/>
  
  <!-- Legs (braced for attack) -->
  <line x1="9" y1="20" x2="7" y2="24" stroke="#E0E0E0" stroke-width="0.6"/>
  <line x1="7" y1="24" x2="6" y2="27" stroke="#E0E0E0" stroke-width="0.6"/>
  <circle cx="7" cy="24" r="0.5" fill="#E0E0E0"/>
  
  <line x1="13" y1="20" x2="16" y2="25" stroke="#E0E0E0" stroke-width="0.6"/>
  <line x1="16" y1="25" x2="18" y2="28" stroke="#E0E0E0" stroke-width="0.6"/>
  <circle cx="16" cy="25" r="0.5" fill="#E0E0E0"/>
  
  <!-- Feet (planted for power) -->
  <ellipse cx="5" cy="27.5" rx="1.5" ry="0.8" fill="#E0E0E0"/>
  <ellipse cx="19" cy="28.5" rx="1.5" ry="0.8" fill="#E0E0E0"/>
  
  <!-- Attack energy buildup -->
  <circle cx="12" cy="8" r="4" fill="none" stroke="#FF0000" stroke-width="0.4" opacity="0.6"/>
  <circle cx="15.75" cy="10.5" r="1.2" fill="#FF0000" opacity="0.3"/>
  
  <!-- Menacing details (intensified) -->
  <circle cx="11" cy="5" r="0.3" fill="#FF0000" opacity="0.8"/>
  <circle cx="13" cy="5" r="0.3" fill="#FF0000" opacity="0.8"/>
  <circle cx="15" cy="6" r="0.3" fill="#FF0000" opacity="0.8"/>
</svg> 